<?xml version="1.0" encoding="UTF-8"?>
<!DOCTYPE svg PUBLIC "-//W3C//DTD SVG 1.1//EN" "http://www.w3.org/Graphics/SVG/1.1/DTD/svg11.dtd">
<!-- Creator: CorelDRAW X6 -->
<svg xmlns="http://www.w3.org/2000/svg" xml:space="preserve" width="350px" height="343px" version="1.1" style="shape-rendering:geometricPrecision; text-rendering:geometricPrecision; image-rendering:optimizeQuality; fill-rule:evenodd; clip-rule:evenodd"
viewBox="0 0 2565 2512"
 xmlns:xlink="http://www.w3.org/1999/xlink">
 <defs>
  <style type="text/css">
   <![CDATA[
    .fil0 {fill:#2B2A29}
    .fil1 {fill:#2B2A29;fill-rule:nonzero}
   ]]>
  </style>
 </defs>
 <g id="Vrstva_x0020_3">
  <metadata id="CorelCorpID_0Corel-Layer"/>
  <g id="_877034016">
   <path id="final" class="fil0" d="M834 476c15,-9 29,-17 44,-24 3,1 6,1 9,1 2,-3 3,-5 3,-7 2,-1 4,-2 6,-3 6,4 12,4 19,7 -23,2 -22,22 -30,37 12,-2 14,-13 19,-13 3,3 4,6 3,10 -4,2 -9,4 -13,7 -3,0 -6,0 -9,-4 -4,13 -11,6 -15,16l0 0c-6,3 -12,7 -17,10 -20,11 -38,23 -56,35 -4,-16 -13,-33 16,-45 5,3 10,6 15,9 3,-13 3,-24 6,-36zm643 1653c-3,-9 -7,-18 -23,-14 1,-10 18,-11 20,0 5,-3 5,-10 8,-15 7,7 -2,22 -5,29zm926 -330c-13,-5 3,-10 0,-20 11,2 3,14 0,20zm-259 -392c-3,0 -6,0 -9,0 1,-19 13,-26 11,-40 7,-1 9,-6 14,-1 0,18 -21,17 -16,41zm-42 208l0 0c-2,-6 4,-20 -6,-17 -4,3 -10,17 -3,20 0,-3 4,-3 9,-3zm397 -519c-1,7 -5,8 -7,12 -5,-3 1,-14 7,-12zm-123 -558c1,6 -4,5 -4,10 -5,-7 -18,2 -15,-10 2,0 3,1 3,3 3,0 3,-5 4,-8 2,3 7,4 12,5zm-5 23c1,7 -6,3 -8,7 -5,-4 2,-11 8,-7zm-18 -8c-4,-9 -13,-14 -12,-25 3,-1 6,-3 8,-5 7,8 1,17 4,30zm-143 585c-5,-7 -7,1 -14,-1 0,-5 -7,-4 -4,-10 10,4 -2,-13 10,-7 0,-6 -2,-3 -8,-4 1,-2 1,-4 2,-6 4,0 10,9 11,0 9,9 -5,15 3,28zm-126 44c-1,5 -7,2 -6,8 -7,-2 -16,-2 -19,-7 4,-5 12,-1 15,-7 7,0 3,6 10,6zm3 -867c-2,3 -10,-2 -8,7 -6,-4 -6,-4 -13,-3 4,-3 8,-6 3,-11 5,-4 17,2 18,7zm-92 132c-6,-5 -10,0 -14,-6 0,-2 1,-5 2,-8 5,0 8,-2 15,1 3,5 -3,5 -3,13zm-20 9c-1,9 -14,0 -9,-7 6,0 2,7 9,7zm-53 28c-3,3 -7,6 -7,14 -7,-5 -17,-8 -17,-17 4,-3 12,2 11,-7 6,2 8,7 13,10zm479 104l0 0c-1,3 -2,5 -2,8 5,2 9,1 10,-4 -4,-1 -7,-2 -8,-4zm-60 -107l0 0c-5,8 4,15 7,8 -6,-1 0,-9 -7,-8zm-9 27l0 0c6,-5 1,-9 6,-15 -7,-1 -13,12 -6,15zm-645 -437c7,1 12,3 10,11 -5,-1 -7,3 -12,1 0,-4 1,-8 2,-12zm-882 453c13,7 -4,9 -3,21 -12,-5 -1,-16 3,-21zm737 173c15,-1 11,10 23,10 -7,16 -17,-5 -30,1 -3,-10 10,0 7,-11zm1 19c-2,9 -9,12 -20,9 2,-10 9,-12 20,-9zm-338 171c5,2 6,7 4,13 -3,0 -6,-1 -9,-1 0,-7 3,-8 5,-12zm-183 98c8,8 19,14 24,25 -9,-1 -17,1 -21,15 -25,-7 -11,-24 -3,-40zm-719 433c-1,-6 3,-11 10,-13 4,2 5,7 7,13 -8,4 -10,-2 -17,0zm51 -17c-3,-7 5,-7 1,-13 11,0 10,-3 18,-8 7,14 -6,17 -19,21zm30 -42c3,0 5,-1 7,-2 3,5 0,7 1,10 -5,1 -7,-2 -8,-8zm9 13c7,-3 12,-1 14,6 -7,2 -12,0 -14,-6zm17 -25c8,-1 10,-5 16,-7 2,1 3,6 6,5 0,9 -3,16 -8,23 -11,1 -18,-12 -14,-21zm-11 -158c-1,-3 -2,-6 -3,-9 8,-4 12,8 3,9zm588 1255c-15,-2 -3,-18 4,-6 -2,1 -3,3 -4,6zm-252 -79c-5,-3 -3,-13 2,-16 6,2 9,6 6,14 -2,1 -7,-1 -8,2zm-54 -19c7,-4 13,-9 18,-15 3,5 -3,11 -2,19 -4,3 -14,0 -16,-4zm-293 -168c-9,-2 -7,-11 -10,-17 2,-3 6,-1 10,0 -5,11 9,3 5,16 -2,-1 -4,-1 -5,1zm6 -11c-2,-9 18,-7 14,2 -3,2 -9,0 -14,-2zm-185 -176c-5,-1 -1,-7 -8,-7 2,-7 3,-18 8,-20 5,4 1,13 8,16 -1,8 -8,3 -8,11zm699 73c-6,-5 4,-12 10,-10 -1,8 -8,5 -10,10zm21 1c-5,-4 -3,-11 -2,-18 4,1 7,2 11,3 -1,7 -5,10 -9,15zm52 -225c-3,-4 -6,-8 -15,-9 6,-7 10,-17 20,-17 2,4 -3,12 6,12 -2,7 -7,9 -11,14zm140 -93c1,-4 4,-9 1,-10 2,-3 6,-3 10,-2 2,8 2,15 -11,12zm40 -39c8,-11 20,-5 33,-1 -10,10 -20,-3 -33,1zm-346 688l0 0c-4,0 -10,-1 -11,5 3,1 6,1 9,2 1,-2 2,-4 2,-7zm-219 -102c-7,-7 -6,-18 -19,-12 1,-13 19,-15 21,-4 2,1 2,-1 3,-2 0,5 -10,7 -5,18zm344 -438l0 0c0,-5 8,-15 -1,-15 -3,2 -11,12 -6,16 1,-3 4,-2 7,-1zm199 -112c-2,-6 17,-17 21,-12 -3,10 -17,3 -21,12zm-578 -1473c-4,4 -10,1 -14,6 -9,-7 -11,-15 -5,-24 16,-4 8,11 19,18zm-141 89c7,-5 7,3 11,7 -8,13 -17,15 -30,6 7,-10 -1,-11 10,-14 5,11 10,17 9,1zm-116 146c7,13 -2,15 -1,25 -18,5 -9,-22 1,-25zm-63 120c-14,7 -22,4 -43,2 3,-4 4,-7 1,-9 14,0 27,0 42,7zm204 329c10,5 9,13 1,22 -6,-5 -10,-1 -16,-6 11,-2 2,-14 15,-16zm-393 158c4,-3 8,-5 13,-3 -2,3 -2,7 -2,10 1,1 3,2 4,3 -1,3 -2,5 -2,7 1,3 2,5 2,8 0,0 -1,1 -2,1 1,3 1,5 0,8 3,-1 5,-2 8,-4 0,-4 0,-8 1,-12 -3,-4 -5,-8 -5,-13 2,2 4,3 6,4 0,-2 0,-5 1,-7 -1,1 -2,2 -4,2 -6,-3 -3,-12 4,-14 -1,2 0,5 0,7 1,-6 2,-13 3,-19 -2,2 -2,4 -1,7 -15,-4 -15,-8 -27,9 -12,-6 -6,-16 1,-26 -5,1 -10,3 -14,6 0,0 -1,-1 -1,-2 -1,7 -2,15 -3,22 6,1 12,3 18,6zm-24 57c-3,42 -3,83 -2,125 2,1 5,2 8,2 5,13 -5,18 -1,30 -2,1 -4,1 -6,0 1,5 1,10 1,15 14,-7 27,33 38,47 -13,2 -16,-24 -28,-12 3,-9 -1,-25 -10,-31 1,14 3,28 4,42 8,0 13,7 19,3 -7,8 -10,29 7,30 0,3 -7,3 -6,7 6,1 9,7 15,8 -9,12 10,11 14,20 -3,1 -5,2 -7,2 1,3 1,5 2,7 2,2 7,3 10,2 -1,-6 -2,-12 -3,-18 -6,-3 -11,-7 -9,-15 2,-1 4,-2 6,-2 -9,-59 -13,-119 -13,-178 -1,1 -4,2 -6,0 -1,-4 2,-6 6,-7 1,-30 2,-60 4,-90l0 0c0,5 -5,7 -9,10 -2,-6 3,-6 -2,-9 -5,5 -3,6 -11,5 -1,-10 -10,-7 -14,-13 1,4 4,17 -1,23 -2,-1 -4,-2 -6,-3zm7 245l0 0c1,0 1,0 1,0 0,0 0,0 -1,0zm3 20c0,3 1,6 1,10 1,-2 2,-3 5,-5 -2,-1 -4,-3 -6,-5zm39 48l6 -4c-1,-5 -5,-4 -6,-9 -3,4 -13,4 -14,9 5,4 5,-3 12,-1 1,2 1,3 2,5zm-11 -327l-5 -2 0 1c1,1 3,1 5,1zm850 -722c4,-2 9,-4 14,-6 -4,5 -8,5 -12,9l0 0c-1,-1 -2,-2 -2,-3zm33 -14l2 -1c5,0 7,-1 8,-3 4,-2 8,-3 12,-5 4,6 10,9 19,11 -4,9 -10,13 -15,15l-1 0c5,-1 9,-4 7,-8 -5,-2 -9,-2 -13,-1 -2,-1 -4,0 -7,6 -8,-4 -4,-10 -12,-14zm98 -33c1,0 3,-1 5,-1 0,1 0,2 0,4 -1,0 -3,-1 -5,-3zm107 -22c16,-2 32,-4 49,-5 1,1 2,4 1,8 -2,1 -4,4 -5,7 -4,-4 -7,-12 -14,-7 1,1 2,2 2,3 0,0 -1,0 -1,0 -5,2 -8,7 -11,11 7,3 9,10 23,9 1,-3 1,-8 4,-8 2,0 3,1 3,2l-4 6c-6,3 -11,7 -17,10 4,1 5,1 5,2 -7,1 -15,2 -22,3 4,-3 5,-7 3,-13 -4,3 -9,5 -15,6 6,-13 -3,-22 -1,-34zm-35 48c-11,2 -21,5 -32,7 -11,-3 -22,-7 -25,2 -4,-13 11,-34 21,-33 9,11 15,15 23,18 -5,1 -8,4 -10,8 6,-1 14,-1 23,-2zm-5 -9c3,-6 7,-10 12,-11 1,8 -5,10 -12,11zm14 -12c7,-1 14,2 25,7 -9,0 -18,-2 -25,-7zm163 -36c42,1 84,4 125,10 2,4 2,10 7,11 2,-4 4,-6 6,-9 26,5 52,10 77,17 0,2 0,5 0,10 13,4 20,-1 31,-1 2,15 3,30 0,43 -80,-25 -164,-38 -248,-39 10,-9 16,-20 16,-30 -2,3 -5,5 -10,4 0,-6 -1,-11 -4,-16zm-100 25c2,-1 3,-1 4,-2 0,1 -1,2 -2,2 -1,0 -1,0 -2,0zm376 22c49,16 97,37 143,62 0,1 1,3 2,4 3,1 6,1 8,1 1,1 3,2 5,3l-2 1c-3,-1 -5,1 -6,3l-35 20c-42,-22 -87,-41 -132,-56 1,-12 3,-24 6,-35 3,-2 8,-2 11,-3zm-812 176c-121,94 -211,216 -267,351 -4,-1 -8,-3 -12,-6 3,-8 21,-9 6,-17 -5,13 -13,6 -18,19 6,11 12,15 19,16 -13,33 -23,66 -32,100 -1,-3 -3,-3 -6,1 2,2 2,6 -2,9 2,2 3,3 4,5 -11,44 -18,90 -21,137 -4,4 -8,8 -9,17 3,2 5,3 8,4 -1,3 -1,6 -1,9l-6 3c-2,-1 -4,-2 -7,-4 -3,-8 -5,-14 4,-21 -9,3 -10,-8 -19,-5 -2,9 -7,12 -13,12 5,-87 22,-173 51,-254 0,0 1,-1 1,-1 0,0 0,-1 0,-1 4,-12 8,-23 12,-34 2,0 4,0 6,0 -2,0 -4,0 -5,-1 9,-23 19,-45 30,-68 21,-1 39,-24 36,-41 -2,18 -10,14 -20,11 2,-2 3,-5 4,-7 15,1 34,-20 25,-24 -6,5 -13,10 -19,14 4,-6 7,-12 11,-19 10,-11 17,-26 31,-32 -1,-2 -3,-5 -5,-8 5,-7 11,-15 16,-22 11,9 0,15 17,28 4,-8 10,-4 14,-6 -16,-11 -23,-20 -26,-29 11,-14 22,-28 33,-41 9,1 18,3 25,-3 -9,-3 -11,-7 -12,-12 14,-15 28,-30 43,-45 5,-1 11,-2 15,-6 -2,-2 -4,-3 -5,-4 2,-2 3,-3 5,-4 4,0 9,1 11,0 -2,-2 -4,-3 -1,-6 1,-2 1,-3 1,-4 6,-6 12,-11 18,-17 15,0 33,-4 38,-19 6,2 10,-3 17,6 4,-7 7,-12 6,-17 -5,-5 -10,-7 -15,-7 20,-14 40,-28 61,-41 -17,24 -28,42 -35,69 0,-1 -1,-2 -2,-3 0,1 -1,1 -2,2 -3,-1 -5,0 -8,1 -6,-1 -11,-3 -15,5 2,1 4,3 7,4 -1,2 -1,4 1,6 1,-1 3,-1 4,-2 1,0 2,1 3,2zm-27 -33l4 -2c0,2 1,4 3,6 -1,-1 -3,-2 -4,-1 -1,-1 -2,-2 -3,-3zm-322 675c-3,-1 -6,-2 -10,-2 1,-1 2,-2 3,-3 4,-1 5,2 7,5zm592 -811c1,3 4,5 7,6 1,-1 2,-2 3,-3 -3,-3 -4,-5 -5,-8 -1,2 -3,4 -5,5zm12 6c1,1 3,1 4,1l0 -1c-1,0 -3,0 -4,0zm8 -13c0,-2 -1,-4 -2,-6 -9,2 -6,6 -5,12 2,-2 4,-4 7,-6zm361 -379c-4,-3 -7,-3 -9,-1 -9,-10 9,-10 11,-18 -1,12 4,22 -8,36 -4,-4 3,-11 6,-17zm-899 823c3,-5 5,-10 8,-14 2,2 3,4 2,6 -3,4 -6,7 -10,8zm-82 392l-5 3c0,-2 0,-3 0,-4 1,0 3,0 5,1zm1009 885c-10,-1 -10,-7 -16,-11 5,-5 20,3 16,11zm408 -159c-6,0 -7,-4 -10,-6 5,-2 9,-7 17,-5 -2,5 -6,5 -7,11zm-718 -211c0,6 18,3 12,12 -7,5 -18,-1 -12,-12zm871 73c3,-10 -2,-14 3,-25 12,2 12,30 -3,25zm-189 -436c-15,0 -10,-11 -22,-12 9,-15 17,7 31,2 1,10 -11,0 -9,10zm1 -18c3,-9 10,-11 21,-7 -3,9 -10,11 -21,7zm133 -65c-10,-4 1,-19 -15,-14 4,-10 11,-12 13,-25 5,10 0,22 2,39zm240 -20c1,-1 1,-3 2,-5 4,1 6,2 8,4 5,-2 10,-5 18,-6 0,-5 0,-10 0,-14 0,0 -1,0 -2,0 0,2 -1,4 -2,5 -3,0 -5,-1 -7,-2l-17 10c-3,3 -7,3 -8,7 -1,0 -2,-1 -2,-1l-4 2c-1,13 -1,26 -3,39 10,3 21,6 24,17 -9,1 -18,2 -26,3 0,8 -1,16 -2,24 8,6 1,20 -2,33 -1,-1 -2,-1 -3,-2 -1,6 -2,13 -4,19 9,0 6,8 4,14 -3,1 -4,-1 -6,-2 -1,5 -2,10 -3,15 2,-1 4,-2 7,-4 -1,4 -1,8 3,8 -1,8 -9,7 -14,10 0,2 -1,5 -1,7 10,11 6,38 27,32 1,-8 -2,-11 -9,-9 5,-10 12,-20 25,-23 1,-5 2,-10 3,-15 -7,-2 -13,-4 -17,-5 2,-12 8,-16 10,-25 6,2 9,5 12,9 0,-2 0,-4 1,-7 -3,-4 -1,-9 2,-13 3,-16 6,-32 8,-49 -4,-5 -9,-10 -12,-15 0,-14 19,-17 11,-31 2,-1 4,-1 5,0 1,-6 1,-12 1,-18 -4,4 -9,7 -9,15 -13,-5 -24,-12 -26,-28 3,1 6,1 8,1zm11 -159c1,-8 5,-12 12,-9 -1,8 -4,12 -12,9zm341 27c-10,-11 -2,-36 13,-37 7,5 -5,10 -9,10 -1,7 6,8 13,10 -1,3 -2,6 -2,9 -9,5 -5,-6 -14,-7 -3,8 9,10 -1,15zm-191 -84c-4,-2 -8,-3 -12,-4 1,-11 17,-7 12,4zm-162 410c-1,6 -3,11 -4,17 -2,-9 -10,-16 0,-21 3,0 3,3 4,4zm-15 54c-6,17 -12,35 -19,52 -1,-1 -2,-3 -3,-4 -2,-11 4,-14 3,-23 -14,17 -39,26 -34,54 -5,-1 -5,-8 -14,-5 -2,16 17,12 15,28 -18,-11 -8,23 -26,12 -3,12 -23,32 -5,40 7,-10 13,-10 8,-26 11,-1 14,-9 17,-17 5,-1 10,-2 14,-2 -8,16 -16,31 -24,47 -3,-1 -6,-2 -9,-2 -8,5 8,9 1,13 0,1 -1,1 -1,1 -7,-6 -11,-16 -23,-17 0,6 -2,10 -3,16 -6,-2 -11,-4 -17,-5 20,-33 37,-67 52,-102 0,0 1,0 1,0 0,-1 0,-2 0,-2 3,-7 6,-14 9,-21l8 0c0,-5 0,-10 -1,-15 0,0 -1,1 -2,1 1,-3 2,-5 3,-8 4,2 9,4 14,7 6,-13 3,-31 2,-43 -1,2 -3,2 -5,3 4,-12 8,-24 11,-36 2,0 3,2 5,5 -5,4 -3,14 -8,17 18,14 -8,39 20,42 5,-5 -4,-11 9,-11 0,0 1,0 2,1zm-117 234c-8,11 -15,22 -24,33l-6 -2c-1,4 -3,6 -5,8l5 1c-33,43 -70,83 -111,119 1,-6 5,-11 11,-17 -6,-8 -22,-8 -26,-8 8,-3 7,-14 20,-12 3,-9 1,-8 -4,-14 6,-5 4,0 12,0 -2,-5 -3,-10 -7,-13 8,-7 15,-15 23,-22 3,9 8,17 22,21 4,-3 6,-10 8,-17 -10,-5 -18,-14 -26,-9 17,-19 33,-38 48,-57 8,2 15,5 17,-2 -2,-3 -5,-6 -9,-8 7,-10 14,-20 21,-30 1,0 1,0 1,1 -2,18 12,27 21,40 2,-6 5,-10 9,-12zm-148 165c-40,34 -83,66 -130,94 -5,-16 -8,-32 -4,-47 4,-2 8,-5 12,-7 0,1 -1,2 -1,4 25,8 32,-14 36,-28 12,-9 24,-18 35,-27 1,4 1,8 -1,12 5,3 13,3 20,5 2,-5 0,-14 5,-17 13,-2 8,15 17,17 1,-11 4,-7 11,-6zm-155 109c-16,8 -31,16 -47,24 0,-2 1,-3 2,-5 -3,-9 -7,-12 -14,-14 -7,-5 -6,-14 -2,-21 18,-9 37,-19 54,-29 5,-3 9,-5 14,-8 1,12 1,24 -1,34 -4,4 -13,3 -11,12 2,2 3,4 5,7zm160 -170c1,-1 2,-2 3,-3 0,2 -1,4 -2,4 -1,0 -1,-1 -1,-1zm-266 219c-35,14 -69,25 -104,34 -1,-4 -2,-8 -5,-13 -13,22 -27,15 -48,24 -1,-4 3,-15 -3,-14 -9,-2 -6,16 -17,6 4,3 6,7 8,12 -4,0 -9,1 -13,2 1,-1 2,-2 2,-3 -11,1 -2,-9 -3,-14 -2,0 -5,0 -8,0 0,7 5,9 -3,11 4,-18 -13,3 -11,-11 -10,-2 -6,8 -12,9 0,6 6,8 6,12 -58,8 -116,10 -174,6 9,-1 16,-8 21,-15l0 0c6,-4 10,-11 21,-7 2,-5 4,-11 2,-14 -8,2 -8,-1 -9,-4 11,0 23,0 34,0 -1,3 -3,6 -3,9 5,3 4,11 11,11 -3,-12 11,-8 14,-14 0,-2 0,-5 -1,-7 92,-3 185,-22 274,-56 4,2 6,6 3,16 10,2 18,3 25,6 -1,5 -3,10 -7,14zm-394 60c-72,-5 -142,-19 -210,-40 14,-11 27,-13 35,-28 3,5 8,10 11,15 -4,-12 7,-7 11,-14 62,16 125,25 189,27 0,6 2,9 2,13 -2,1 -6,2 -9,5 -5,-6 -16,-6 -26,-7 1,12 -7,16 -5,29 1,0 1,0 2,0zm389 -103c4,-1 7,-3 10,-4 2,5 3,10 4,15 -1,0 -1,0 -2,0 1,-7 -5,-9 -12,-11zm-604 61c-1,0 -3,-1 -4,-1 1,-1 2,-1 4,-1 0,1 0,1 0,2zm-16 -5c-51,-18 -100,-40 -148,-67l43 -24c40,21 83,39 126,54 -6,1 -11,4 -17,7 1,-4 3,-7 5,-8 -7,-4 -8,1 -13,1 4,13 -2,21 -8,32 4,1 10,2 12,5zm635 -62c1,-1 2,-1 3,-2 -1,1 -2,2 -3,2zm893 -1031c10,52 17,105 21,158 -5,0 -10,3 -14,8 5,-1 10,-1 14,0 2,23 3,45 3,68 -7,1 -14,11 -10,12 2,-2 7,-2 10,-4 0,8 0,16 -1,24 -5,0 -10,0 -10,8 4,1 7,2 10,2 -1,52 -6,104 -14,155 -19,-17 -1,-35 -13,-58 -9,-3 5,11 -5,8 -2,-7 -5,-14 0,-25 7,3 8,8 15,4 6,-12 -13,-9 -11,-18 4,-13 13,-17 19,-26 -14,-4 -16,-14 -15,-26 -7,-2 -12,-1 -18,-1 0,-16 1,-32 1,-49 6,4 17,-4 12,-11 -6,-2 -10,-1 -12,3 0,-8 0,-16 -1,-23 7,-7 20,-1 24,-12 -4,-5 -18,2 -24,9 -2,-62 -8,-123 -19,-184l38 -22zm8 442c-3,18 -7,36 -10,54 -8,-3 -16,-6 -25,-9 0,-2 0,-3 0,-5 6,-3 12,-6 16,-10 -8,-2 -13,0 -18,4 -1,-1 -2,-2 -4,-2 -1,4 -6,4 -9,7 2,-11 4,-23 6,-34 1,0 2,0 3,0 7,-1 8,-12 14,-15 8,3 18,6 27,10zm-41 49c1,4 9,4 8,9 -9,8 -15,15 -24,15 1,-6 3,-13 4,-19 1,-3 4,-5 6,-7 2,1 4,2 6,2zm28 20c-1,2 -1,3 -2,5 -8,-4 -15,7 -16,0 1,-3 2,-6 3,-9l15 4zm-4 16c-1,2 -1,5 -2,7 -4,0 -9,-1 -8,-8 2,4 7,4 10,1zm-4 18c-4,15 -8,30 -12,45 -6,-2 -10,-3 -14,-3 -4,-1 -7,-1 -9,-2 -4,-6 1,-8 -3,-17 5,0 22,-5 14,-14 -2,9 -14,6 -24,7 4,-13 7,-26 10,-40 6,1 12,0 16,-5 -4,13 10,31 22,29zm-33 56c-1,6 -3,12 4,13 1,-2 2,-4 4,-6l2 0c0,-1 -1,-1 -1,-2 3,-3 7,-5 9,-9 -6,23 -13,45 -21,67 -6,-2 -14,-1 -15,-7 1,-21 21,-23 28,-38 -6,-5 -6,2 -11,3 4,-17 -24,-5 -12,-22 4,-11 1,-18 -7,-21l-1 3c3,0 5,1 5,3 -2,5 -5,9 -9,11l-1 4c2,1 4,1 6,2 2,-1 4,-2 7,-2 3,7 9,3 13,1zm-10 82c-5,14 -11,29 -17,43 -5,-3 -7,-8 -2,-15 -8,3 -10,-14 -14,-5 2,0 3,0 3,2 -10,14 -1,27 5,36 -18,41 -38,81 -60,121 -3,-1 -5,0 -6,4 1,0 2,0 3,1 -3,6 -7,12 -11,19 -1,-1 -2,-1 -3,-1 -9,-6 -4,-20 -20,-21 1,17 -4,25 -13,40 8,2 15,5 19,10 -8,12 -16,25 -25,37 -3,-1 -6,-2 -9,-1 1,-6 -2,-13 1,-18 2,-8 -10,-8 -12,-13 3,-6 11,-5 15,-12 1,-5 -9,-4 -10,-8 0,0 0,0 0,0 17,-28 34,-56 50,-85 19,4 35,4 39,-27 -7,2 -15,-2 -22,-7 1,-2 2,-5 4,-7 1,1 2,2 5,1 2,-10 9,-14 11,-25 -2,0 -3,-1 -5,-1 6,-13 12,-26 17,-39 0,2 0,4 -1,8 11,-5 6,7 11,8 5,-2 10,-20 3,-25 -4,5 -7,5 -10,3 9,-23 18,-46 26,-69 5,1 10,2 17,-3 8,16 -8,19 -14,29 14,4 6,16 12,25 9,-2 1,-13 5,-14 5,1 3,8 8,9zm-20 -72l2 -5c1,0 2,0 3,0 -1,3 -3,5 -5,5zm-149 382c-7,10 -15,20 -23,30 -1,0 -3,-1 -5,-1 -2,4 -1,6 0,8 -7,8 -13,16 -20,24 -4,-6 -13,-8 -22,-9 -8,5 11,6 9,14 -6,0 -4,-8 -11,-6 -3,1 -3,4 -4,5 -2,-5 -15,-3 -16,-9 22,6 36,-24 38,-49 3,-1 6,-2 10,-1 0,-2 -1,-4 -1,-6 8,6 15,13 20,17 5,-11 14,-15 25,-17zm-65 81c-9,10 -18,19 -27,29 1,-1 1,-2 0,-4 -4,0 -6,2 -8,3 0,-3 -1,-6 -4,-6 0,0 0,-1 1,-3 5,1 5,4 4,8 7,-5 15,-9 20,-17 -1,-9 -13,-2 -18,-4 10,-2 14,-13 21,-20 8,5 12,7 11,14zm-32 35c-5,5 -9,9 -13,13 1,-3 0,-7 -4,-13 1,-5 5,-7 7,-9 -1,6 -4,12 4,14 1,-3 3,-4 6,-5zm83 -167l1 -3c9,4 11,10 24,6 0,5 -4,5 -7,4 0,0 0,1 0,1l-1 0c-3,4 -3,10 -8,11 -2,-8 -2,-18 -9,-19zm23 15c0,0 0,0 1,0 -1,1 -1,1 -1,1 0,0 0,-1 0,-1zm-203 243c-6,5 -12,10 -18,15 -2,-2 -4,-4 -7,-5 8,-4 14,-8 19,-14 2,1 4,2 6,4zm-102 78c-27,18 -55,36 -83,53 -16,9 -33,18 -49,26 1,-2 2,-4 1,-8 -11,4 -7,-8 -14,-8 -1,7 -3,16 0,23 -33,17 -66,32 -100,45 0,-1 -1,-2 -2,-4 6,-3 11,-8 17,-11 -3,-4 -12,-3 -9,-14 -5,0 -11,0 -17,0 -2,-11 11,-7 11,-15 0,0 -1,0 -1,0 48,-20 95,-44 142,-71 17,-9 34,-20 50,-30l16 4c2,-6 -1,-10 -5,-11 5,-3 9,-7 14,-10 -1,1 -2,3 -4,4 4,4 17,4 20,0 -1,-3 -1,-5 -2,-8 1,1 3,2 4,4 5,-8 11,-15 14,-22 18,-13 36,-27 54,-42l3 1c0,-1 0,-2 0,-3 6,-5 11,-10 17,-15 -6,8 -12,16 -7,24 -4,1 -9,1 -15,-1 7,8 7,30 -6,23 -2,12 18,3 17,17 -10,0 -10,-6 -17,-7 0,5 9,5 3,13 -6,-2 -9,1 -14,2 -2,-1 -3,-1 -5,-1 -4,4 -4,13 0,17 -1,1 -1,1 -2,2 -6,3 -11,-4 -17,-8 -9,9 -19,18 -14,31l0 0zm-277 143c-250,93 -518,101 -765,34 6,-3 12,-6 16,-12 -3,-3 -3,-7 -5,-11 -13,-5 -17,4 -31,-3 -3,9 -6,11 -12,17 -9,-3 -18,-6 -28,-9 0,-1 0,-1 -1,-2 1,-7 7,-6 8,-13 4,1 4,3 4,6 5,-4 11,-7 15,-13 0,-7 -10,-2 -13,-3 5,-1 9,-7 12,-11 255,80 535,77 796,-23 7,13 12,26 3,42 1,1 1,1 1,1zm-878 -3c-7,-3 -14,-6 -22,-8 3,-1 6,-2 10,-2 -2,-10 1,-24 -4,-33 7,-8 10,13 16,5 2,4 6,8 4,15 6,5 5,2 13,4 4,6 -2,13 -5,18 -5,-4 -7,-3 -12,1zm-29 -11c-7,-3 -14,-6 -21,-9 5,0 8,-5 14,-3 6,2 9,5 7,12zm-24 -11c-60,-25 -118,-56 -173,-90 0,-1 0,-2 1,-3 -2,-1 -4,0 -6,0 -24,-15 -47,-31 -70,-48 1,-17 1,-35 5,-49 73,56 152,103 235,141 -2,1 -3,2 -3,6 2,0 5,1 7,2 0,-2 1,-4 1,-5 7,3 13,6 20,8 0,9 -1,17 -9,24 -8,0 0,-10 -9,-9 -6,6 -14,8 -21,11 7,2 15,13 24,4l-2 8zm62 -19c6,2 12,4 18,6 -1,2 -1,4 0,6 2,0 4,-2 5,-4 3,1 5,2 7,3 -4,6 -7,13 -13,16 -1,-12 -13,-16 -18,-25 0,-1 0,-2 1,-2zm-349 -152c-14,-12 -29,-24 -43,-36l38 -22c8,7 17,14 25,21 0,0 0,1 -1,1 3,2 4,2 6,2 2,2 5,4 7,6 0,2 0,5 0,8 -15,-3 -17,10 -28,5 1,5 0,12 -4,15zm1606 -88c3,-3 6,-6 9,-9 1,1 2,2 3,4 -2,1 -4,3 -5,8 -3,-2 -5,-3 -7,-3zm-1420 -1999c3,-1 6,-3 8,-4 3,3 7,5 9,13 4,-14 15,3 21,-1 7,-8 8,-15 2,-20 -11,2 -2,15 -16,10 -3,-2 -4,-5 -4,-9 9,-4 17,-8 25,-12 -1,1 -3,3 -6,5 15,0 28,-8 41,-14 -9,-7 -14,3 -21,2 12,-6 25,-11 37,-17 6,18 22,-3 35,7 -11,12 -24,23 -33,4 -13,16 -14,22 -23,26 11,-9 1,10 -3,14 2,1 4,2 6,4 -18,8 -35,17 -52,26 -1,-10 -9,-13 -18,-4 -2,-10 -3,-20 -8,-30zm101 -49c3,-1 5,-2 7,-3 -2,3 -4,3 -7,3zm31 -12c8,-4 17,-7 26,-11 -8,5 -22,12 -17,17 -9,-1 -11,-4 -9,-6zm48 -19c28,-10 57,-19 85,-27 4,3 8,1 10,-2 8,-2 16,-4 24,-6 -4,5 -7,12 -10,23 -11,-8 -18,1 -26,9 13,11 13,9 7,19 -32,9 -65,19 -97,31 2,-5 5,-10 10,-15 -6,-10 -23,-3 -18,-12 7,-10 19,4 26,-8 -3,-4 -8,-8 -11,-12zm153 -43l2 -1c1,1 1,1 2,1l0 -1c12,-2 23,-5 35,-7 -4,2 -8,2 -11,8 2,1 3,3 5,4 -4,3 -7,6 -10,11 1,6 6,5 11,3 0,1 1,2 2,3 -6,4 -8,11 -12,17 -15,3 -29,6 -43,9 2,-6 6,-13 3,-19 -3,3 -20,10 -16,1 14,4 32,-32 40,-6 7,-9 -7,-15 -8,-23zm36 20c0,-1 1,-1 1,-2 1,0 3,0 4,0 -2,0 -4,1 -5,2zm16 -27c-2,1 -4,-1 -5,-2 2,-1 5,-1 7,-2 0,2 -1,3 -2,4zm62 -12c25,-3 51,-5 76,-7 0,2 1,5 2,7 -4,9 -8,17 -10,22 6,-7 17,-6 26,-2l0 3c2,0 4,1 6,1 4,2 7,6 9,9 -10,1 -20,1 -29,2 -1,-6 -5,-11 -11,-7 3,2 2,4 0,7 -7,1 -14,1 -22,2 -1,-2 -1,-5 0,-9 7,2 12,1 13,-4 0,-3 -2,-4 -2,-7 -10,6 -20,12 -32,14 0,2 1,5 1,8 -8,1 -17,2 -25,3 -3,-3 -6,-6 -10,-8 0,3 0,6 0,9l-4 1c-2,-7 3,-16 5,-21 8,4 11,3 16,-4 -4,-6 -11,-10 -9,-19zm-21 45l-6 1c2,-2 3,-3 5,-4 0,1 0,2 1,3zm153 -54l1 0c1,1 3,2 4,3 -1,4 -3,5 -6,6l1 -9zm-19 3c0,0 -1,-1 -1,-1l0 0 0 0 1 1zm81 -2c11,0 22,1 33,1 -1,2 -1,5 -1,8 2,-3 4,-5 6,-7 39,2 77,6 115,13 -4,3 -8,5 -8,13 12,-2 6,10 13,11 3,-7 6,-16 4,-23 38,6 75,14 111,24 2,7 -3,17 -8,22 4,4 5,12 5,20 -85,-23 -172,-36 -260,-40 6,-12 17,-5 24,-12 -17,-1 -17,-9 -17,-21 -3,2 -6,2 -10,-1 -10,8 -10,29 -16,25 -8,-12 -2,-28 9,-33zm296 46c93,26 183,63 268,109 -1,1 -3,2 -5,3 8,12 16,12 30,12 28,16 54,33 81,51 -1,1 -1,3 -1,5 2,-1 4,-1 6,-2 3,2 5,4 8,6 0,0 0,1 0,1 0,0 1,0 1,0 14,9 27,20 41,30 -3,4 -4,11 -9,11 -15,-4 -13,-20 -23,-27 -5,3 0,4 1,9 -13,-7 -9,16 -19,4 -9,-6 -15,-3 -19,5l4 2c0,-4 1,-8 4,-7 7,4 6,14 13,19 9,-7 -4,-8 -2,-19 10,-2 -3,-17 8,-9 1,-2 1,-4 2,-6 -8,0 -8,-5 -12,-7 -4,5 -6,9 -7,11 -5,2 -6,-2 -13,0 1,-4 0,-17 -8,-13 7,3 1,13 0,21 -16,-11 -32,-22 -48,-32 1,-2 3,-4 3,-8 -5,-2 -12,-4 -13,1 0,1 1,1 1,2 -11,-7 -22,-13 -33,-19 -1,-1 -1,-2 -2,-2 -87,-49 -180,-86 -275,-113 0,-4 -1,-8 -2,-11 19,3 18,-14 20,-27zm441 224c9,8 18,15 27,23 -3,1 -6,1 -10,-3 1,6 -12,5 -6,9 0,-1 1,-2 2,-1 8,8 17,6 24,3 3,3 6,5 9,8l-38 22 -3 -2c0,-3 -2,-7 -8,-9 0,1 0,2 0,2 -2,-2 -4,-3 -6,-5 1,0 1,0 2,0 -3,-8 -11,-18 -20,-18 0,2 0,3 0,4 -5,-5 -11,-9 -17,-13 4,-7 9,-10 6,-20 13,-3 12,9 18,16 6,-10 14,-2 21,-5 0,-7 -9,-3 -9,-6 1,-3 6,-1 8,-5zm-730 -228c-4,0 -7,0 -10,-1 2,-5 6,-10 12,-12 -4,5 -4,9 -2,13zm-56 -1c-10,0 -21,0 -31,0 -1,-3 -3,-7 -5,-11 9,5 18,6 26,7 6,-8 8,-16 8,-23 6,-2 11,-5 16,-7 0,1 0,2 -1,4 -10,3 -15,19 -13,30zm-284 35c-2,0 -4,1 -6,1 0,-2 0,-5 0,-6l6 5zm-166 53c-9,4 -19,8 -29,13 0,-1 0,-2 0,-3 4,-14 32,1 9,-15l0 0c5,-10 16,7 20,-7 4,-2 3,4 0,12zm-46 20l-1 1 1 -1 0 0zm-127 67c-13,8 -27,17 -40,25 3,-11 2,-22 10,-34 8,7 12,-2 20,8 13,-9 -9,-11 3,-19l0 0c5,7 7,14 7,20zm-74 49c-8,6 -17,12 -25,18 -7,1 -17,2 -23,-7 -3,5 -6,10 -9,14 4,3 7,7 8,11 -5,4 -10,8 -15,12 -6,-5 -5,-25 -17,-18 4,5 9,15 14,21 -17,13 -33,27 -48,41 0,0 0,-1 -1,-1 -9,-11 -14,-2 -22,-5 2,-6 10,-12 5,-17 -18,8 -3,23 4,36 -11,11 -23,22 -34,33 1,-5 6,-11 1,-16 -11,0 -11,16 -6,21 -14,15 -28,30 -41,45 -6,-2 -8,-5 -14,-12 -4,7 -5,14 -2,19 2,-2 6,-1 9,1 -13,14 -25,29 -37,44 -7,-5 -1,-22 -13,-14 9,7 -3,19 3,27 2,-3 4,-6 7,-8 -11,14 -22,28 -32,42 -1,-5 -3,-9 -7,-8 7,4 -19,13 -5,23 1,0 1,0 2,0 -23,33 -45,68 -64,104 -2,1 -4,1 -6,1 2,1 3,3 3,4 -1,2 -2,4 -3,6 -1,1 -2,2 -2,3 -2,4 -4,9 -6,13 -10,3 -19,8 -28,12 4,4 8,7 2,12 4,2 8,3 12,4 -7,14 -13,27 -19,41 -7,3 -14,3 -21,-1 2,-10 -3,-18 -14,-25 1,0 1,-1 1,-2 3,-3 3,-5 3,-7 2,-3 4,-7 5,-10 15,12 12,-7 12,-14 6,2 9,0 11,7 12,-12 -15,-15 -3,-27 12,5 40,14 37,-2 -9,11 -23,-11 -23,-20 -3,4 -4,1 -5,-1 25,-49 55,-96 87,-141 3,7 -9,18 0,25 21,-25 17,-52 40,-46 -8,-6 -4,-19 -3,-29 7,-9 14,-17 21,-26 2,1 4,2 6,3 -12,8 -10,21 -25,30 23,-3 24,-21 43,-34 -8,-5 -9,-8 -11,-14 37,-43 77,-83 121,-121 25,19 5,-29 35,-8 1,-18 0,-10 14,-22 -2,-3 -4,-5 -6,-7 3,-2 6,-4 9,-7 1,2 2,4 2,7 6,-4 29,3 23,-11 -13,13 -12,2 -11,-6 20,-15 40,-30 60,-44 13,13 21,-1 32,5 -10,15 -20,15 -28,2 -5,13 -16,1 -21,17 24,7 18,19 18,27zm-295 227l1 -1c0,0 0,1 1,2 -1,0 -2,-1 -2,-1zm-137 332c-3,6 -5,12 -7,19 -7,1 -14,0 -20,-8 7,-12 18,-13 27,-11zm-10 25c-1,5 -3,10 -5,15l0 -1c-3,3 -3,6 -3,9 -4,-2 -7,-2 -12,0 -3,-6 -6,-13 -15,-18 10,-9 22,-9 35,-5zm-51 195l0 1 0 0 0 0c0,0 0,0 0,-1zm-40 -7c1,-1 3,-1 3,0l0 2c-1,-1 -2,-2 -3,-2zm16 34l1 1c-2,6 -9,5 -14,4 4,-1 9,-3 13,-5zm-12 -62c5,-25 11,-51 17,-76 1,1 1,2 2,3 8,-8 19,1 25,-15 -8,-9 -9,-10 -19,-13 0,-2 0,-4 1,-5 5,-9 1,-16 10,-18 -2,0 -3,0 -5,0 3,-9 6,-19 9,-28 6,3 12,6 18,11 -14,16 2,16 1,22 -2,4 0,6 -1,10 -1,0 -3,0 -4,-1 2,-2 3,-6 2,-14 -20,-1 -19,9 -13,14 -1,1 -2,2 -3,4 16,23 -4,36 0,57 -11,-3 -20,6 -30,6 8,14 7,17 14,10 12,17 -5,30 -24,33zm53 -189c3,-8 6,-16 10,-25 0,0 1,0 1,0l0 0c9,16 14,4 24,-5 3,2 5,3 8,5 -3,2 -1,4 1,6 -12,6 -19,18 -29,28 -7,2 -12,-3 -15,-9zm27 -66c1,-2 2,-5 3,-7 1,0 2,0 3,0 -2,3 -4,5 -6,7zm24 -52l0 -1c0,0 0,1 0,1 0,0 0,0 0,0zm15 -30c0,-1 1,-2 1,-3 1,2 0,3 -1,3zm-101 258c1,-3 2,-5 3,-8 1,2 2,5 3,7 -2,-1 -4,-1 -6,1zm17 593l76 -44c5,2 10,3 17,2 -3,6 -5,12 -8,17 9,-10 10,5 21,2 3,-1 -1,-7 2,-8 3,4 7,6 12,6 1,-7 10,-7 17,-6l-143 83c-18,10 -30,26 -35,44 -19,-4 -42,1 -39,-14 0,-2 1,-4 2,-6 0,-1 1,-2 1,-3 7,5 28,7 28,-6 -8,5 4,-22 -8,-20 2,6 -2,8 -4,11 -2,-1 -5,-2 -7,-3 9,-15 23,-29 39,-39 5,15 12,25 34,15 -7,-7 -2,-21 -5,-31zm161 -93l136 -79c1,1 2,2 3,2 0,-2 1,-3 4,-3 0,-1 -1,-2 -1,-2l139 -80c2,0 4,0 6,-1 1,-1 2,-3 1,-4l15 -8c1,2 2,5 3,7 4,-3 6,-8 7,-13l24 -14c6,2 12,0 18,2 0,11 16,18 13,29l-1 0c-1,0 -2,1 -3,2l-2 1c-4,-15 -15,-16 -14,-32 -13,5 -16,16 -17,27 4,-1 7,0 9,1 0,5 2,9 7,13l-16 9c-3,-2 -8,0 -8,-8 8,-1 10,-5 7,-12 -10,10 -17,-4 -28,-1 -7,6 -12,23 -27,17 -3,2 -3,5 -6,7 1,10 8,9 10,17 -5,3 -6,-3 -10,-2 1,6 8,9 9,13l-5 2c-1,-2 -2,-4 -5,-2 0,2 -1,4 -1,6l-123 71c-1,-1 -3,-1 -5,0l1 2 -42 25c-24,6 -52,-6 -71,-4 3,1 14,5 10,8 -15,7 -26,7 -37,4zm354 -156l-2 1c0,-1 1,-1 1,-2 0,0 1,1 1,1zm-367 212l-8 4c-1,-3 1,-6 5,-7 1,1 2,2 3,3zm-180 194l205 355c-8,-2 -14,-3 -18,5 9,4 12,-3 19,-2l1 1c-4,6 5,5 2,11 -5,4 -6,-3 -14,-3 -1,2 -1,4 -2,7 5,5 14,-2 22,-1l12 22c-5,-2 -6,2 -12,-1 -3,8 13,14 15,7 -1,-1 -1,-2 -1,-4l20 35c4,7 9,13 14,18 -4,0 -8,-1 -14,0 0,-4 6,-11 1,-12 -6,-4 -8,12 -15,1 7,11 1,21 4,30 8,-3 3,-12 15,-10 8,13 25,14 34,5 19,7 41,5 59,-6l40 -23c11,6 18,13 16,31 4,0 7,1 10,3l-45 26c-22,12 -46,17 -70,14 6,-14 16,-19 13,-33 -2,5 -12,-1 -13,-4 4,12 -2,12 -8,21 4,6 1,8 -2,15 -30,-7 -58,-26 -75,-55l-4 -6c9,1 13,7 21,0 -10,-1 1,-8 1,-12 -2,0 -5,-1 -7,-2 -1,6 3,9 -5,9 8,-14 -11,0 -6,-12 -7,-3 -7,5 -11,5l-62 -109c1,-1 2,-2 3,-3 -3,-1 -4,-3 -8,-4l-169 -293c1,-1 2,-2 3,-3 1,-4 -2,-11 1,-15 14,-1 16,-9 20,-16 1,6 -2,11 4,14 2,-2 4,-4 6,-6zm-46 3c-1,-4 -3,-8 -4,-13 3,3 7,6 10,9 -2,2 -4,4 -6,4zm-7 -28l0 -1c0,0 1,1 1,1 0,0 -1,0 -1,0zm0 -31c1,-3 1,-5 2,-8 4,1 7,5 10,9l0 0c-4,-1 -8,0 -12,-1zm461 479l96 -55c-4,17 -6,37 -13,52 -4,2 -11,-1 -12,7 1,1 1,2 1,3l-46 27c0,-7 2,-14 8,-18 -2,-14 -9,-15 -22,-20 -1,9 -8,9 -13,11 1,-4 1,-6 1,-7zm122 -70l85 -49c2,2 4,2 7,1 1,-2 1,-4 0,-5l138 -80c4,0 4,0 9,3 2,-13 15,-5 17,-18l147 -85c1,3 -2,9 3,9 9,-7 20,-4 16,-20l1 0c6,0 7,4 12,6 9,-4 9,-11 8,-18l95 -55c0,5 4,8 10,8 2,-6 0,-9 -5,-10l163 -95c-7,13 -18,18 -25,31 4,4 2,12 8,14 1,-13 14,-5 19,-10 2,-19 13,-26 8,-41l161 -92c3,6 5,10 8,20 6,-4 10,-12 18,-11 -1,5 -2,10 -3,14l13 4 -108 62c-1,-4 -4,-8 -4,-13 -13,-5 -30,-16 -37,-1 12,6 15,-4 25,-2 -7,10 7,7 2,16 -6,4 -6,-4 -17,-5 -1,3 -2,6 -3,9 7,7 19,-3 29,-1l-236 137c-3,0 -5,1 -6,3l-22 13 -2 0c0,0 0,1 0,1l-9 5c1,-2 2,-4 2,-6 -14,-2 -17,11 -27,15 2,1 2,3 3,4l-21 12c-2,-3 -5,-6 -8,-8 -1,2 -3,2 -5,2 -13,-5 -20,11 -16,21 0,0 1,1 2,1l-36 20c5,-7 4,-23 -6,-18 3,6 4,12 4,19l-11 7 0 -1c-7,-3 -15,-4 -24,1 -1,-6 -7,-8 -7,-14 1,-9 6,-10 7,-18 -15,11 -36,13 -39,37 -4,-2 -2,-8 -10,-8 -5,13 11,13 6,26 -12,-13 -12,17 -24,4 -5,9 -26,20 -13,31 8,-7 13,-5 13,-19 8,2 13,-4 17,-10 6,0 12,1 17,4l-50 28c-2,-3 -4,-7 -10,-9 -2,7 -7,10 -8,20l-154 89c-1,-1 -2,-2 -4,-3 0,2 -1,4 -1,6l-4 2c-3,-12 -16,-9 -23,-20 -20,4 -32,21 -46,34 11,-3 16,11 11,20l-85 49c1,-14 5,-26 13,-35 -2,-1 -6,-2 -6,-4 2,-12 12,-13 18,-24zm465 -221c0,-2 0,-3 1,-5 0,1 -1,3 -1,5zm-78 46l-16 9c-5,-2 -8,-7 -6,-14 6,-5 15,13 22,3l0 0c0,0 0,1 0,2zm48 -76l2 -2c0,1 -1,2 -2,3l0 -1zm-409 -562l22 -13c0,5 0,10 -7,19 -4,-2 -6,0 -10,-1 -1,-2 -3,-3 -5,-5zm37 -21l4 -3c2,3 4,6 4,8 -3,-1 -6,-3 -8,-5zm25 -15l8 -4c9,8 14,-1 19,-11l20 -11c5,2 8,-1 10,-6l26 -15c-3,15 -2,32 3,36 -2,4 -6,3 -8,5 10,9 16,0 22,-11 -4,-8 -19,3 -14,-9 8,4 13,-4 19,-14 -1,-8 -11,-6 -16,-11l160 -93c5,6 9,11 11,19 10,2 7,-13 19,-7 -3,9 1,14 10,14l-229 132 -18 -12c-7,13 -14,22 -24,20 17,17 -15,7 -18,20 4,0 7,0 9,1l-17 11c1,-12 4,-31 14,-29 -3,-8 -11,-15 -6,-25zm296 -170l38 -23c-5,12 -19,12 -22,27 5,6 7,1 15,2 0,-14 11,-19 17,-34l44 -26c8,-1 14,-5 19,-11l68 -39c2,7 13,7 13,-3l-6 -1 21 -12c6,1 7,-3 10,-6l3 -2c1,0 2,0 4,0l0 0 0 0c1,1 3,1 4,2 0,0 0,-1 0,-1 5,-1 10,-2 14,-2 -4,-4 -5,-6 -4,-8 6,-4 15,8 17,-6 -3,-2 -5,-2 -6,-1l104 -60c1,2 2,3 5,0 0,-1 0,-2 0,-3l40 -23c0,0 1,1 2,2 0,-2 0,-3 1,-4l73 -42c2,4 5,8 11,10 9,-1 11,-12 13,-24l6 -4c2,7 7,10 12,5 -8,-4 -4,-5 -2,-10l11 -6c3,14 -4,26 18,35 -5,-12 -5,-28 -14,-38l185 -107c0,4 0,7 3,10 0,-3 1,-5 2,-7 3,2 7,3 9,-2 -1,-2 -3,-4 -6,-5 1,0 1,-1 1,-1l20 -11c12,8 20,1 39,-1 1,9 -7,5 -8,11 7,1 9,4 8,10 -2,3 -3,6 -4,8l-322 186c-1,-3 -2,-5 -5,-6 0,3 1,6 1,8l-119 69c-1,-2 -3,-5 -6,-7 -2,5 -5,9 -4,12l-57 33c-1,0 -2,0 -4,0 -2,1 -3,3 -3,5l-131 75c1,-2 2,-3 3,-5 -7,2 -15,4 -17,13l0 0 -25 15c-1,-1 -1,-1 -2,-1 0,1 0,1 0,2l-53 30c-7,0 -14,0 -22,0 1,4 3,7 5,10l-24 14c-5,-16 14,-16 17,-31 -2,-6 -8,-13 -10,-21zm817 -472l2 -1 0 0c0,0 -1,0 -2,1zm51 -30l32 -18c10,1 19,10 25,-5 -3,-4 -8,0 -8,-5l8 -5c1,0 2,0 2,-1l20 -11c3,-1 6,-1 10,-2 -1,-1 -2,-1 -4,-2l80 -46 0 0c0,2 0,3 1,4 7,1 12,-1 14,-6 -3,-1 -4,-2 -5,-3l4 -3c9,7 17,15 25,18 -2,-2 -9,-9 -4,-10 13,1 22,5 29,11l-31 19c-8,-6 -17,-10 -21,1 2,0 2,2 2,4 3,0 6,0 8,1l-70 40c-9,-5 -9,-16 -24,-18 -2,7 -3,15 2,23 -5,0 -7,6 -13,6 -8,0 -9,-5 -16,-6 4,6 7,12 11,18l-11 6 -7 -1c-1,2 -1,4 0,6l-25 14 2 -8c13,-4 15,-12 25,-23 -8,-7 -23,-8 -31,-9 5,8 -5,32 -16,32 -7,-2 0,-11 -6,-13 -1,2 -1,3 -1,5 -2,-4 -4,-8 -7,-13zm25 35l-24 13 0 0c4,-5 10,-9 13,-15 3,-2 7,-1 11,2zm220 -163c3,1 6,2 9,3 -3,0 -6,1 -10,0 1,-1 1,-2 1,-3zm19 6c1,-8 5,-11 7,-16 7,3 9,-10 4,-11 0,-1 0,-1 0,-2 -3,-2 -5,-2 -8,-3l40 -23c43,-25 97,-18 133,14l0 0 0 0c9,8 16,17 22,28l10 16c-1,1 -2,2 -3,3 9,0 -13,16 -2,19 1,-5 5,-5 8,-7 2,5 9,7 6,15 -4,6 -14,3 -15,15 12,-1 18,2 29,8 1,-3 2,-5 3,-8l12 22c-1,1 -2,4 -3,5 -5,-3 -4,-9 -9,-11 -4,-1 -3,7 -6,7 1,3 6,4 7,8 -4,10 -13,6 -11,18 -4,-1 -1,-6 -7,-6 -1,6 3,9 6,12 -2,1 -4,1 -6,1l-55 -96c-4,-8 -10,-15 -17,-20 4,0 7,0 9,-2 -7,0 -3,-7 -10,-7 -1,2 -3,3 -3,6 -22,-16 -52,-18 -77,-4l-42 25c-4,-1 -8,-4 -11,-6 -1,4 -3,6 -8,5 -1,-3 -1,-4 -3,-5zm256 87l4 7c-2,0 -4,0 -6,-1 1,-3 1,-4 2,-6zm8 14l3 5c0,1 -1,0 -3,0 -1,-2 -1,-4 0,-5zm26 44l5 9c-4,1 -7,-4 -6,-9l0 0 1 0zm28 49l4 8c-2,1 -5,1 -8,0 0,-5 3,-6 4,-8zm11 19l3 5c-2,1 -3,2 -5,2 -3,-3 -1,-5 2,-7zm8 14l3 6 -1 3c-5,0 -4,-5 -4,-10l0 0 2 1zm9 15l13 24c-1,4 -1,7 3,9 0,-1 1,-2 1,-2l9 14c-2,2 -4,5 -6,7 3,10 7,20 12,29 2,-5 6,-5 9,-10l64 111c24,43 18,95 -12,130 -5,-1 -10,-1 -12,2 -2,-12 -24,-7 -23,-18 -7,-1 4,9 -5,5 0,-3 1,-5 0,-7 26,-22 33,-61 16,-91l-106 -183 1 -3c-1,-1 -2,-1 -4,-1l-10 -18c14,1 27,-5 39,6 0,8 -9,1 -9,10 6,4 8,12 12,18 1,-6 11,-14 2,-22 3,1 6,1 9,2 1,-6 -2,-8 -3,-12zm29 51l6 11c-4,-3 -8,-6 -8,-11l2 0zm-90 -72l-2 -4c4,0 7,-3 7,2 -1,1 -3,2 -5,2zm-4 -8l-5 -9c0,-1 1,-1 2,-2 0,-3 -4,-8 -8,-8l-49 -84c1,0 3,1 5,1 0,3 2,6 2,9 10,-5 20,13 27,6 4,1 0,8 3,10 14,3 18,7 28,11 0,1 0,2 -1,4 0,7 -8,2 -10,6 6,6 12,12 13,21 4,-1 4,-9 9,-9 2,5 8,8 8,15 -7,0 -10,3 -17,3 -7,0 0,-9 -9,-9 5,9 4,21 12,27 -3,10 -3,-4 -11,-2 -1,4 1,6 1,10zm-432 -108l-8 5c1,-3 1,-5 -2,-7l0 0c5,-3 9,-1 10,2zm579 461c-6,5 -12,10 -19,14l-129 74c0,0 -1,0 -1,-1 0,1 -1,2 -1,2l-28 17c-9,-7 -18,-16 -27,-8 -3,13 -1,17 2,22l-15 9c-1,0 -1,0 -2,-1 1,-4 3,-6 6,-8 -14,-3 -19,8 -26,15 2,1 4,2 5,3l-19 11c3,-7 8,-10 2,-17 -5,4 -23,9 -15,22 2,-9 5,-5 8,-2l-4 3c-1,-1 -1,-2 -1,-2 -2,1 -3,2 -3,4l-142 82c-1,0 -1,0 -1,0l-11 7c-1,-1 -3,-2 -5,-2 0,-3 -2,-5 -4,-7 -2,3 -4,4 -4,8 3,1 5,1 8,2l0 0c1,0 1,0 2,1l-24 14c-4,-4 -2,-11 -11,-12 -1,5 -2,10 -4,15 2,1 4,1 6,2l-23 13c0,0 -1,-1 -2,-1 -3,2 -5,4 -6,6l-119 68 -89 52c-1,-6 -5,-12 -15,-17 2,7 3,15 4,23l-202 117c10,-7 16,-16 10,-24 -5,15 -14,23 -28,24 -11,-10 -20,-4 -39,-4 0,-8 7,-4 9,-10 -3,-1 -5,-2 -7,-3l248 -143c1,2 3,4 6,4 1,-3 2,-6 2,-9l303 -175c1,3 2,6 6,7 2,-4 1,-7 0,-10l10 -6c-1,2 -4,4 -3,9 2,0 4,1 6,1 3,-2 1,-7 0,-11l19 -11c0,0 -1,1 -1,2 4,2 7,-2 8,-7l21 -12 1 0 0 0 12 -7c2,1 3,3 -2,6 10,-6 19,-1 28,-5 -4,-6 -10,-3 -11,-10l38 -22c-1,2 -2,3 -3,5 8,0 4,7 6,11 19,6 26,-8 38,-12 -7,-3 -1,-13 -9,-15 -5,8 -12,12 -22,13 1,-3 -1,-4 -1,-7 4,-2 12,-3 13,-8l122 -70c0,2 1,3 0,5 6,2 8,-1 8,-7l-4 0 63 -37c3,2 6,3 8,6 21,-11 33,-4 54,4zm-708 -386l-4 2 0 -2 4 0zm-25 14l-8 5c0,-10 5,-21 11,-22 5,7 -2,9 -3,17zm-180 902l-14 8c-2,0 -4,-1 -4,-5 5,1 12,0 18,-3zm-77 44l-35 21c5,-11 19,-8 23,-21 -1,-4 -10,-3 -6,-11 4,-1 9,-2 15,1 -4,6 -1,9 3,10z"/>
   <polygon class="fil1" points="680,1496 681,1498 669,1714 688,1748 837,1662 817,1629 715,1688 714,1687 726,1470 706,1437 558,1522 577,1556 "/>
   <path id="1" class="fil1" d="M991 1573l42 -24 -97 -62c21,-20 25,-49 9,-76l-17 -29c-19,-33 -54,-42 -86,-24l-103 60 130 226 39 -23 -51 -87 38 -21 96 60zm-194 -144l61 -35c12,-7 24,-4 30,8l19 33c7,11 4,24 -8,30l-61 36 -41 -72z"/>
   <path id="2" class="fil1" d="M1158 1406c6,12 3,24 -9,31l-51 30c-12,6 -24,3 -31,-8l-99 -173 -39 22 99 171c18,33 53,42 86,23l58 -33c33,-19 42,-54 23,-87l-98 -171 -39 23 100 172z"/>
   <path id="3" class="fil1" d="M1310 1260c11,-7 24,-3 30,8l14 25c7,11 4,24 -8,30l-45 26c-12,7 -24,4 -30,-8l-10 -16 -38 23 8 14c19,32 54,42 86,23l52 -30c32,-19 42,-54 23,-86l-12 -21c-19,-33 -54,-42 -86,-23l-46 26c-11,7 -23,3 -30,-8l-13 -24c-7,-11 -4,-23 8,-30l40 -23c12,-7 24,-4 31,8l9 16 38 -23 -8 -14c-18,-32 -54,-42 -86,-23l-47 27c-32,19 -42,54 -23,87l11 19c19,33 54,42 87,23l45 -26zm-122 -116l39 -22 6 -61 -32 19 -4 33 -31 -13 -33 20 55 24z"/>
   <polygon id="4" class="fil1" points="1467,997 1329,1077 1459,1303 1601,1221 1582,1187 1478,1247 1442,1184 1535,1130 1516,1096 1423,1150 1387,1088 1487,1031 "/>
   <polygon id="5" class="fil1" points="1669,1182 1580,1027 1581,1027 1759,1130 1798,1107 1667,882 1629,904 1718,1058 1717,1059 1538,956 1500,979 1630,1204 "/>
   <path id="6" class="fil1" d="M1949 1020c33,-19 42,-54 23,-87l-67 -116c-18,-32 -53,-42 -86,-23l-58 34c-33,19 -42,54 -23,86l67 116c19,33 54,42 86,23l58 -33zm-22 -32l-52 30c-11,7 -24,3 -30,-8l-70 -120c-6,-12 -3,-24 9,-31l51 -29c12,-7 24,-4 31,8l69 120c7,11 3,24 -8,30z"/>
  </g>
 </g>
</svg>
