<?xml version="1.0" encoding="UTF-8"?>
<!DOCTYPE svg PUBLIC "-//W3C//DTD SVG 1.0//EN" "http://www.w3.org/TR/2001/REC-SVG-20010904/DTD/svg10.dtd">
<!-- Creator: CorelDRAW X6 -->
<svg xmlns="http://www.w3.org/2000/svg" xml:space="preserve" width="92.4069mm" height="90.4998mm" version="1.0" style="shape-rendering:geometricPrecision; text-rendering:geometricPrecision; image-rendering:optimizeQuality; fill-rule:evenodd; clip-rule:evenodd"
viewBox="0 0 3253 3186"
 xmlns:xlink="http://www.w3.org/1999/xlink">
 <defs>
  <style type="text/css">
   <![CDATA[
    .fil0 {fill:#E31E24}
   ]]>
  </style>
 </defs>
 <g id="razítko">
  <metadata id="CorelCorpID_0Corel-Layer"/>
  <path id="final" class="fil0" d="M1058 603c18,-11 37,-21 56,-30 3,1 7,2 11,1 3,-3 3,-6 3,-8 3,-1 5,-3 8,-4 8,4 16,5 24,9 -29,2 -27,27 -38,47 15,-3 18,-17 25,-17 4,4 4,8 4,13 -6,3 -12,5 -17,8 -4,0 -7,0 -12,-4 -4,16 -14,8 -19,20l0 0c-7,4 -14,8 -22,13 -24,14 -48,29 -71,44 -5,-20 -15,-42 21,-58 6,4 12,8 19,12 4,-16 4,-29 8,-46zm815 2097c-4,-12 -8,-23 -29,-18 1,-12 23,-14 25,0 6,-3 7,-13 11,-18 8,8 -3,27 -7,36zm1175 -419c-16,-6 3,-12 0,-25 14,3 4,19 0,25zm-329 -497c-3,0 -7,0 -11,0 1,-24 16,-32 14,-51 9,0 11,-7 18,0 -1,23 -27,21 -21,51zm-54 264l0 0c-2,-7 6,-25 -7,-21 -4,4 -12,21 -3,25 0,-4 5,-4 10,-4zm504 -657c0,8 -6,9 -9,14 -5,-4 2,-18 9,-14zm-155 -709c1,8 -5,6 -6,13 -6,-9 -22,2 -19,-13 3,0 4,2 5,4 3,0 3,-6 5,-10 2,4 8,5 15,6zm-7 30c1,9 -8,4 -10,8 -7,-4 3,-14 10,-8zm-22 -11c-6,-11 -17,-18 -16,-32 4,-1 8,-3 10,-6 10,11 1,22 6,38zm-183 742c-5,-9 -8,1 -16,-1 0,-6 -10,-5 -6,-13 13,5 -3,-16 13,-8 0,-8 -3,-4 -10,-5 1,-3 1,-6 2,-8 5,0 12,12 14,0 11,12 -6,18 3,35zm-159 57c-1,5 -8,1 -8,9 -8,-2 -20,-3 -23,-8 4,-6 15,-2 19,-10 8,0 3,9 12,9zm4 -1101c-2,5 -12,-3 -10,9 -8,-4 -8,-4 -16,-4 5,-4 9,-7 3,-13 6,-6 21,3 23,8zm-117 168c-7,-7 -12,0 -18,-7 1,-4 2,-7 3,-11 6,1 11,-2 19,2 4,6 -4,6 -4,16zm-25 11c-1,11 -18,0 -12,-8 9,0 3,8 12,8zm-67 36c-5,3 -9,7 -10,17 -8,-6 -20,-10 -20,-21 4,-3 14,3 13,-9 8,3 11,9 17,13zm607 131l0 0c-1,4 -2,8 -3,11 7,2 12,2 13,-5 -5,-1 -8,-3 -10,-6zm-77 -135l0 0c-6,10 6,19 9,10 -7,-1 1,-11 -9,-10zm-10 34l0 0c7,-6 1,-12 7,-18 -8,-2 -16,15 -7,18zm-819 -553c10,0 16,3 13,13 -6,-1 -8,4 -15,2 1,-5 1,-10 2,-15zm-1118 573c16,9 -6,13 -4,27 -14,-6 -1,-20 4,-27zm935 220c18,-2 13,13 29,13 -9,20 -22,-6 -39,1 -3,-13 13,-1 10,-14zm0 24c-2,12 -11,15 -25,11 3,-12 12,-15 25,-11zm-428 217c6,2 8,8 5,17 -4,-1 -7,-1 -11,-2 -1,-8 4,-10 6,-15zm-232 124c11,10 25,18 30,32 -10,-1 -21,1 -26,19 -32,-9 -13,-30 -4,-51zm-912 550c-1,-9 4,-14 14,-17 4,3 6,9 8,17 -10,5 -13,-3 -22,0zm65 -23c-4,-8 7,-8 2,-16 13,0 12,-4 22,-10 9,18 -7,22 -24,26zm38 -52c3,-1 6,-2 9,-2 3,5 0,8 1,12 -6,1 -8,-3 -10,-10zm11 16c10,-4 15,-1 18,7 -9,4 -15,1 -18,-7zm22 -32c10,-1 13,-6 20,-9 3,2 4,8 8,7 0,11 -4,20 -10,28 -14,2 -24,-14 -18,-26zm-15 -200c-1,-4 -2,-8 -3,-11 10,-6 15,10 3,11zm747 1592c-19,-3 -3,-22 5,-8 -2,2 -4,4 -5,8zm-320 -100c-6,-4 -4,-18 2,-21 8,2 12,8 8,17 -3,2 -8,0 -10,4zm-68 -24c8,-5 16,-12 23,-19 3,6 -5,13 -3,24 -5,3 -18,0 -20,-5zm-372 -213c-11,-4 -9,-15 -12,-23 2,-3 8,0 12,1 -7,14 12,4 7,20 -3,-1 -5,-1 -7,2zm7 -14c-2,-11 23,-9 18,1 -4,3 -11,1 -18,-1zm-234 -224c-6,-2 -2,-9 -10,-9 3,-9 4,-22 10,-25 7,5 2,16 10,21 0,9 -10,3 -10,13zm886 93c-7,-6 6,-16 13,-12 -1,9 -10,5 -13,12zm28 1c-7,-4 -5,-14 -4,-23 5,2 10,3 15,4 -2,9 -7,13 -11,19zm66 -285c-4,-5 -8,-10 -19,-11 7,-9 11,-22 24,-22 3,5 -4,15 9,15 -3,9 -10,11 -14,18zm177 -119c1,-4 5,-10 1,-12 2,-3 7,-4 13,-3 2,11 3,19 -14,15zm51 -49c10,-14 25,-7 41,-1 -12,12 -25,-3 -41,1zm-439 873l0 0c-6,0 -13,-2 -14,6 4,1 8,2 12,3 0,-3 1,-6 2,-9zm-278 -129c-9,-9 -8,-23 -24,-16 1,-16 24,-19 27,-5 2,1 3,-1 3,-2 0,6 -12,9 -6,23zm436 -556l0 0c0,-6 10,-19 -1,-19 -4,2 -14,15 -8,20 1,-3 5,-2 9,-1zm253 -142c-3,-7 21,-21 26,-15 -4,13 -21,3 -26,15zm-733 -1869c-6,5 -13,2 -19,8 -11,-8 -13,-18 -6,-30 20,-5 10,14 25,22zm-179 113c9,-6 9,5 14,9 -10,17 -23,20 -38,8 8,-12 -2,-14 12,-18 7,14 13,22 12,1zm-148 186c10,17 -1,19 -1,32 -23,6 -12,-28 1,-32zm-79 151c-18,10 -28,6 -55,4 5,-5 5,-9 2,-12 17,0 34,0 53,8zm258 418c13,7 11,17 2,28 -8,-6 -13,-1 -21,-8 14,-2 3,-17 19,-20zm-498 200c5,-3 10,-6 16,-3 -2,4 -2,8 -2,12 1,2 3,3 5,5 -2,3 -2,6 -3,8 1,3 2,7 3,10 -1,1 -1,1 -2,2 0,3 1,6 0,10 3,-2 6,-3 9,-5 1,-5 1,-11 2,-16 -4,-5 -6,-10 -6,-16 2,3 5,4 7,5 0,-3 1,-6 1,-9 -1,1 -2,2 -4,3 -8,-5 -5,-15 4,-18 0,3 0,6 1,9 1,-8 2,-16 3,-24 -2,3 -3,5 -2,8 -18,-5 -18,-10 -33,11 -16,-7 -8,-19 1,-32 -6,1 -12,4 -18,8 0,-1 -1,-2 -1,-3 -1,9 -2,19 -3,28 7,2 15,4 22,7zm-30 73c-4,53 -5,106 -3,159 3,1 6,2 10,2 6,16 -6,22 -2,38 -2,1 -5,1 -6,0 0,6 0,13 1,19 18,-9 34,42 47,60 -16,3 -19,-31 -35,-15 4,-12 -2,-32 -12,-40 1,18 3,35 5,53 10,1 15,9 24,4 -9,11 -13,37 8,38 1,5 -8,4 -7,9 7,2 11,9 19,10 -11,16 12,14 17,26 -2,1 -5,2 -8,3 1,3 1,6 2,8 4,2 9,4 12,2 -1,-7 -2,-15 -3,-22 -8,-4 -13,-10 -11,-20 3,-1 5,-1 7,-1 -11,-76 -16,-151 -16,-227 -2,2 -5,3 -8,1 -1,-6 3,-8 8,-9 1,-38 2,-77 6,-114l-1 -1c-1,6 -6,10 -11,13 -3,-8 3,-7 -3,-12 -6,7 -4,8 -14,8 -2,-14 -13,-10 -18,-17 1,5 6,21 -1,28 -2,-1 -5,-2 -7,-3zm9 310l0 1c0,0 1,0 1,0 0,0 -1,-1 -1,-1zm3 26c1,4 1,8 2,12 1,-2 3,-3 5,-6 -2,-1 -5,-4 -7,-6zm50 61l7 -5c-1,-7 -6,-5 -7,-12 -4,5 -17,6 -19,12 7,5 7,-4 16,-1 1,2 2,4 3,6zm-14 -415l-6 -2 0 1c1,2 3,2 6,1zm1077 -916c6,-2 12,-5 18,-7 -4,6 -10,6 -14,11l0 0c-2,-1 -3,-2 -4,-4zm43 -18l3 -1c5,0 8,-1 9,-3 5,-2 10,-4 15,-6 5,7 13,11 25,13 -6,11 -13,17 -20,20l0 -1c5,-1 10,-5 8,-11 -6,-2 -12,-1 -16,0 -3,-1 -6,0 -9,7 -11,-4 -6,-13 -15,-18zm124 -41c2,0 4,-1 6,-2 0,2 0,4 1,5 -3,0 -5,-1 -7,-3zm135 -28c21,-3 42,-5 62,-7 2,2 4,5 3,10 -4,2 -6,6 -8,9 -4,-5 -8,-14 -17,-8 2,1 2,2 3,3 -1,0 -2,0 -2,1 -6,2 -9,8 -14,13 9,5 12,13 29,12 1,-4 1,-11 6,-11 1,1 3,2 4,3l-6 8c-8,4 -14,9 -21,13 5,1 6,1 6,2 -9,1 -18,2 -28,3 5,-3 6,-8 4,-15 -5,4 -12,6 -19,7 8,-16 -3,-28 -2,-43zm-44 61c-13,3 -27,6 -40,9 -15,-4 -29,-9 -32,2 -5,-16 14,-43 27,-41 11,13 19,19 28,22 -5,2 -10,5 -12,11 8,-2 18,-2 29,-3zm-6 -11c4,-8 9,-13 15,-15 1,10 -6,13 -15,15zm18 -16c8,-1 18,2 31,9 -11,0 -23,-3 -31,-9zm206 -45c54,0 107,5 159,13 2,5 2,11 9,13 2,-4 5,-7 7,-11 33,6 66,13 99,21 -1,3 -1,7 -1,13 17,6 25,-2 39,-1 3,19 4,37 0,54 -101,-31 -207,-48 -314,-49 12,-11 20,-25 20,-38 -2,4 -6,7 -12,5 0,-8 -2,-15 -6,-20zm-126 31c2,-1 3,-1 5,-2 -1,1 -2,2 -3,3 -1,0 -2,-1 -2,-1zm476 28c63,21 123,47 182,78 0,2 1,4 3,6 4,1 7,1 9,1 2,1 4,3 6,4l-2 1c-4,-1 -6,1 -7,4l-44 26c-55,-29 -111,-53 -169,-72 2,-15 4,-30 9,-44 4,-2 9,-2 13,-4zm-1030 223c-153,119 -268,274 -338,445 -5,-1 -10,-3 -15,-8 3,-10 27,-10 7,-21 -6,16 -17,8 -23,25 8,13 16,19 25,20 -16,41 -30,83 -41,126 -2,-3 -4,-3 -8,2 3,3 3,7 -2,12 2,2 3,4 5,5 -13,57 -22,115 -27,174 -5,5 -10,11 -11,22 4,2 7,4 10,5 -1,3 -1,7 -1,11l-8 5c-2,-2 -5,-4 -9,-6 -4,-10 -6,-18 5,-27 -11,4 -13,-10 -24,-5 -2,11 -8,14 -16,14 6,-110 27,-219 64,-322 1,0 1,-1 2,-1 0,-1 -1,-1 -1,-2 5,-14 11,-28 16,-43 3,0 5,0 8,1 -3,-1 -5,-1 -7,-1 11,-30 24,-58 39,-86 26,-2 48,-31 46,-53 -3,23 -14,18 -26,14 2,-3 3,-6 5,-9 19,1 43,-25 31,-31 -8,7 -16,14 -24,18 5,-8 10,-15 14,-23 12,-14 22,-34 40,-41 -1,-3 -4,-7 -6,-10 6,-10 13,-19 19,-28 14,12 0,19 22,35 5,-10 12,-5 18,-8 -20,-13 -30,-25 -33,-36 13,-18 27,-35 42,-52 11,1 22,4 31,-4 -11,-3 -14,-9 -15,-15 17,-20 36,-39 54,-57 7,-1 14,-3 20,-7 -3,-3 -5,-5 -6,-6 2,-2 4,-4 5,-5 6,0 12,1 15,0 -3,-2 -5,-4 -2,-8 1,-2 2,-4 1,-5 8,-7 16,-14 24,-21 19,0 42,-5 47,-25 8,4 13,-3 22,8 6,-8 8,-15 8,-22 -6,-6 -13,-8 -19,-8 25,-18 51,-36 77,-53 -21,31 -36,54 -44,88 -1,-1 -1,-3 -2,-4 -1,1 -2,2 -3,3 -3,-1 -7,0 -10,2 -7,-1 -15,-4 -20,6 3,1 6,3 9,5 -1,2 0,5 1,7 2,-1 4,-2 6,-3 1,1 2,2 3,3zm-34 -41l5 -4c0,3 2,6 5,9 -2,-2 -5,-3 -6,-1 -1,-2 -2,-3 -4,-4zm-409 856c-3,-1 -7,-3 -11,-4 1,-1 2,-2 3,-2 5,-2 7,2 8,6zm752 -1029c1,4 5,6 9,7 1,-1 2,-2 4,-4 -4,-3 -6,-6 -7,-9 -2,3 -3,5 -6,6zm14 8c3,1 5,1 6,0l1 -1c-2,1 -4,1 -7,1zm11 -17c0,-3 -1,-5 -2,-7 -12,3 -7,8 -7,15 3,-3 6,-6 9,-8zm458 -481c-5,-4 -9,-4 -12,-1 -11,-13 12,-13 15,-23 -2,15 4,28 -10,46 -6,-6 3,-14 7,-22zm-1140 1044c3,-6 6,-12 9,-18 3,3 5,5 3,9 -4,5 -8,8 -12,9zm-104 497l-6 4c0,-2 -1,-3 -1,-5 2,0 5,1 7,1zm1279 1123c-12,-2 -13,-9 -20,-14 6,-7 26,4 20,14zm519 -202c-9,0 -10,-5 -14,-7 6,-3 12,-9 21,-7 -1,7 -6,7 -7,14zm-912 -268c1,8 23,4 16,16 -9,6 -24,-2 -16,-16zm1105 93c4,-12 -3,-18 4,-31 14,2 15,37 -4,31zm-240 -553c-18,1 -12,-14 -28,-15 12,-19 22,9 39,3 2,13 -13,-1 -11,12zm2 -23c4,-12 13,-14 26,-9 -3,12 -13,14 -26,9zm169 -83c-13,-5 0,-23 -20,-17 5,-12 15,-15 17,-31 7,12 0,28 3,48zm304 -24c1,-2 1,-4 2,-6 5,0 8,2 10,4 7,-2 14,-6 23,-7 0,-6 0,-12 0,-18 0,0 -1,0 -2,0 -1,2 -2,4 -3,7 -4,-1 -7,-2 -9,-3l-22 13c-3,4 -8,4 -10,8 -1,0 -1,-1 -2,-1l-5 3c-1,16 -2,32 -3,49 12,4 26,8 30,21 -12,2 -23,3 -33,5 -1,10 -2,20 -3,29 11,9 1,26 -3,43 -1,-1 -2,-2 -4,-3 -1,8 -2,16 -4,24 11,1 7,10 5,18 -4,1 -6,-1 -8,-2 -1,6 -3,12 -4,19 3,-2 6,-3 9,-6 -1,5 -1,10 3,11 0,9 -10,9 -17,13 0,2 -1,5 -2,8 13,14 9,49 35,40 2,-9 -2,-13 -11,-10 6,-14 15,-26 31,-30 1,-6 3,-13 4,-19 -8,-3 -16,-6 -21,-6 2,-15 9,-20 13,-32 7,2 11,7 14,11 1,-2 1,-5 2,-8 -3,-6 -1,-12 3,-17 4,-21 7,-41 9,-62 -4,-7 -11,-13 -15,-19 1,-18 25,-21 14,-40 3,0 5,0 7,0 0,-7 1,-14 1,-22 -6,5 -11,9 -11,19 -17,-7 -31,-15 -34,-36 4,1 8,2 11,2zm14 -202c1,-10 5,-15 15,-12 -2,10 -6,16 -15,12zm432 34c-13,-14 -2,-46 16,-47 10,6 -6,13 -11,13 -2,8 7,10 17,12 -1,4 -2,8 -3,12 -11,6 -6,-8 -18,-9 -3,10 12,12 -1,19zm-242 -107c-5,-1 -10,-3 -15,-4 1,-15 22,-10 15,4zm-205 521c-2,7 -4,14 -6,21 -3,-11 -12,-20 0,-27 4,0 4,4 6,6zm-20 68c-7,22 -15,44 -24,66 -1,-2 -2,-3 -3,-6 -3,-13 4,-17 3,-28 -18,22 -49,33 -42,69 -7,-2 -7,-10 -18,-7 -3,21 20,15 18,36 -22,-15 -10,29 -32,15 -4,15 -30,40 -7,50 9,-12 16,-12 11,-32 13,-2 18,-12 21,-22 6,-2 12,-3 17,-3 -9,20 -19,40 -30,60 -3,-2 -7,-3 -11,-3 -11,7 10,12 1,17 0,1 -1,1 -1,1 -9,-8 -14,-20 -29,-21 0,8 -3,13 -4,19 -7,-1 -15,-4 -22,-6 25,-41 47,-85 66,-129 1,0 1,0 1,0 0,-1 0,-2 0,-2 4,-9 8,-18 11,-27l10 0c0,-6 0,-12 0,-18 -1,0 -2,0 -3,0 1,-3 3,-6 4,-9 5,2 11,5 17,8 8,-16 5,-40 3,-54 -1,1 -3,3 -6,4 5,-16 10,-31 14,-46 2,0 4,2 6,6 -6,5 -4,18 -11,21 24,18 -9,50 27,54 6,-6 -6,-14 10,-14 1,0 2,0 3,1zm-148 297c-10,14 -20,28 -30,41l-8 -2c-1,5 -4,8 -6,11l6 1c-42,54 -89,104 -141,151 2,-8 7,-14 13,-22 -6,-10 -26,-10 -32,-11 10,-2 9,-17 25,-14 4,-12 1,-10 -4,-18 7,-7 5,0 14,-1 -1,-6 -3,-12 -8,-15 10,-10 19,-19 29,-29 4,12 11,22 28,27 5,-4 7,-12 9,-22 -12,-6 -21,-17 -32,-11 22,-23 42,-48 61,-73 10,3 19,7 22,-2 -2,-3 -7,-8 -12,-10 9,-12 18,-25 27,-38 0,1 1,1 1,1 -3,24 15,35 27,50 2,-7 6,-11 11,-14zm-187 209c-51,44 -106,84 -166,119 -6,-20 -9,-40 -5,-59 5,-3 11,-6 16,-10 -1,2 -1,4 -2,6 32,10 41,-18 46,-36 15,-11 30,-22 45,-34 1,5 0,10 -2,15 6,4 17,4 25,7 3,-7 1,-18 7,-22 16,-2 10,19 22,21 0,-13 5,-8 14,-7zm-198 138c-19,11 -39,21 -59,30 1,-1 2,-3 3,-5 -4,-12 -10,-16 -18,-18 -9,-7 -8,-18 -3,-27 24,-11 47,-24 69,-37 6,-3 12,-6 17,-10 1,15 2,30 -1,44 -5,4 -16,3 -14,15 2,2 4,5 6,8zm203 -215c2,-2 3,-3 5,-4 -1,2 -1,4 -4,5 0,0 0,-1 -1,-1zm-337 278c-44,17 -88,32 -132,43 -1,-5 -2,-11 -6,-16 -17,27 -35,18 -61,29 -2,-5 4,-18 -4,-18 -11,-2 -7,22 -21,8 5,5 8,10 9,15 -5,1 -10,2 -15,3 1,-1 2,-2 3,-4 -16,2 -3,-11 -4,-18 -4,0 -8,1 -11,1 0,9 7,11 -4,14 5,-23 -16,4 -14,-14 -12,-3 -8,9 -15,11 0,8 7,11 8,15 -74,10 -148,13 -221,8 11,-2 20,-10 26,-19l0 0c8,-6 14,-15 28,-9 2,-7 4,-14 1,-18 -10,3 -9,-1 -11,-5 15,0 29,0 44,0 -2,4 -4,8 -5,12 7,3 6,13 15,14 -4,-15 14,-10 18,-18 -1,-3 -1,-6 -1,-9 116,-4 233,-28 346,-72 5,4 8,9 4,21 13,3 24,4 33,8 -2,6 -5,12 -10,18zm-500 76c-90,-6 -180,-24 -266,-51 18,-14 34,-16 45,-36 4,7 9,13 14,19 -5,-15 8,-9 13,-18 79,21 159,33 241,35 -1,7 1,11 2,17 -3,0 -8,3 -11,6 -7,-7 -20,-8 -33,-9 1,16 -9,20 -7,36 1,1 1,1 2,1zm494 -131c5,-2 9,-3 13,-5 2,6 3,12 4,19 0,0 -1,0 -2,0 1,-8 -6,-12 -15,-14zm-766 78c-2,-1 -4,-2 -6,-2 2,-1 4,-1 5,-2 0,2 0,3 1,4zm-21 -7c-64,-23 -127,-51 -187,-85l54 -31c52,27 105,50 160,69 -7,2 -14,5 -21,9 1,-5 3,-9 6,-11 -8,-5 -10,3 -16,2 5,16 -3,26 -11,41 6,2 13,2 15,6zm806 -79c1,0 3,-1 4,-2 -1,1 -3,2 -4,2zm1133 -1307c13,66 22,133 26,200 -7,1 -13,4 -18,11 7,-2 13,-2 19,0 1,28 2,57 3,85 -9,1 -17,15 -13,16 3,-3 9,-3 13,-5 0,10 -1,20 -1,31 -7,-1 -13,-1 -13,10 4,1 9,2 13,1 -2,67 -8,133 -18,198 -25,-22 -1,-45 -16,-74 -12,-4 6,14 -7,11 -2,-10 -6,-18 0,-32 9,3 10,10 19,5 8,-15 -17,-12 -14,-24 5,-16 17,-21 25,-33 -19,-4 -21,-17 -19,-33 -9,-2 -16,-1 -24,-1 1,-20 1,-41 1,-61 8,4 22,-6 15,-15 -6,-2 -11,0 -15,3 0,-9 0,-19 0,-28 8,-8 25,-1 30,-15 -5,-6 -23,2 -30,10 -3,-77 -11,-155 -25,-232l49 -28zm9 561c-4,23 -8,45 -12,68 -10,-4 -20,-8 -31,-12 0,-2 0,-4 0,-6 7,-3 14,-7 20,-13 -10,-2 -17,1 -23,5 -1,-1 -3,-2 -5,-2 -2,5 -8,6 -12,9 3,-14 6,-29 8,-43 1,0 3,0 4,0 8,-2 10,-16 17,-19 10,4 23,7 34,13zm-51 62c1,5 11,5 10,10 -11,11 -19,20 -31,20 2,-8 4,-16 5,-24 2,-4 5,-6 8,-9 3,1 5,2 8,3zm35 25c-1,2 -1,4 -2,6 -10,-5 -19,9 -20,0 1,-4 2,-7 3,-11l19 5zm-5 20c-1,3 -1,6 -2,9 -6,0 -11,-2 -11,-10 3,5 9,5 13,1zm-5 23c-5,19 -10,38 -16,57 -6,-2 -12,-3 -17,-3 -5,-2 -9,-2 -11,-3 -5,-8 1,-11 -4,-22 6,0 27,-6 17,-18 -2,12 -17,9 -30,9 5,-16 9,-33 13,-50 8,0 16,-1 20,-7 -5,16 13,39 28,37zm-42 72c-1,7 -4,15 5,16 1,-3 3,-6 5,-8l2 0c0,-1 0,-2 0,-2 4,-4 8,-7 12,-11 -9,28 -18,56 -28,84 -7,-2 -17,-2 -19,-9 1,-27 27,-29 36,-48 -8,-7 -7,2 -15,4 6,-22 -29,-7 -15,-29 5,-14 2,-22 -8,-26l-1 4c3,0 5,1 6,4 -2,7 -7,11 -12,14l-1 5c2,1 5,1 8,2 2,-1 5,-3 8,-3 5,9 12,5 17,3zm-12 102c-7,19 -15,38 -22,56 -6,-4 -9,-10 -2,-19 -11,4 -14,-18 -18,-7 2,0 4,0 3,3 -12,18 -1,34 7,45 -23,53 -48,104 -76,153 -4,0 -6,1 -8,5 2,1 3,1 4,2 -5,8 -9,16 -14,24 -1,0 -3,-1 -4,-2 -11,-7 -5,-24 -25,-26 1,22 -5,32 -17,51 11,3 19,7 24,13 -10,16 -20,31 -31,46 -4,-1 -8,-1 -12,-1 2,-7 -2,-16 1,-23 3,-9 -12,-9 -15,-16 5,-8 15,-6 20,-14 1,-7 -12,-6 -13,-12 -1,0 -1,0 -1,0 23,-35 44,-71 63,-107 25,5 46,4 50,-34 -9,2 -18,-3 -27,-9 1,-3 3,-6 4,-9 1,1 3,2 7,2 2,-13 12,-19 14,-33 -2,0 -4,0 -6,0 7,-17 15,-33 22,-50 0,2 -1,5 -3,10 15,-6 8,9 15,11 6,-4 12,-26 3,-33 -4,7 -8,7 -12,4 12,-29 23,-58 33,-88 7,2 12,3 21,-3 11,20 -10,24 -17,36 18,5 7,21 15,33 11,-3 2,-17 7,-19 5,1 4,10 10,11zm-25 -90l2 -6c1,0 3,0 4,0 -2,3 -4,5 -6,6zm-190 484c-9,13 -19,26 -29,39 -2,-1 -4,-1 -7,-2 -2,5 0,7 1,10 -9,10 -17,21 -26,31 -4,-7 -16,-11 -27,-12 -11,6 14,7 11,18 -7,0 -5,-10 -15,-7 -3,1 -2,4 -4,6 -3,-6 -20,-4 -20,-11 27,7 45,-31 48,-63 4,-1 7,-2 12,-1 0,-2 -1,-5 -1,-8 10,7 19,17 26,22 6,-14 18,-19 31,-22zm-82 103c-11,12 -23,24 -34,37 0,-2 0,-3 0,-5 -5,0 -8,2 -11,4 0,-4 -1,-8 -5,-8 0,-1 1,-2 1,-3 7,0 6,4 6,9 8,-6 18,-11 25,-21 -1,-12 -16,-3 -22,-6 12,-2 17,-16 26,-24 10,6 15,8 14,17zm-41 44c-6,6 -11,12 -17,17 1,-4 1,-9 -4,-16 1,-7 5,-9 9,-12 -2,7 -5,16 5,17 1,-3 4,-4 7,-6zm105 -212l2 -3c11,5 14,12 30,7 0,7 -5,6 -9,6 0,0 0,0 0,1l-1 -1c-4,5 -3,14 -11,15 -2,-10 -1,-23 -11,-25zm29 20c1,0 1,0 1,0 0,0 0,1 -1,1 0,-1 0,-1 0,-1zm-257 308c-8,6 -15,13 -23,19 -2,-2 -5,-5 -8,-6 9,-6 18,-11 23,-18 3,1 6,3 8,5zm-129 98c-34,24 -70,46 -106,68 -20,11 -41,22 -61,33 1,-2 1,-5 1,-10 -14,5 -9,-10 -18,-10 -2,9 -4,20 0,29 -42,21 -84,40 -127,57 -1,-1 -2,-3 -2,-5 7,-4 14,-10 21,-15 -4,-5 -16,-3 -11,-18 -7,1 -14,1 -22,1 -3,-14 14,-8 15,-19 -1,0 -2,0 -3,0 61,-26 121,-55 180,-89 22,-13 44,-26 65,-40l19 6c3,-8 -1,-13 -6,-14 6,-4 12,-8 18,-12 -1,1 -3,3 -5,4 5,6 21,5 26,0 -2,-3 -3,-6 -3,-10 2,2 3,3 5,5 5,-10 14,-18 17,-28 24,-17 47,-34 69,-52l4 1c0,-2 0,-3 -1,-4 8,-7 15,-13 23,-19 -9,9 -16,19 -9,30 -5,2 -12,2 -20,-2 9,11 9,39 -8,30 -2,15 24,3 22,22 -12,0 -12,-7 -21,-10 0,7 11,7 4,17 -8,-2 -12,2 -18,3 -2,-1 -4,-2 -7,-2 -5,5 -4,17 0,22 0,1 -1,1 -2,2 -7,5 -14,-5 -21,-10 -12,12 -25,23 -18,39l0 0zm-351 183c-318,117 -658,127 -971,42 8,-4 15,-7 20,-15 -3,-4 -4,-10 -6,-14 -16,-7 -21,5 -39,-4 -4,11 -8,14 -15,21 -12,-3 -24,-7 -36,-11 0,-1 -1,-1 -1,-2 1,-9 9,-7 10,-16 6,0 5,4 5,7 7,-5 14,-9 20,-16 -1,-9 -13,-3 -18,-5 7,-1 11,-8 16,-14 323,102 679,98 1010,-28 8,15 14,33 3,53 1,0 1,1 2,2zm-1114 -5c-9,-3 -18,-7 -28,-10 4,-1 8,-2 12,-2 -2,-13 2,-31 -4,-42 8,-10 12,16 20,5 3,7 8,11 4,20 9,6 7,2 18,5 4,7 -3,17 -6,23 -8,-5 -10,-4 -16,1zm-37 -14c-9,-4 -18,-7 -27,-11 7,0 11,-6 19,-4 7,2 10,7 8,15zm-31 -13c-76,-33 -149,-71 -219,-115 0,-1 1,-2 1,-4 -3,0 -5,0 -7,0 -30,-19 -60,-39 -89,-61 1,-22 1,-44 6,-62 93,71 193,131 298,179 -2,1 -4,2 -3,8 3,0 6,1 8,2 1,-2 2,-4 2,-7 8,4 17,8 25,12 0,11 -1,21 -11,30 -10,0 0,-13 -12,-12 -7,8 -17,10 -26,15 8,2 19,16 30,4l-3 11zm79 -25c8,3 15,5 23,8 -1,2 -2,5 0,8 3,-1 5,-3 7,-5 3,1 5,2 8,3 -5,7 -9,17 -16,20 -1,-14 -16,-20 -23,-31 0,-1 1,-2 1,-3zm-442 -192c-19,-15 -37,-31 -55,-46l48 -28c11,8 22,17 32,26 0,1 -1,1 -1,2 3,2 5,3 7,2 3,3 6,6 10,8 -1,3 -1,6 -1,10 -18,-4 -21,13 -35,6 1,7 0,16 -5,20zm2036 -112c4,-4 8,-7 11,-11 2,1 4,2 5,4 -3,2 -6,5 -7,10 -3,-2 -6,-3 -9,-3zm-1800 -2535c3,-2 7,-4 10,-6 4,4 8,6 11,17 5,-18 19,3 27,-2 8,-9 10,-18 3,-24 -14,2 -3,18 -21,12 -4,-3 -5,-7 -5,-11 11,-5 21,-10 31,-15 -1,1 -3,3 -7,6 19,0 35,-10 52,-19 -11,-8 -17,5 -26,4 15,-8 31,-15 46,-22 8,23 29,-4 45,9 -14,15 -31,29 -42,5 -17,20 -18,27 -29,33 13,-12 1,13 -4,17 2,2 5,4 7,5 -22,11 -44,22 -65,33 -2,-12 -12,-15 -23,-5 -3,-13 -5,-25 -10,-37zm128 -63c3,-1 6,-2 9,-3 -3,3 -6,3 -9,3zm38 -15c11,-5 23,-9 34,-13 -10,6 -28,14 -22,21 -11,-2 -13,-5 -12,-8zm62 -24c36,-12 72,-24 108,-34 5,3 10,1 12,-3 10,-3 21,-5 31,-8 -5,7 -9,16 -12,30 -14,-10 -24,1 -34,11 17,14 17,11 9,24 -41,11 -82,25 -123,40 2,-7 6,-13 13,-19 -8,-13 -29,-4 -23,-15 9,-13 24,5 33,-11 -4,-5 -10,-10 -14,-15zm194 -55l3 0c0,0 1,0 2,1l0 -2c15,-3 29,-6 44,-8 -5,2 -10,2 -13,10 1,1 3,3 5,4 -4,4 -9,9 -12,15 1,7 8,5 14,4 0,1 1,2 2,3 -7,5 -10,14 -15,21 -18,4 -36,8 -54,12 3,-8 7,-17 4,-23 -4,3 -26,12 -20,0 17,5 39,-40 50,-7 9,-12 -8,-19 -10,-30zm45 26c1,-1 1,-2 2,-3 2,0 3,0 5,0 -3,1 -5,2 -7,3zm21 -34c-3,0 -5,-1 -7,-3 4,-1 7,-1 10,-2 -1,2 -2,4 -3,5zm78 -16c32,-4 65,-7 97,-8 0,3 1,6 3,9 -5,11 -11,20 -13,27 7,-8 21,-7 33,-2l0 3c3,1 5,1 8,1 5,4 9,8 10,13 -12,0 -24,1 -36,2 -2,-8 -7,-14 -14,-10 3,3 2,7 0,10 -9,1 -18,2 -28,2 -1,-3 -1,-7 1,-11 8,2 14,1 16,-6 0,-3 -3,-4 -3,-8 -13,7 -25,15 -41,17 1,3 2,7 2,11 -11,1 -21,2 -32,3 -3,-3 -7,-7 -12,-9 -1,4 -1,7 -1,11l-5 1c-2,-9 4,-20 7,-27 10,6 13,4 20,-5 -5,-7 -14,-12 -12,-24zm-26 57l-7 1c1,-2 3,-3 6,-5 0,2 0,3 1,4zm194 -68l1 0c2,1 4,3 6,4 -2,5 -5,7 -8,7l1 -11zm-25 3c0,0 0,0 0,0l0 0 0 -1 0 1zm104 -2c13,0 27,1 41,2 -1,3 -1,6 0,9 1,-3 4,-6 7,-9 49,4 97,9 146,17 -5,4 -11,7 -11,17 16,-3 8,12 17,14 3,-9 8,-20 5,-29 48,7 94,17 141,30 2,9 -4,21 -10,28 5,6 6,15 6,25 -108,-28 -218,-45 -330,-50 8,-15 21,-6 30,-15 -20,-2 -20,-12 -21,-27 -4,3 -8,2 -12,-2 -14,10 -13,37 -21,32 -10,-15 -2,-35 12,-42zm375 58c118,33 232,80 339,139 -1,1 -2,2 -6,4 11,15 21,14 39,15 35,20 69,41 102,64 -1,2 -1,4 -1,7 3,-1 5,-2 8,-2 3,2 6,5 9,7 1,0 1,1 1,1 0,0 0,0 1,0 17,12 35,25 52,38 -4,5 -5,14 -11,14 -20,-5 -17,-25 -29,-34 -7,4 0,5 0,11 -15,-8 -10,20 -24,6 -11,-8 -18,-5 -23,5l4 3c1,-4 1,-9 5,-9 10,6 9,18 17,24 12,-8 -5,-10 -3,-23 14,-3 -4,-22 11,-12 1,-3 2,-5 2,-8 -10,0 -10,-5 -15,-9 -5,7 -7,12 -9,15 -6,2 -7,-3 -16,-1 1,-5 0,-22 -11,-16 10,4 2,17 1,27 -20,-14 -41,-28 -62,-41 2,-2 5,-5 5,-11 -7,-1 -16,-5 -18,2 1,1 2,2 2,3 -13,-9 -27,-17 -41,-25 -1,-1 -2,-1 -4,-2 -110,-62 -227,-110 -348,-143 0,-5 -1,-10 -3,-15 25,5 23,-17 26,-34zm559 285c12,9 23,19 34,28 -3,2 -7,2 -12,-4 1,9 -15,8 -8,13 0,-2 1,-3 3,-2 9,10 21,8 31,4 3,4 7,7 11,10l-49 28 -3 -2c0,-5 -3,-9 -11,-11 0,0 0,1 0,2 -2,-2 -5,-5 -7,-7 1,0 2,0 3,1 -4,-11 -14,-24 -26,-23 0,2 0,3 0,4 -7,-5 -14,-11 -21,-16 5,-9 11,-13 7,-25 17,-4 16,12 23,20 7,-13 17,-2 27,-6 0,-9 -12,-4 -12,-8 2,-4 8,-1 10,-6zm-926 -290c-4,0 -8,0 -13,0 3,-7 8,-13 15,-15 -4,6 -4,11 -2,15zm-70 -1c-14,0 -27,0 -40,1 -1,-5 -4,-9 -6,-14 11,5 22,7 33,9 7,-11 10,-21 10,-30 7,-3 14,-6 20,-9 0,1 0,3 -1,5 -13,3 -19,25 -16,38zm-360 44c-3,1 -6,1 -8,2 -1,-3 -1,-6 -1,-8l9 6zm-211 68c-12,5 -25,10 -37,16 0,-1 -1,-2 -1,-3 6,-19 41,1 12,-19l0 0c7,-13 20,8 26,-9 5,-3 4,5 0,15zm-58 25l-2 1 1 -1 1 0zm-161 85c-18,11 -35,21 -51,32 3,-14 2,-27 12,-44 10,9 16,-2 26,11 16,-11 -12,-13 3,-25l0 0c7,10 10,19 10,26zm-95 62c-10,7 -21,15 -31,23 -9,1 -22,2 -29,-9 -4,6 -8,12 -12,19 5,3 8,8 10,14 -6,4 -12,9 -18,14 -9,-6 -7,-32 -23,-22 6,6 12,18 18,26 -21,17 -41,35 -61,52 0,0 0,-1 0,-1 -12,-14 -19,-2 -29,-6 3,-8 13,-16 7,-22 -23,10 -4,29 5,45 -15,14 -29,28 -43,42 1,-7 7,-14 1,-19 -14,-1 -14,19 -8,26 -18,19 -35,37 -52,56 -7,-2 -9,-5 -17,-15 -5,9 -7,18 -3,25 3,-3 7,-2 11,0 -16,19 -31,38 -46,57 -10,-6 -1,-28 -17,-19 12,10 -4,25 4,35 2,-4 5,-8 8,-10 -13,17 -27,35 -39,53 -2,-6 -5,-12 -10,-10 8,5 -24,17 -6,29 1,0 2,0 2,0 -29,43 -56,87 -81,132 -2,1 -5,2 -8,1 3,2 4,4 5,5 -2,3 -3,6 -4,8 -2,1 -3,3 -3,4 -2,6 -5,11 -8,16 -12,4 -23,11 -35,16 5,4 10,9 3,15 5,2 9,4 14,5 -8,17 -16,35 -24,52 -8,4 -17,4 -26,-1 2,-12 -4,-23 -17,-31 0,-2 1,-3 1,-4 3,-3 3,-5 4,-8 2,-4 4,-9 6,-13 19,15 15,-8 14,-18 8,3 12,0 14,9 15,-15 -18,-19 -3,-35 15,7 51,18 47,-1 -12,14 -29,-14 -29,-26 -4,5 -5,1 -7,-1 33,-62 70,-122 111,-179 4,9 -12,23 0,31 26,-31 22,-66 51,-58 -11,-7 -5,-24 -4,-36 9,-11 18,-22 27,-33 2,1 4,2 7,3 -15,10 -13,27 -32,38 29,-4 31,-27 54,-43 -9,-6 -11,-10 -13,-17 47,-55 98,-106 153,-154 32,25 6,-37 45,-10 1,-22 0,-13 18,-28 -3,-4 -5,-7 -8,-9 4,-3 8,-5 11,-8 2,2 3,5 3,8 7,-5 37,4 28,-14 -16,17 -14,3 -13,-8 25,-19 50,-37 77,-55 16,16 25,-1 40,6 -12,19 -26,19 -35,3 -8,16 -21,1 -28,22 31,8 23,24 23,33zm-374 288l1 -2c1,1 1,3 1,4 0,-1 -1,-2 -2,-2zm-174 421c-3,8 -6,16 -9,24 -8,2 -17,0 -25,-10 9,-15 23,-16 34,-14zm-12 32c-2,6 -4,12 -6,19l-1 -1c-3,4 -4,7 -4,11 -4,-2 -8,-2 -15,0 -4,-8 -7,-16 -19,-23 13,-11 29,-11 45,-6zm-65 248l0 1 -1 0 0 0c1,-1 1,-1 1,-1zm-51 -10c2,-1 4,-1 5,1l0 2c-2,-1 -3,-2 -5,-3zm21 44l1 1c-3,7 -11,6 -18,6 5,-2 11,-4 17,-7zm-16 -79c7,-32 14,-64 23,-96 0,1 0,2 1,3 10,-9 25,2 32,-18 -10,-12 -11,-13 -24,-17 0,-3 1,-5 1,-7 7,-11 2,-20 14,-22 -3,0 -5,0 -7,-1 4,-11 7,-23 11,-34 8,3 16,6 23,14 -18,19 3,20 2,27 -3,5 0,8 -2,12 -1,1 -3,0 -5,0 2,-3 3,-9 2,-18 -26,-1 -24,11 -17,18 -1,1 -2,3 -3,5 20,28 -5,45 0,72 -14,-4 -25,8 -38,8 10,17 9,21 18,12 15,22 -7,38 -31,42zm68 -239c4,-11 8,-21 12,-32 1,0 1,0 2,0l0 0c11,20 17,4 31,-7 3,2 6,4 9,6 -4,4 -1,6 1,8 -15,8 -24,23 -36,35 -9,3 -16,-3 -19,-10zm34 -85c1,-2 2,-5 3,-8 1,0 3,-1 4,-1 -2,4 -5,7 -7,9zm30 -65l1 -2c0,1 0,1 0,2 0,0 -1,0 -1,0zm19 -38c1,-2 1,-3 2,-4 0,2 0,3 -2,4zm-127 327c1,-4 2,-7 2,-11 2,4 3,7 4,9 -2,-1 -5,0 -6,2zm21 751l97 -55c6,2 12,4 20,3 -3,7 -6,15 -9,22 11,-13 13,6 26,2 4,-2 -1,-9 3,-11 3,6 8,8 15,8 2,-9 13,-8 22,-8l-182 106c-22,12 -38,33 -44,56 -24,-5 -54,1 -50,-19 1,-2 2,-5 3,-7 0,-1 1,-2 1,-4 8,7 36,9 36,-7 -11,6 4,-29 -11,-25 3,7 -1,10 -5,14 -2,-2 -6,-3 -9,-4 12,-20 29,-37 51,-49 6,18 15,31 42,19 -9,-10 -3,-28 -6,-41zm204 -117l172 -100c2,1 3,2 5,3 0,-3 1,-5 5,-5 -1,-1 -2,-1 -2,-2l176 -102c3,0 6,0 9,0 1,-3 1,-4 1,-5l18 -11c1,3 2,6 4,9 6,-4 8,-10 9,-16l30 -18c9,2 16,0 24,3 0,13 20,22 15,36l0 0c-2,0 -3,1 -4,3l-2 1c-6,-19 -19,-21 -19,-41 -16,7 -19,20 -21,35 5,-1 8,0 12,1 -1,6 2,11 8,16l-20 11c-4,-1 -10,1 -10,-9 9,-2 12,-7 8,-15 -12,12 -21,-6 -35,-3 -8,9 -16,30 -34,23 -4,2 -4,6 -7,8 1,13 9,12 12,22 -7,4 -7,-4 -13,-3 1,8 10,12 11,17l-5 3c-2,-3 -3,-6 -8,-3 1,3 -1,5 0,8l-156 89c-2,0 -4,0 -6,1l0 3 -53 31c-30,8 -66,-8 -90,-5 4,1 18,6 12,9 -18,9 -33,9 -46,6zm449 -198l-3 1c1,0 1,-1 1,-2 1,0 2,1 2,1zm-465 268l-11 6c-1,-4 1,-7 7,-9 1,2 3,3 4,3zm-229 247l260 451c-9,-4 -18,-5 -23,5 12,6 16,-3 24,-2l1 1c-5,8 7,7 3,15 -7,4 -7,-5 -17,-5 -1,3 -2,6 -3,9 6,6 18,-3 28,-1l15 27c-6,-1 -8,4 -15,0 -5,10 16,17 19,8 -1,-1 -2,-2 -2,-4l26 44c5,9 11,16 18,23 -5,-1 -11,-1 -18,0 0,-5 8,-15 1,-16 -8,-4 -10,16 -19,2 9,13 1,26 6,38 10,-4 3,-15 19,-13 9,16 31,18 43,7 24,8 51,6 75,-7l51 -30c13,8 22,16 19,39 5,0 9,2 13,3l-57 34c-28,16 -59,21 -89,18 7,-18 20,-25 17,-42 -3,6 -16,-2 -17,-5 5,15 -2,15 -10,26 5,8 1,11 -2,19 -39,-8 -75,-32 -96,-69l-4 -8c10,1 16,9 26,0 -12,-2 1,-10 1,-15 -3,-1 -6,-1 -8,-2 -2,7 3,10 -6,11 9,-18 -15,-1 -9,-15 -8,-5 -8,5 -13,6l-80 -138c2,-1 3,-3 4,-4 -3,-2 -4,-5 -9,-6l-214 -370c1,-2 2,-3 4,-5 1,-5 -4,-14 0,-19 18,-1 21,-11 26,-20 1,7 -2,14 5,18 3,-2 5,-5 7,-8zm-58 4c-2,-5 -4,-11 -5,-16 4,3 8,7 12,10 -2,4 -4,5 -7,6zm-9 -36l0 -1c0,1 1,1 1,1 0,0 -1,0 -1,0zm0 -39c1,-3 1,-6 2,-10 5,2 9,7 13,11l0 0c-5,-1 -10,0 -15,-1zm584 608l123 -71c-6,23 -8,48 -17,67 -6,2 -14,-1 -15,8 0,2 1,3 1,4l-58 34c0,-9 2,-17 9,-22 -2,-18 -10,-19 -27,-26 -2,11 -10,12 -17,14 2,-5 2,-7 1,-8zm156 -90l107 -61c2,2 6,2 9,0 1,-2 1,-4 0,-5l175 -102c5,0 5,-1 11,4 3,-16 20,-7 22,-23l187 -108c1,4 -3,11 4,12 11,-10 24,-5 19,-25l2 -1c7,1 8,6 15,7 11,-4 11,-14 11,-22l119 -69c0,6 5,9 14,10 3,-8 -1,-12 -7,-14l207 -119c-9,15 -23,22 -32,38 5,5 2,15 11,19 0,-17 17,-7 23,-14 2,-24 17,-33 11,-51l204 -118c4,8 6,14 10,26 8,-4 12,-15 23,-14 -1,6 -3,12 -5,19l18 4 -137 79c-2,-6 -6,-10 -6,-17 -17,-6 -38,-20 -47,0 16,7 20,-6 33,-4 -9,13 8,10 2,21 -8,5 -9,-6 -22,-6 -1,4 -2,7 -3,11 8,9 24,-4 36,-1l-299 173c-4,0 -6,2 -8,5l-28 16 -2 -1c0,1 0,1 -1,2l-11 7c1,-3 2,-5 2,-8 -16,-3 -21,14 -33,19 2,2 2,3 3,5l-26 15c-3,-4 -6,-7 -11,-10 -1,2 -3,2 -5,3 -17,-7 -26,14 -21,26 1,1 1,1 2,1l-45 26c6,-10 5,-29 -8,-23 3,7 5,15 6,24l-14 8 0 0c-10,-4 -20,-5 -32,1 0,-7 -7,-11 -8,-18 1,-11 8,-13 10,-22 -20,14 -47,15 -50,46 -5,-3 -3,-10 -13,-10 -7,16 13,17 7,33 -15,-17 -15,22 -30,5 -6,11 -33,26 -16,39 10,-8 16,-6 16,-24 11,2 16,-5 22,-13 8,0 15,2 21,6l-63 36c-3,-5 -6,-10 -13,-12 -2,9 -8,13 -10,25l-195 113c-1,-2 -3,-3 -5,-3 -1,2 -1,5 -2,7l-4 2c-5,-15 -21,-11 -30,-25 -26,4 -41,26 -59,44 15,-5 21,13 14,24l-107 62c1,-17 6,-32 17,-44 -4,-2 -9,-2 -8,-5 2,-16 15,-17 23,-31zm589 -280c0,-2 0,-4 1,-6 0,2 0,4 -1,6zm-98 58l-21 12c-6,-3 -10,-9 -7,-18 7,-6 19,18 27,4l0 0c0,1 0,2 1,2zm60 -96l3 -2c-1,2 -1,3 -2,3l-1 -1zm-518 -712l28 -17c-1,6 -1,13 -10,25 -4,-3 -7,0 -12,-2 -2,-2 -4,-4 -6,-6zm47 -27l5 -3c2,3 4,6 4,10 -4,-2 -7,-5 -9,-7zm31 -19l10 -5c11,10 18,-2 24,-14l25 -15c7,3 10,-1 13,-7l33 -19c-4,19 -2,40 4,47 -3,4 -7,3 -11,6 13,11 21,-1 29,-14 -6,-10 -24,3 -18,-12 10,6 17,-5 24,-17 -1,-11 -14,-8 -21,-14l204 -118c6,7 11,14 14,23 12,3 8,-16 24,-8 -3,11 1,17 12,17l-290 168 -23 -16c-9,16 -18,29 -30,26 21,21 -19,9 -23,25 5,0 9,1 12,2l-22 13c1,-15 5,-39 17,-36 -3,-11 -13,-19 -7,-32zm375 -216l49 -28c-7,14 -24,15 -28,33 6,8 9,2 19,3 0,-18 14,-24 21,-43l56 -33c10,-1 18,-6 25,-14l86 -50c2,9 16,9 16,-4l-7 -1 26 -15c7,2 9,-4 13,-7l4 -3c1,0 2,0 4,0l0 0 0 0c2,1 4,1 6,3 0,-1 0,-2 0,-2 6,-1 12,-3 18,-3 -6,-4 -7,-7 -6,-10 8,-5 20,11 22,-7 -4,-2 -6,-2 -8,-1l132 -77c1,3 2,4 7,1 0,-2 -1,-3 -1,-4l51 -30c1,1 1,2 2,3 1,-2 1,-3 1,-5l94 -54c2,6 7,11 13,13 13,0 15,-14 16,-30l9 -4c2,7 9,12 14,5 -9,-4 -4,-6 -2,-13l14 -7c3,18 -5,33 23,45 -6,-16 -6,-37 -18,-49l235 -135c0,4 0,8 3,12 1,-3 2,-6 3,-9 5,3 9,4 12,-2 -1,-3 -4,-5 -7,-6 0,-1 0,-1 1,-2l25 -14c15,11 26,1 49,-1 1,11 -9,7 -10,14 9,1 12,5 10,13 -2,4 -4,7 -5,10l-408 235c-1,-3 -3,-5 -7,-6 1,3 1,6 2,9l-151 87c-1,-2 -4,-5 -8,-8 -2,6 -7,11 -5,15l-72 42c-2,0 -3,0 -5,0 -2,2 -4,4 -5,6l-165 95c1,-2 2,-4 4,-6 -9,3 -19,5 -22,16l0 0 -32 19c0,0 -1,0 -2,-1 0,1 0,2 0,3l-67 38c-9,0 -18,0 -28,-1 1,6 3,10 6,13l-30 18c-7,-21 18,-20 22,-39 -4,-8 -11,-17 -14,-27zm1037 -599l2 -1 0 0c0,1 -1,1 -2,1zm65 -37l40 -24c13,2 25,14 31,-5 -3,-5 -9,0 -9,-7l10 -6c1,0 2,0 3,-1l24 -15c4,-1 9,-1 13,-1 -1,-2 -3,-3 -4,-3l100 -58 0 0c0,1 1,3 2,4 8,1 15,0 18,-7 -4,-1 -6,-3 -7,-5l5 -3c11,9 22,19 32,23 -2,-3 -12,-12 -5,-13 17,1 28,7 37,15l-40 23c-9,-7 -21,-13 -26,1 2,1 3,3 2,6 4,0 7,0 11,0l-90 52c-10,-7 -11,-21 -29,-23 -4,9 -4,18 2,29 -7,0 -9,7 -16,7 -11,0 -12,-6 -21,-7 6,7 9,16 14,23l-14 8 -9 -2c-1,3 -1,5 0,7l-32 19 3 -10c17,-6 19,-16 32,-30 -11,-8 -29,-10 -40,-12 6,10 -6,41 -20,41 -8,-2 0,-14 -8,-16 0,2 0,4 -1,6 -3,-5 -5,-9 -8,-16zm31 43l-31 18 0 -1c6,-6 13,-11 17,-19 4,-2 9,-1 14,2zm279 -206c3,2 7,3 11,4 -4,1 -8,1 -12,0 1,-1 1,-2 1,-4zm25 7c1,-9 5,-14 8,-20 9,4 11,-12 5,-13 0,-1 0,-2 0,-3 -3,-2 -6,-3 -10,-4l51 -29c55,-31 123,-22 168,18l0 0 1 0c10,10 20,22 28,35l12 21c-2,1 -3,2 -4,3 11,0 -16,21 -3,25 1,-7 6,-7 11,-9 2,7 12,8 7,19 -5,8 -17,4 -18,18 15,-1 23,3 37,11 0,-3 1,-7 3,-10l15 27c-1,3 -2,5 -4,6 -6,-3 -5,-10 -11,-13 -5,-1 -4,8 -8,9 2,4 9,6 9,11 -4,12 -16,6 -13,22 -6,-1 -2,-8 -10,-8 -1,8 4,11 8,16 -2,1 -5,1 -7,0l-70 -121c-6,-10 -13,-19 -22,-25 5,0 9,0 12,-3 -9,0 -4,-9 -13,-9 -1,3 -3,4 -4,7 -28,-19 -67,-22 -98,-4l-53 31c-5,-1 -10,-5 -14,-7 -1,6 -4,8 -10,6 -1,-3 -2,-5 -3,-7zm324 111l5 9c-2,0 -5,0 -7,-2 0,-3 1,-5 2,-7zm10 18l4 7c-1,0 -2,0 -3,-1 -2,-3 -2,-5 -1,-6zm33 56l6 11c-5,2 -9,-5 -7,-11l0 0 1 0zm35 62l6 10c-3,1 -6,1 -11,0 0,-6 4,-7 5,-10zm14 24l4 7c-2,1 -4,1 -6,2 -4,-3 -1,-6 2,-9zm11 18l4 7 -1 5c-8,-1 -6,-8 -6,-13l0 0 3 1zm11 19l17 30c-2,6 -1,10 3,11 1,-1 1,-2 2,-2l11 18c-3,3 -5,6 -7,8 4,13 8,26 14,37 3,-6 9,-6 12,-12l81 141c31,54 23,120 -14,165 -7,-2 -13,-2 -16,2 -3,-15 -31,-9 -29,-23 -9,-1 5,12 -7,7 1,-4 1,-7 1,-10 32,-28 41,-76 19,-114l-134 -232 1 -5c-1,0 -3,-1 -4,-1l-14 -23c19,1 35,-6 50,8 0,10 -12,1 -11,12 8,6 10,15 14,23 2,-7 15,-18 4,-27 3,0 7,1 10,2 3,-7 -2,-10 -3,-15zm37 65l8 13c-6,-3 -11,-7 -10,-14l2 1zm-114 -91l-3 -6c5,0 9,-4 9,2 -1,2 -3,3 -6,4zm-6 -11l-6 -11c0,-1 2,-2 3,-2 0,-5 -6,-11 -11,-10l-61 -107c1,0 3,0 5,0 1,4 3,8 3,12 13,-7 26,16 35,8 5,2 0,9 3,12 18,5 24,10 36,14 0,2 0,3 -1,5 0,10 -11,2 -13,8 8,8 15,16 17,27 5,-2 4,-12 11,-12 3,7 10,10 9,19 -7,0 -12,4 -20,4 -10,0 -1,-12 -12,-11 6,11 5,26 15,34 -3,13 -4,-5 -13,-3 -2,5 1,8 0,13zm-547 -137l-10 6c1,-3 1,-6 -3,-9l0 0c6,-3 11,-1 13,3zm734 585c-7,6 -15,12 -24,17l-164 95c0,-1 -1,-1 -1,-1 -1,0 -1,1 -1,2l-36 21c-11,-8 -23,-20 -34,-10 -3,16 -1,21 2,28l-19 11c0,0 -1,0 -2,0 2,-6 4,-8 7,-11 -17,-4 -24,10 -33,20 4,0 6,2 7,3l-24 14c4,-9 10,-14 2,-21 -6,5 -29,10 -19,26 3,-11 7,-6 11,-1l-6 3c-1,-1 -1,-2 -1,-3 -3,2 -3,4 -3,6l-181 104c0,0 -1,0 -1,0l-13 8c-3,-1 -5,-2 -7,-2 0,-4 -3,-6 -6,-8 -1,3 -5,4 -5,10 4,0 7,1 11,2l0 0c1,0 1,0 2,1l-31 18c-5,-5 -2,-14 -13,-15 -1,7 -3,13 -5,19 3,1 5,1 8,2l-30 17c0,-1 -1,-1 -2,-2 -4,3 -7,5 -8,8l-151 87 -113 65c-2,-7 -6,-14 -19,-22 3,10 4,20 5,30l-256 148c12,-8 20,-20 13,-30 -6,19 -19,29 -35,31 -15,-14 -26,-5 -51,-6 0,-10 10,-5 12,-12 -4,-1 -7,-2 -8,-4l313 -181c2,2 5,4 8,5 2,-4 3,-8 3,-11l385 -223c0,4 2,8 7,10 3,-7 1,-10 0,-14l12 -7c-1,3 -4,5 -4,11 3,1 6,1 8,2 4,-4 2,-9 0,-15l24 -14c0,1 0,2 -1,3 5,2 9,-3 11,-8l26 -16 1 1 0 -1 16 -9c2,2 3,4 -3,8 12,-8 24,-1 35,-6 -4,-8 -12,-4 -13,-13l48 -28c-1,2 -3,4 -4,6 10,0 5,9 8,14 23,7 32,-10 48,-15 -10,-3 -2,-16 -11,-19 -7,10 -16,16 -28,16 1,-4 -2,-5 -2,-8 6,-3 16,-5 17,-10l154 -89c0,2 1,4 1,6 6,3 9,-1 10,-8l-5 -2 79 -45c4,1 8,3 11,7 27,-14 42,-5 68,5zm-899 -489l-4 2 0 -3 4 1zm-30 17l-11 6c1,-13 6,-27 15,-28 6,9 -3,12 -4,22zm-229 1144l-18 10c-3,0 -5,-2 -5,-6 7,2 16,0 23,-4zm-98 56l-45 26c7,-14 25,-9 31,-26 -3,-5 -14,-5 -9,-14 6,-2 12,-2 20,1 -5,8 -2,12 3,13zm-1310 436l-113 -196 1 0 226 130 49 -28 -165 -286 -49 28 113 196 -2 1 -226 -131 -49 28 166 287 49 -29zm223 -510l-176 101 165 287 180 -104 -24 -43 -131 76 -46 -80 118 -69 -24 -42 -119 68 -45 -79 127 -73 -25 -42zm92 -53l-51 29 165 286 49 -28 -101 -176 2 -1 178 132 3 -2 -25 -221 2 -1 102 176 49 -28 -166 -286 -47 27 26 228 -2 1 -184 -136zm432 -250l-176 102 166 286 180 -104 -25 -43 -131 76 -46 -80 119 -69 -25 -42 -119 68 -45 -78 127 -74 -25 -42zm361 173l54 -31 -124 -78c27,-25 32,-62 12,-97l-21 -37c-24,-41 -68,-53 -110,-29l-131 75 166 287 49 -29 -64 -110 48 -28 121 77zm-246 -182l78 -45c14,-9 30,-5 38,10l24 42c9,14 5,30 -10,38l-78 45 -52 -90zm217 -182l-49 28 165 286 49 -28 -165 -286zm271 225l49 -29 -140 -244 82 -47 -25 -42 -213 122 25 43 82 -47 140 244zm299 -173c41,-24 53,-68 29,-110l-85 -147c-23,-41 -68,-53 -109,-29l-74 42c-41,24 -53,69 -29,110l85 147c24,42 68,54 109,30l74 -43zm-29 -40l-65 38c-15,8 -30,4 -39,-11l-88 -152c-8,-14 -4,-30 11,-38l65 -38c15,-9 30,-5 39,10l88 152c8,15 4,30 -11,39zm302 -118l54 -31 -124 -78c27,-25 32,-62 12,-97l-21 -37c-24,-41 -68,-53 -110,-29l-131 75 166 287 49 -29 -64 -110 48 -28 121 77zm-246 -182l78 -45c14,-9 30,-5 38,10l25 42c8,15 4,30 -11,38l-78 45 -52 -90zm382 104l-113 -196 2 -1 226 131 49 -28 -166 -287 -49 29 113 195 -1 1 -226 -130 -49 28 165 286 49 -28zm97 -437l-50 28 166 286 49 -28 -165 -286zm-14 -10l18 -83 -53 31 -3 74 38 -22zm-2196 675l0 0zm854 357l0 0 0 0zm-321 -58l0 0zm938 -76l0 0zm0 0l0 0zm-1228 -221c0,0 0,0 0,0l0 0c0,0 0,0 0,0zm-243 -2l0 0zm854 357l0 0 0 0zm-321 -58l0 0zm938 -76l0 0zm0 0l0 0zm-1228 -221c0,0 0,0 0,0l0 0c0,0 0,0 0,0zm-243 -2l0 0zm854 357l0 0 0 0zm-321 -58l0 0zm938 -76l0 0zm0 0l0 0zm-1228 -221c0,0 0,0 0,0l0 0c0,0 0,0 0,0zm-243 -2l0 0zm854 357l0 0 0 0zm-321 -58l0 0zm938 -76l0 0zm0 0l0 0zm-1228 -221c0,0 0,0 0,0l0 0c0,0 0,0 0,0zm-243 -2l0 0zm854 357l0 0 0 0zm-321 -58l0 0zm938 -76l0 0zm0 0l0 0zm-1228 -221c0,0 0,0 0,0l0 0c0,0 0,0 0,0zm-243 -2l0 0zm854 357l0 0 0 0zm-321 -58l0 0zm938 -76l0 0zm0 0l0 0zm-1228 -221c0,0 0,0 0,0l0 0c0,0 0,0 0,0zm-243 -2l0 0zm854 357l0 0 0 0zm-321 -58l0 0zm938 -76l0 0zm0 0l0 0zm-1228 -221c0,0 0,0 0,0l0 0c0,0 0,0 0,0zm-243 -2l0 0zm854 357l0 0 0 0zm-321 -58l0 0zm938 -76l0 0zm0 0l0 0zm-1228 -221c0,0 0,0 0,0l0 0c0,0 0,0 0,0zm-243 -2l0 0zm854 357l0 0 0 0zm-321 -58l0 0zm938 -76l0 0zm0 0l0 0zm-1228 -221c0,0 0,0 0,0l0 0c0,0 0,0 0,0zm-243 -2l0 0zm854 357l0 0 0 0zm-321 -58l0 0zm938 -76l0 0zm0 0l0 0zm-1228 -221c0,0 0,0 0,0l0 0c0,0 0,0 0,0zm-243 -2l0 0zm854 357l0 0 0 0zm-321 -58l0 0zm938 -76l0 0zm0 0l0 0zm-1228 -221c0,0 0,0 0,0l0 0c0,0 0,0 0,0zm-243 -2l0 0zm854 357l0 0 0 0zm-321 -58l0 0zm938 -76l0 0zm0 0l0 0zm-1228 -221c0,0 0,0 0,0l0 0c0,0 0,0 0,0zm-243 -2l0 0zm854 357l0 0 0 0zm-321 -58l0 0zm938 -76l0 0zm0 0l0 0zm-1228 -221c0,0 0,0 0,0l0 0c0,0 0,0 0,0zm-243 -2l0 0zm854 357l0 0 0 0zm-321 -58l0 0zm938 -76l0 0zm0 0l0 0zm-1228 -221c0,0 0,0 0,0l0 0c0,0 0,0 0,0zm-243 -2l0 0zm854 357l0 0 0 0zm-321 -58l0 0zm938 -76l0 0zm0 0l0 0zm-1228 -221c0,0 0,0 0,0l0 0c0,0 0,0 0,0zm-243 -2l0 0zm854 357l0 0 0 0zm-321 -58l0 0zm938 -76l0 0zm0 0l0 0zm-1228 -221c0,0 0,0 0,0l0 0c0,0 0,0 0,0zm-243 -2l0 0zm854 357l0 0 0 0zm-321 -58l0 0zm938 -76l0 0zm0 0l0 0zm-1228 -221c0,0 0,0 0,0l0 0c0,0 0,0 0,0zm-243 -2l0 0zm854 357l0 0 0 0zm-321 -58l0 0zm938 -76l0 0zm0 0l0 0zm-1228 -221c0,0 0,0 0,0l0 0c0,0 0,0 0,0zm-243 -2l0 0zm854 357l0 0 0 0zm-321 -58l0 0zm938 -76l0 0zm0 0l0 0zm-1228 -221c0,0 0,0 0,0l0 0c0,0 0,0 0,0zm-243 -2l0 0zm854 357l0 0 0 0zm-321 -58l0 0zm938 -76l0 0zm0 0l0 0zm-1228 -221c0,0 0,0 0,0l0 0c0,0 0,0 0,0zm-243 -2l0 0zm854 357l0 0 0 0zm-321 -58l0 0zm938 -76l0 0zm0 0l0 0zm-1228 -221c0,0 0,0 0,0l0 0c0,0 0,0 0,0zm-243 -2l0 0zm854 357l0 0 0 0zm-321 -58l0 0zm938 -76l0 0zm0 0l0 0zm-1228 -221c0,0 0,0 0,0l0 0c0,0 0,0 0,0zm-243 -2l0 0zm854 357l0 0 0 0zm-321 -58l0 0zm938 -76l0 0zm0 0l0 0zm-1228 -221c0,0 0,0 0,0l0 0c0,0 0,0 0,0zm-243 -2l0 0zm854 357l0 0 0 0zm-321 -58l0 0zm938 -76l0 0zm0 0l0 0zm-1228 -221c0,0 0,0 0,0l0 0c0,0 0,0 0,0zm-243 -2l0 0zm854 357l0 0 0 0zm-321 -58l0 0zm938 -76l0 0zm0 0l0 0zm-1228 -221c0,0 0,0 0,0l0 0c0,0 0,0 0,0zm-243 -2l0 0zm854 357l0 0 0 0zm-321 -58l0 0zm938 -76l0 0zm0 0l0 0zm-1228 -221c0,0 0,0 0,0l0 0c0,0 0,0 0,0zm-243 -2l0 0zm854 357l0 0 0 0zm-321 -58l0 0zm938 -76l0 0zm0 0l0 0zm-1228 -221c0,0 0,0 0,0l0 0c0,0 0,0 0,0zm-243 -2l0 0zm854 357l0 0 0 0zm-321 -58l0 0zm938 -76l0 0zm0 0l0 0zm-1228 -221c0,0 0,0 0,0l0 0c0,0 0,0 0,0zm-243 -2l0 0zm854 357l0 0 0 0zm-321 -58l0 0zm938 -76l0 0zm0 0l0 0zm-1228 -221c0,0 0,0 0,0l0 0c0,0 0,0 0,0zm-243 -2l0 0zm854 357l0 0 0 0zm-321 -58l0 0zm938 -76l0 0zm0 0l0 0zm-1228 -221c0,0 0,0 0,0l0 0c0,0 0,0 0,0zm-243 -2l0 0zm854 357l0 0 0 0zm-321 -58l0 0zm938 -76l0 0zm0 0l0 0zm-1228 -221c0,0 0,0 0,0l0 0c0,0 0,0 0,0z"/>
 </g>
</svg>
