<?xml version="1.0" encoding="UTF-8"?>
<!DOCTYPE svg PUBLIC "-//W3C//DTD SVG 1.0//EN" "http://www.w3.org/TR/2001/REC-SVG-20010904/DTD/svg10.dtd">
<!-- Creator: CorelDRAW X6 -->
<svg xmlns="http://www.w3.org/2000/svg" xml:space="preserve" width="92.407mm" height="90.4997mm" version="1.0" style="shape-rendering:geometricPrecision; text-rendering:geometricPrecision; image-rendering:optimizeQuality; fill-rule:evenodd; clip-rule:evenodd"
viewBox="0 0 3259 3192"
 xmlns:xlink="http://www.w3.org/1999/xlink">
 <defs>
  <style type="text/css">
   <![CDATA[
    .fil0 {fill:#C5C6C6}
   ]]>
  </style>
 </defs>
 <g id="razítko">
  <metadata id="CorelCorpID_0Corel-Layer"/>
  <path id="final" class="fil0" d="M1059 604c19,-11 38,-21 57,-30 3,1 7,2 11,1 3,-3 3,-6 3,-8 3,-1 5,-3 8,-4 8,4 16,5 24,9 -29,2 -27,27 -38,47 15,-3 18,-17 25,-17 4,4 4,8 4,13 -6,3 -12,6 -17,8 -4,0 -7,0 -12,-4 -4,16 -14,8 -19,20l0 0c-7,4 -14,9 -22,13 -24,14 -48,29 -71,45 -5,-21 -15,-43 21,-59 6,4 12,8 18,12 4,-16 5,-29 8,-46zm817 2101c-4,-12 -8,-23 -29,-18 1,-12 23,-14 25,0 7,-4 7,-13 11,-18 8,8 -3,27 -7,36zm1178 -420c-17,-6 3,-12 -1,-25 14,3 4,19 1,25zm-330 -498c-4,0 -7,0 -11,0 1,-24 16,-32 14,-51 9,0 11,-7 18,0 -1,23 -27,21 -21,51zm-54 265l0 0c-2,-7 6,-25 -7,-22 -4,4 -13,22 -4,26 1,-4 6,-4 11,-4zm505 -659c-1,9 -6,10 -9,15 -6,-4 2,-19 9,-15zm-156 -710c1,8 -5,6 -5,13 -7,-9 -23,2 -20,-13 3,0 5,2 5,4 4,0 4,-6 5,-10 2,4 9,5 15,6zm-6 30c0,9 -9,4 -11,9 -6,-5 3,-15 11,-9zm-23 -11c-5,-11 -17,-17 -16,-32 5,0 8,-2 10,-6 10,11 1,22 6,38zm-183 743c-5,-9 -9,2 -16,-1 0,-5 -10,-4 -6,-12 13,4 -3,-16 13,-9 0,-8 -3,-4 -10,-5 1,-2 1,-5 2,-8 5,1 12,12 14,1 11,11 -6,18 3,34zm-159 57c-2,6 -8,2 -8,10 -8,-3 -20,-3 -24,-8 5,-7 16,-3 19,-10 9,0 4,8 13,8zm4 -1102c-2,5 -13,-3 -11,9 -7,-5 -7,-5 -16,-4 5,-4 10,-8 3,-14 7,-5 22,3 24,9zm-117 168c-7,-7 -13,0 -18,-7 0,-4 1,-7 2,-11 6,1 11,-2 19,2 4,6 -3,6 -3,16zm-25 11c-2,11 -19,0 -13,-8 9,0 4,8 13,8zm-68 36c-4,3 -9,7 -9,17 -9,-6 -21,-10 -21,-21 4,-3 14,3 13,-9 8,3 11,9 17,13zm608 132l0 0c-1,3 -1,7 -2,10 7,3 12,2 12,-5 -4,-1 -8,-3 -10,-5zm-76 -136l0 0c-6,10 5,19 9,10 -8,0 0,-11 -9,-10zm-11 34l0 0c8,-6 1,-11 7,-18 -8,-2 -16,15 -7,18zm-820 -554c10,0 16,4 13,13 -6,-1 -8,4 -15,2 0,-5 1,-10 2,-15zm-1121 575c17,9 -5,12 -4,26 -14,-5 0,-20 4,-26zm938 220c18,-2 13,13 29,12 -10,21 -22,-6 -39,2 -3,-13 12,-1 10,-14zm0 23c-2,12 -11,16 -25,12 2,-12 11,-15 25,-12zm-429 218c6,2 7,8 5,17 -4,-1 -8,-1 -11,-2 -1,-8 4,-10 6,-15zm-233 124c11,10 25,18 30,32 -10,-1 -21,2 -26,19 -31,-9 -13,-30 -4,-51zm-914 551c0,-8 5,-14 14,-17 5,3 7,10 8,17 -10,5 -13,-3 -22,0zm66 -23c-5,-8 6,-8 2,-16 13,0 11,-4 22,-10 9,18 -7,22 -24,26zm38 -52c3,-1 6,-2 9,-2 3,5 0,8 0,12 -5,1 -8,-3 -9,-10zm11 16c9,-4 15,-1 18,7 -9,4 -15,1 -18,-7zm22 -32c10,-1 13,-6 20,-9 3,2 4,8 8,7 0,11 -4,21 -10,29 -14,1 -24,-15 -18,-27zm-15 -200c-1,-4 -2,-8 -3,-12 10,-5 15,11 3,12zm748 1594c-19,-3 -3,-22 5,-8 -2,2 -4,4 -5,8zm-320 -100c-6,-4 -4,-17 2,-21 8,3 11,8 8,18 -3,2 -9,-1 -10,3zm-69 -24c9,-5 16,-12 24,-19 3,6 -5,13 -3,24 -6,3 -18,0 -21,-5zm-372 -214c-11,-3 -9,-14 -13,-22 2,-3 8,0 13,0 -7,15 12,5 7,21 -3,-1 -5,-1 -7,1zm7 -13c-2,-12 23,-9 18,1 -4,3 -11,1 -18,-1zm-234 -225c-6,-1 -2,-9 -11,-9 3,-9 4,-22 10,-25 7,5 2,17 10,21 0,10 -9,4 -9,13zm887 94c-7,-7 6,-16 13,-13 -1,10 -10,6 -13,13zm28 1c-6,-5 -5,-14 -3,-23 4,1 9,2 14,4 -2,9 -7,13 -11,19zm66 -286c-4,-5 -8,-10 -19,-11 7,-9 12,-22 24,-22 3,5 -4,16 9,15 -3,9 -10,11 -14,18zm178 -119c1,-4 4,-10 0,-12 3,-4 8,-4 13,-3 3,11 3,19 -13,15zm50 -49c10,-14 25,-7 41,-2 -11,13 -24,-3 -41,2zm-439 875l0 0c-6,-1 -13,-3 -14,5 4,1 7,2 11,3 1,-3 2,-5 3,-8zm-279 -130c-9,-9 -7,-23 -24,-16 1,-16 24,-19 27,-5 2,1 3,-1 4,-2 -1,6 -13,9 -7,23zm438 -556l0 0c-1,-7 10,-19 -2,-19 -4,2 -14,14 -8,19 1,-3 5,-2 10,0zm253 -143c-4,-7 21,-22 25,-15 -4,13 -21,3 -25,15zm-735 -1872c-6,5 -13,2 -18,8 -12,-9 -14,-19 -7,-31 20,-4 11,15 25,23zm-179 113c9,-6 9,5 14,9 -10,17 -23,20 -38,8 8,-12 -2,-14 12,-18 7,14 13,22 12,1zm-148 186c9,17 -2,19 -1,32 -23,6 -12,-28 1,-32zm-79 152c-19,10 -28,5 -55,3 4,-5 4,-9 1,-12 17,1 35,0 54,9zm258 419c13,6 11,16 2,27 -8,-6 -13,-1 -21,-7 14,-3 3,-17 19,-20zm-499 200c5,-4 10,-7 16,-4 -2,5 -2,9 -2,13 2,1 3,3 5,4 -2,3 -2,6 -2,9 0,3 2,6 2,9 0,1 -1,2 -2,2 0,4 1,7 0,10 3,-1 6,-3 9,-4 1,-6 1,-11 2,-17 -4,-4 -6,-9 -6,-15 3,2 5,4 7,5 0,-3 1,-6 1,-9 -1,1 -2,2 -4,2 -8,-4 -5,-15 4,-17 0,2 0,6 1,8 1,-8 2,-16 3,-24 -2,3 -2,5 -1,9 -19,-5 -19,-10 -34,11 -16,-7 -8,-20 1,-32 -6,0 -12,4 -18,8 0,-1 -1,-2 -1,-3 -1,9 -2,18 -3,27 7,2 15,4 22,8zm-30 73c-4,52 -5,105 -3,159 3,1 6,2 10,2 6,16 -6,22 -2,38 -2,1 -5,1 -6,0 0,6 0,12 1,19 18,-9 34,42 48,60 -17,3 -20,-31 -36,-15 4,-12 -2,-32 -12,-40 1,18 3,35 5,53 10,1 16,9 24,4 -9,11 -13,38 9,38 0,5 -9,4 -7,9 7,2 10,10 18,10 -11,16 13,14 18,26 -3,1 -6,2 -9,3 1,3 2,6 2,9 4,2 9,3 13,1 -2,-7 -3,-15 -4,-22 -8,-4 -13,-10 -11,-20 3,-1 6,-1 8,-1 -11,-76 -17,-151 -17,-227 -2,2 -4,2 -8,0 -1,-5 3,-7 9,-9 0,-38 2,-76 5,-114l-1 0c0,6 -6,9 -11,13 -3,-8 3,-8 -3,-12 -6,6 -4,8 -14,7 -2,-13 -13,-9 -18,-17 1,5 6,21 -1,29 -2,-1 -5,-2 -7,-3zm9 310l0 1c0,0 1,0 1,0 0,0 -1,0 -1,-1zm3 26c1,4 2,8 2,13 1,-2 3,-4 6,-6 -3,-2 -5,-4 -8,-7zm50 61l7 -4c0,-7 -6,-6 -7,-12 -4,5 -17,5 -18,11 6,5 6,-4 15,-1 1,2 2,4 3,6zm-14 -416l-6 -1 0 0c1,2 3,2 6,1zm1080 -917c5,-2 11,-5 17,-7 -4,6 -10,6 -14,11l0 0c-2,-1 -3,-3 -3,-4zm42 -18l3 -1c5,0 8,-1 9,-3 5,-2 10,-4 16,-6 4,7 12,11 24,13 -6,11 -12,17 -20,20l0 -1c5,-1 10,-5 9,-11 -7,-2 -12,-1 -17,0 -2,-2 -6,0 -9,7 -10,-5 -6,-13 -15,-18zm124 -41c2,-1 4,-1 6,-2 0,2 1,4 1,5 -2,0 -5,-1 -7,-3zm136 -28c21,-3 41,-5 62,-7 2,2 4,5 2,10 -3,2 -5,6 -7,9 -4,-5 -8,-14 -17,-8 1,1 2,2 2,3 0,0 -1,0 -2,0 -5,3 -9,9 -13,14 8,5 12,13 29,12 1,-4 1,-11 5,-11 2,1 3,2 4,3l-5 8c-8,4 -14,9 -22,13 5,0 7,1 7,2 -9,1 -19,2 -28,3 4,-3 6,-8 3,-16 -4,5 -11,7 -19,7 9,-16 -3,-27 -1,-42zm-44 61c-14,3 -27,6 -41,9 -14,-4 -28,-9 -31,2 -6,-16 13,-43 27,-41 10,13 19,18 28,22 -6,2 -11,5 -12,11 7,-2 18,-2 29,-3zm-6 -11c4,-8 8,-13 14,-15 2,10 -6,13 -14,15zm17 -16c9,-1 19,2 31,9 -11,0 -22,-3 -31,-9zm207 -45c54,0 107,5 159,13 2,4 2,11 9,12 2,-4 5,-6 8,-10 33,6 66,13 98,21 0,3 0,7 -1,13 18,5 25,-2 39,-2 3,20 4,38 0,55 -101,-31 -207,-48 -314,-49 12,-12 20,-26 20,-39 -2,5 -6,7 -12,6 0,-8 -2,-15 -6,-20zm-126 31c1,-1 3,-2 5,-2 -1,1 -2,2 -3,2 -1,0 -2,0 -2,0zm476 28c63,21 124,47 183,79 0,2 1,4 2,5 4,1 7,1 10,1 2,1 4,3 6,4l-2 1c-4,-1 -6,2 -7,4l-45 26c-54,-29 -110,-53 -168,-72 1,-15 4,-31 8,-44 4,-2 10,-2 13,-4zm-1031 223c-154,120 -268,275 -339,446 -5,-1 -10,-3 -15,-8 3,-10 27,-10 7,-21 -6,16 -17,8 -23,25 8,14 16,19 25,20 -16,41 -30,83 -41,126 -2,-2 -4,-3 -8,2 3,3 3,7 -2,12 2,2 3,4 5,5 -13,57 -23,116 -27,174 -5,6 -10,11 -11,23 4,2 7,3 9,4 0,4 0,8 0,12l-8 4c-2,-1 -5,-3 -9,-5 -4,-10 -6,-18 5,-27 -11,4 -13,-10 -24,-6 -2,11 -8,15 -16,15 5,-110 27,-219 64,-323 1,0 1,-1 2,-1 0,0 -1,-1 -1,-2 5,-14 11,-28 16,-42 3,-1 5,-1 8,0 -3,-1 -5,-1 -7,-1 11,-30 25,-58 39,-87 26,-2 48,-30 46,-52 -3,22 -14,18 -26,14 2,-3 4,-6 5,-9 19,1 43,-25 31,-31 -8,7 -15,13 -24,18 5,-8 10,-16 14,-23 12,-14 22,-34 40,-41 -1,-3 -4,-7 -6,-11 6,-9 13,-18 20,-27 13,11 -1,19 21,35 5,-10 12,-5 19,-8 -21,-14 -31,-25 -34,-36 13,-18 28,-36 42,-53 11,1 23,5 32,-3 -12,-4 -14,-10 -16,-15 18,-20 36,-39 55,-58 7,-1 14,-2 20,-7 -3,-2 -5,-4 -7,-6 2,-2 4,-3 6,-5 5,0 12,1 14,0 -2,-2 -5,-4 -1,-7 1,-2 2,-4 1,-6 8,-7 15,-14 23,-21 19,0 42,-5 48,-25 8,4 13,-3 22,8 5,-8 8,-15 7,-22 -6,-5 -13,-8 -18,-7 25,-19 50,-37 77,-53 -21,30 -36,53 -44,88 -1,-2 -2,-3 -2,-5 -1,2 -3,3 -4,3 -3,0 -6,0 -10,2 -7,-1 -14,-4 -19,6 2,2 5,3 9,5 -1,3 -1,5 1,7 2,0 4,-1 5,-2 2,0 3,1 4,2zm-34 -41l5 -3c0,2 1,5 4,8 -2,-1 -4,-2 -6,-1 -1,-1 -2,-3 -3,-4zm-410 857c-3,-1 -7,-2 -11,-3 1,-1 2,-2 3,-3 5,-1 6,3 8,6zm753 -1030c1,3 5,6 9,7 1,-1 3,-3 4,-4 -4,-3 -6,-6 -7,-9 -1,2 -3,5 -6,6zm15 8c2,0 4,0 5,0l1 -1c-2,1 -4,1 -6,1zm10 -18c0,-2 -1,-4 -2,-6 -12,2 -7,7 -7,15 3,-3 6,-6 9,-9zm459 -480c-5,-5 -9,-5 -12,-2 -11,-13 12,-13 15,-23 -2,15 5,28 -10,46 -6,-6 4,-14 7,-21zm-1142 1045c3,-6 6,-12 9,-18 3,2 5,5 3,8 -4,6 -8,9 -12,10zm-104 498l-6 3c-1,-1 -1,-2 -1,-4 2,0 5,0 7,1zm1282 1124c-13,-1 -14,-9 -21,-13 6,-7 26,4 21,13zm519 -201c-9,-1 -10,-5 -14,-8 6,-3 12,-8 21,-6 -1,7 -6,6 -7,14zm-913 -269c0,8 23,4 15,16 -9,6 -23,-2 -15,-16zm1106 93c4,-12 -2,-18 4,-31 15,2 15,37 -4,31zm-240 -553c-18,0 -12,-15 -28,-16 12,-19 22,9 39,3 2,13 -13,-1 -11,13zm2 -24c4,-12 13,-14 26,-9 -3,12 -13,14 -26,9zm169 -83c-13,-5 0,-23 -19,-17 4,-12 14,-15 16,-31 7,12 0,28 3,48zm305 -24c0,-2 1,-4 2,-6 5,0 8,2 10,4 7,-2 13,-6 23,-8 0,-6 0,-12 0,-17 -1,0 -1,0 -2,0 -1,2 -2,4 -3,6 -4,0 -7,-1 -9,-2l-22 13c-3,3 -8,4 -10,8 -1,0 -2,-1 -2,-1l-6 3c0,16 -1,32 -3,49 13,4 26,8 30,21 -11,2 -22,3 -32,5 -1,10 -2,20 -4,29 12,9 2,26 -2,43 -1,-1 -3,-2 -4,-3 -1,8 -3,16 -4,25 11,0 7,9 5,18 -5,0 -6,-2 -8,-3 -2,6 -3,13 -5,19 3,-1 7,-3 9,-6 0,6 0,11 4,11 0,9 -11,9 -17,13 -1,3 -1,5 -2,8 13,14 9,49 35,41 2,-10 -2,-13 -11,-11 6,-14 14,-25 31,-29 1,-7 3,-13 4,-20 -8,-3 -16,-5 -21,-5 1,-16 9,-21 13,-33 7,3 11,7 14,12 0,-3 1,-6 2,-9 -4,-6 -1,-11 3,-17 3,-21 6,-41 9,-61 -5,-8 -11,-14 -15,-20 1,-18 25,-21 14,-40 3,0 5,0 7,0 0,-7 1,-14 1,-22 -6,5 -11,9 -12,19 -16,-7 -30,-15 -33,-36 4,1 8,2 11,2zm14 -202c1,-10 5,-16 15,-12 -2,10 -6,15 -15,12zm433 34c-13,-14 -3,-46 16,-47 9,6 -7,13 -11,13 -2,8 7,10 16,12 -1,4 -2,7 -3,11 -11,7 -5,-7 -17,-9 -4,11 11,13 -1,20zm-243 -108c-5,-1 -10,-2 -15,-4 1,-15 22,-9 15,4zm-206 522c-1,7 -3,14 -5,21 -3,-11 -12,-19 0,-27 4,1 4,4 5,6zm-19 68c-8,23 -16,45 -24,66 -2,-1 -3,-3 -3,-5 -3,-14 4,-17 3,-29 -18,22 -49,33 -43,69 -7,-1 -6,-10 -18,-7 -2,21 21,16 19,36 -22,-14 -11,30 -33,15 -4,16 -30,41 -6,51 9,-12 16,-12 10,-33 14,-1 18,-11 22,-22 6,-1 12,-2 17,-2 -10,20 -20,40 -31,59 -3,-1 -6,-2 -11,-2 -10,6 10,12 2,17 -1,0 -1,1 -2,1 -9,-8 -13,-20 -29,-21 0,7 -2,13 -3,19 -8,-2 -15,-4 -22,-6 25,-42 47,-85 66,-130 0,0 1,0 1,0 0,0 0,-1 0,-2 4,-9 8,-18 11,-27l10 0c0,-6 0,-12 0,-18 -1,0 -2,0 -3,0 1,-3 2,-6 3,-9 6,2 11,5 18,9 7,-17 5,-40 3,-55 -2,2 -4,3 -6,4 5,-15 9,-31 14,-46 2,0 4,2 6,6 -6,5 -4,18 -11,22 24,18 -9,50 26,54 6,-7 -5,-14 11,-15 1,0 2,1 3,1zm-148 298c-10,14 -20,28 -31,41l-7 -2c-1,6 -4,8 -7,11l7 1c-42,54 -90,105 -142,151 2,-8 7,-14 14,-22 -7,-10 -27,-10 -33,-10 10,-3 9,-18 25,-15 4,-12 2,-10 -4,-18 7,-6 5,0 15,0 -2,-7 -4,-13 -8,-16 9,-9 19,-19 28,-29 4,12 11,22 28,27 6,-4 8,-12 10,-22 -12,-6 -22,-17 -32,-11 21,-23 42,-48 61,-73 9,3 19,7 21,-2 -2,-3 -7,-8 -12,-10 10,-12 19,-25 27,-38 1,0 1,1 2,1 -3,23 15,35 26,50 3,-7 7,-11 12,-14zm-188 209c-51,44 -106,84 -166,120 -6,-21 -9,-41 -5,-59 5,-4 10,-7 15,-10 0,2 0,3 -1,5 32,11 41,-18 46,-35 15,-12 30,-23 45,-35 1,5 0,11 -2,15 7,4 17,5 25,7 3,-6 1,-18 7,-22 17,-2 11,19 22,22 0,-14 5,-9 14,-8zm-198 138c-20,11 -39,21 -59,31 0,-2 1,-4 3,-6 -5,-11 -10,-16 -18,-18 -9,-6 -8,-18 -3,-27 23,-11 46,-23 69,-36 6,-4 12,-7 17,-10 1,15 2,30 -1,43 -5,5 -16,4 -14,15 2,3 4,6 6,8zm204 -215c1,-2 2,-3 4,-4 0,2 -1,5 -3,5 -1,0 -1,-1 -1,-1zm-339 279c-43,17 -87,31 -132,43 0,-5 -2,-11 -5,-17 -17,28 -36,19 -61,30 -2,-5 4,-19 -4,-18 -11,-2 -8,22 -22,8 5,4 8,10 10,15 -6,1 -11,2 -16,3 1,-1 2,-2 3,-4 -15,2 -3,-12 -4,-18 -4,0 -7,0 -11,0 1,9 7,12 -3,15 5,-23 -17,4 -15,-14 -12,-3 -8,9 -14,11 -1,8 7,10 7,15 -74,10 -148,12 -221,8 11,-2 20,-11 26,-20l0 0c8,-5 13,-14 27,-8 3,-7 5,-14 2,-18 -10,3 -9,-1 -11,-6 15,1 29,1 43,1 -1,3 -3,7 -4,12 6,3 6,13 15,14 -4,-16 14,-10 17,-19 0,-3 0,-5 0,-8 116,-5 234,-28 347,-72 5,3 8,9 4,21 12,3 23,4 32,8 -2,6 -5,12 -10,18zm-500 76c-91,-7 -180,-24 -266,-52 17,-13 34,-15 44,-35 4,7 10,13 14,19 -5,-15 9,-9 14,-18 78,21 159,32 240,35 -1,7 2,11 3,16 -4,1 -9,3 -12,6 -7,-7 -20,-7 -32,-8 1,15 -10,20 -7,36 0,1 1,1 2,1zm495 -131c4,-2 9,-4 13,-6 1,7 3,13 4,20 -1,0 -1,0 -2,0 0,-9 -7,-12 -15,-14zm-768 77c-2,0 -3,-1 -5,-2 1,0 3,-1 5,-1 -1,1 0,2 0,3zm-21 -7c-64,-22 -127,-50 -187,-84l54 -31c52,27 105,50 160,68 -7,3 -14,6 -21,10 2,-5 3,-9 6,-11 -8,-5 -10,2 -16,2 5,16 -3,26 -10,41 5,1 12,2 14,5zm807 -78c2,-1 3,-1 5,-2 -2,1 -3,1 -5,2zm1135 -1310c13,67 22,134 27,201 -7,0 -13,3 -18,10 6,-2 13,-1 18,0 2,29 3,57 3,86 -8,1 -17,14 -12,16 3,-3 9,-3 12,-5 0,10 0,20 0,30 -7,0 -13,0 -14,11 5,1 10,2 14,1 -2,67 -8,133 -18,198 -25,-22 -2,-45 -17,-74 -11,-4 7,14 -6,11 -3,-10 -6,-18 0,-32 9,3 10,10 19,5 7,-15 -17,-12 -14,-24 5,-16 17,-21 25,-33 -19,-4 -21,-17 -20,-33 -9,-2 -16,-1 -23,-1 1,-20 1,-41 1,-61 8,4 21,-6 15,-16 -7,-1 -12,0 -15,4 0,-9 0,-19 -1,-29 9,-8 26,0 30,-15 -4,-6 -22,3 -30,11 -2,-78 -10,-155 -25,-233l49 -28zm10 562c-4,23 -8,46 -13,68 -9,-3 -19,-8 -31,-12 0,-2 0,-3 0,-5 7,-4 15,-8 20,-13 -10,-3 -16,0 -22,4 -1,-1 -3,-2 -5,-2 -3,5 -9,6 -12,10 3,-15 5,-29 8,-44 1,0 2,0 3,0 9,-2 10,-15 18,-19 10,4 22,8 34,13zm-51 62c1,5 10,5 10,11 -12,10 -19,20 -32,20 2,-8 4,-17 6,-25 2,-3 5,-6 8,-8 2,1 5,2 8,2zm34 25c0,2 -1,4 -1,7 -11,-6 -20,8 -21,-1 1,-3 2,-7 3,-11l19 5zm-4 21c-1,3 -2,5 -2,8 -7,0 -12,-1 -11,-9 3,5 8,5 13,1zm-6 22c-5,20 -10,39 -15,58 -7,-2 -13,-4 -18,-4 -4,-1 -8,-2 -11,-2 -5,-8 2,-11 -4,-22 6,0 28,-6 18,-18 -2,11 -18,8 -30,9 4,-17 9,-34 13,-51 8,1 15,0 20,-7 -5,17 12,40 27,37zm-42 72c-1,7 -4,15 5,16 2,-3 4,-5 6,-8l2 0c0,0 0,-1 0,-2 3,-3 8,-7 11,-11 -8,29 -17,57 -27,85 -7,-3 -17,-2 -19,-10 1,-26 27,-28 35,-47 -7,-7 -7,1 -14,4 5,-23 -30,-8 -15,-29 5,-14 1,-22 -9,-26l-1 4c3,0 6,1 6,4 -2,6 -6,10 -11,14l-1 4c2,1 4,2 7,3 3,-2 5,-3 9,-3 4,9 12,4 16,2zm-12 103c-7,19 -14,37 -22,56 -6,-4 -9,-10 -2,-20 -10,5 -13,-17 -18,-7 2,1 4,1 4,4 -12,18 -2,34 7,45 -23,53 -49,104 -77,154 -3,-1 -6,0 -7,5 1,0 2,0 3,1 -4,8 -9,16 -14,24 -1,0 -2,-1 -4,-1 -11,-8 -5,-25 -25,-27 1,22 -5,32 -17,51 11,3 19,7 24,13 -10,16 -20,31 -31,47 -4,-1 -8,-2 -12,-1 2,-7 -2,-17 2,-23 2,-10 -13,-10 -16,-16 5,-8 15,-7 20,-15 1,-7 -12,-6 -13,-12 0,1 -1,1 -1,1 23,-35 44,-71 64,-108 24,5 45,5 50,-34 -10,2 -19,-3 -28,-9 1,-3 3,-6 4,-9 2,1 4,2 7,2 2,-13 12,-19 14,-33 -2,0 -4,0 -6,0 8,-17 15,-34 22,-50 0,2 -1,5 -2,10 14,-6 7,9 14,11 7,-4 13,-26 4,-33 -4,7 -8,7 -13,4 12,-29 23,-58 33,-88 7,2 13,3 22,-4 11,21 -10,25 -18,37 18,5 8,21 15,32 12,-2 2,-16 7,-18 6,1 4,10 10,11zm-25 -90l2 -7c2,0 3,1 4,0 -2,3 -3,6 -6,7zm-189 485c-10,13 -20,25 -30,38 -2,0 -4,-1 -7,-1 -1,4 0,7 1,9 -9,11 -17,21 -26,32 -4,-8 -16,-11 -27,-12 -11,6 14,7 11,17 -7,1 -5,-9 -15,-7 -3,1 -2,5 -4,7 -3,-7 -20,-4 -20,-12 27,7 45,-30 48,-62 4,-2 7,-3 12,-1 0,-3 0,-6 -1,-8 10,7 19,16 26,21 6,-14 18,-19 32,-21zm-83 102c-11,13 -23,25 -34,37 0,-1 0,-2 0,-4 -5,0 -8,2 -11,4 0,-4 -1,-8 -5,-8 0,-1 1,-2 1,-4 7,1 6,5 5,10 9,-7 19,-12 26,-21 -1,-12 -16,-4 -22,-6 12,-2 17,-16 26,-25 10,7 15,8 14,17zm-42 45c-5,6 -10,11 -16,17 1,-4 1,-9 -4,-16 1,-8 5,-9 9,-13 -2,8 -5,16 5,18 1,-3 4,-4 6,-6zm106 -213l2 -3c11,5 14,12 30,8 0,6 -4,6 -9,5 0,0 0,1 0,1l-1 0c-3,5 -3,13 -11,14 -2,-10 -1,-22 -11,-25zm29 20c1,0 1,0 2,0 -1,1 -1,1 -2,1 0,0 0,-1 0,-1zm-257 309c-8,6 -16,13 -24,19 -2,-2 -5,-5 -8,-6 10,-6 18,-11 24,-19 3,2 5,4 8,6zm-129 99c-35,23 -70,46 -107,67 -20,11 -41,23 -61,33 1,-2 2,-5 1,-10 -14,5 -9,-10 -18,-10 -2,9 -4,21 0,29 -42,21 -84,40 -127,57 -1,-1 -2,-3 -2,-4 7,-5 14,-11 21,-15 -4,-6 -16,-4 -11,-18 -7,0 -15,0 -22,0 -3,-13 14,-8 14,-18 0,0 -1,-1 -2,-1 61,-26 122,-55 181,-89 21,-13 43,-26 64,-40l20 6c3,-8 -1,-13 -7,-14 6,-4 12,-8 18,-12 -1,1 -3,3 -4,5 5,5 20,4 25,-1 -1,-3 -2,-6 -2,-10 1,2 3,3 5,5 5,-10 13,-18 17,-28 23,-17 46,-34 68,-53l5 1c0,-1 -1,-2 -1,-3 7,-7 15,-13 22,-19 -8,9 -15,19 -9,30 -5,2 -11,2 -19,-2 8,11 9,39 -8,30 -3,15 24,3 22,22 -12,0 -13,-7 -21,-10 0,7 11,7 3,17 -8,-2 -12,2 -18,3 -1,-1 -4,-2 -6,-2 -5,5 -5,17 0,23 -1,0 -1,1 -2,1 -8,5 -14,-5 -22,-10 -12,12 -24,24 -18,39l1 1zm-352 182c-319,118 -659,128 -973,42 8,-3 15,-7 20,-15 -3,-4 -4,-9 -5,-14 -17,-6 -22,5 -40,-4 -4,12 -8,14 -15,22 -12,-4 -24,-8 -36,-12 0,0 -1,-1 -1,-2 1,-8 9,-7 10,-16 6,1 5,4 5,8 7,-5 14,-9 20,-17 -1,-9 -13,-2 -18,-5 7,-1 11,-7 16,-13 324,102 680,97 1012,-29 8,16 14,33 3,53 1,1 1,1 2,2zm-1116 -4c-9,-4 -19,-7 -28,-11 4,-1 8,-2 12,-2 -3,-13 2,-30 -4,-42 8,-10 12,16 20,6 2,6 8,10 4,20 9,5 7,2 18,4 4,8 -3,17 -6,24 -8,-6 -11,-5 -16,1zm-37 -15c-9,-3 -18,-7 -27,-11 7,0 10,-6 18,-4 8,3 11,7 9,15zm-31 -13c-76,-32 -150,-71 -220,-115 1,-1 1,-2 1,-4 -2,0 -4,0 -6,1 -31,-20 -61,-40 -90,-62 1,-22 1,-44 6,-62 93,72 193,132 299,180 -2,0 -4,2 -4,7 3,1 6,1 9,2 0,-2 1,-4 2,-6 8,4 17,7 25,11 0,11 -1,21 -11,31 -11,-1 -1,-13 -12,-13 -7,8 -18,10 -26,15 8,2 19,16 30,5l-3 10zm79 -25c8,3 15,6 23,8 -1,3 -2,5 0,8 3,-1 5,-3 7,-5 3,1 5,2 8,3 -5,8 -9,17 -16,20 -1,-14 -17,-20 -23,-31 0,-1 0,-2 1,-3zm-443 -192c-19,-15 -37,-31 -55,-46l49 -29c10,9 21,18 32,27 -1,1 -1,1 -2,2 3,2 5,3 7,2 3,3 7,6 10,8 -1,3 -1,6 0,10 -19,-4 -22,13 -36,6 1,7 0,16 -5,20zm2040 -113c4,-3 7,-7 11,-10 2,1 3,2 5,4 -3,2 -6,5 -7,10 -4,-2 -7,-3 -9,-4zm-1804 -2539c4,-2 7,-4 11,-6 4,4 8,7 10,17 6,-17 19,4 28,-1 8,-10 10,-18 2,-25 -14,3 -3,19 -21,13 -4,-4 -4,-8 -4,-12 10,-5 21,-10 31,-15 -2,1 -4,3 -7,7 18,-1 35,-11 52,-19 -11,-9 -17,4 -27,3 16,-7 31,-14 47,-21 8,22 28,-5 45,8 -14,16 -31,30 -43,5 -16,20 -17,28 -28,34 13,-12 0,12 -5,17 3,1 5,3 8,5 -22,10 -44,21 -65,33 -3,-12 -12,-16 -23,-6 -3,-12 -5,-25 -11,-37zm129 -62c3,-2 6,-3 9,-4 -3,3 -6,4 -9,4zm38 -16c11,-5 22,-9 34,-13 -10,6 -29,14 -22,22 -11,-3 -13,-6 -12,-9zm62 -24c36,-12 72,-24 108,-33 5,2 10,0 12,-4 11,-3 21,-5 31,-8 -5,7 -9,16 -12,30 -14,-10 -24,1 -34,11 17,14 17,11 9,24 -41,12 -82,25 -123,40 2,-6 6,-13 13,-19 -8,-13 -29,-4 -23,-15 9,-13 24,5 33,-11 -4,-5 -10,-10 -14,-15zm194 -55l3 0c1,0 1,0 2,1l0 -2c15,-3 29,-6 44,-8 -4,2 -9,2 -13,10 2,1 4,3 6,4 -5,4 -9,9 -13,15 2,7 8,6 15,4 0,1 0,2 1,3 -6,5 -10,14 -15,22 -18,3 -36,7 -54,12 3,-9 7,-17 4,-24 -4,3 -26,12 -20,0 18,5 40,-40 50,-7 9,-12 -8,-19 -10,-30zm46 27c0,-2 1,-3 1,-4 2,0 4,0 5,0 -2,1 -5,2 -6,4zm20 -35c-2,0 -4,-1 -6,-3 3,-1 6,-1 9,-2 -1,2 -2,4 -3,5zm79 -16c32,-4 64,-7 97,-8 0,3 1,6 3,9 -6,11 -12,20 -14,27 8,-8 22,-7 34,-2l-1 3c3,1 6,1 8,1 5,4 9,8 11,13 -12,0 -25,1 -37,2 -1,-8 -6,-14 -13,-10 3,3 2,7 0,10 -9,1 -19,2 -28,3 -1,-4 -1,-8 0,-12 9,2 15,1 17,-6 -1,-3 -4,-4 -3,-8 -13,7 -25,15 -42,17 2,4 2,7 3,11 -11,1 -22,2 -33,4 -3,-4 -7,-8 -12,-10 0,4 -1,8 -1,11l-4 1c-3,-9 3,-20 6,-27 11,6 14,4 20,-5 -5,-7 -13,-12 -11,-24zm-27 57l-7 1c2,-2 4,-3 6,-5 0,2 1,3 1,4zm195 -68l1 0c2,1 4,3 6,4 -3,5 -5,7 -8,7l1 -11zm-25 3c0,0 0,0 0,0l0 0 0 -1 0 1zm103 -2c14,0 28,1 42,2 -1,3 -1,6 0,9 1,-3 4,-6 7,-9 49,4 98,9 146,17 -5,4 -10,7 -10,17 15,-2 7,13 17,14 3,-8 7,-20 5,-29 47,7 94,18 140,30 3,9 -3,21 -10,28 6,6 6,15 6,26 -107,-29 -218,-46 -330,-51 8,-15 21,-6 30,-15 -20,-2 -20,-12 -21,-27 -4,3 -8,2 -12,-2 -14,10 -14,37 -22,32 -9,-15 -1,-35 12,-42zm377 59c118,33 232,79 340,139 -1,0 -3,1 -6,4 10,14 20,14 38,14 35,20 69,42 102,65 0,1 -1,3 -1,6 3,-1 6,-1 8,-2 3,3 7,5 10,7 0,1 0,1 0,2 1,0 1,0 1,-1 18,13 35,26 53,39 -4,5 -5,14 -12,14 -19,-6 -16,-25 -29,-35 -6,4 0,6 1,11 -16,-7 -11,21 -24,6 -11,-7 -19,-4 -24,6l5 3c0,-5 1,-10 5,-9 9,6 8,18 17,24 11,-9 -6,-10 -3,-24 13,-2 -4,-22 11,-11 0,-3 1,-6 2,-8 -10,0 -11,-6 -15,-9 -5,6 -8,11 -9,15 -7,2 -8,-4 -17,-1 1,-5 0,-22 -10,-17 9,4 1,17 1,27 -21,-14 -41,-27 -62,-40 2,-3 4,-5 4,-11 -7,-2 -15,-5 -17,2 1,0 1,1 2,2 -14,-8 -28,-16 -42,-24 -1,-1 -2,-2 -4,-2 -110,-62 -227,-110 -348,-144 0,-5 -1,-10 -3,-15 25,5 23,-17 26,-33zm559 285c12,9 24,18 35,28 -3,2 -8,2 -12,-4 1,9 -15,7 -9,12 1,-1 2,-3 4,-2 9,11 21,9 30,5 4,3 8,7 12,10l-49 28 -3 -3c-1,-4 -4,-8 -11,-11 0,1 0,2 0,2 -3,-2 -5,-4 -8,-6 1,0 2,0 3,1 -3,-11 -14,-24 -26,-23 1,1 1,3 1,4 -7,-6 -14,-11 -22,-17 6,-9 12,-12 7,-24 17,-5 16,11 24,19 7,-12 17,-2 27,-5 0,-9 -12,-5 -13,-9 2,-4 9,-1 10,-5zm-927 -291c-4,0 -8,0 -13,0 3,-7 8,-13 15,-15 -4,6 -4,11 -2,15zm-71 -1c-13,0 -26,0 -39,1 -2,-5 -4,-9 -7,-14 12,5 23,7 34,9 7,-11 9,-21 10,-30 7,-3 13,-6 20,-9 0,1 0,3 -1,5 -13,4 -19,25 -17,38zm-360 44c-3,1 -5,2 -8,2 0,-3 -1,-6 -1,-7l9 5zm-211 69c-13,5 -25,10 -37,15 0,-1 -1,-2 -1,-3 5,-18 41,2 12,-19l0 0c7,-13 20,8 26,-9 5,-2 4,6 0,16zm-58 25l-2 0 1 -1 1 1zm-162 85c-17,10 -34,21 -51,32 3,-14 2,-28 13,-44 9,9 15,-2 26,10 15,-11 -13,-13 2,-24l0 0c7,10 10,18 10,26zm-95 62c-10,7 -20,15 -31,22 -8,2 -22,3 -29,-8 -4,6 -8,12 -12,18 5,4 9,9 10,14 -6,5 -12,10 -18,15 -9,-6 -6,-32 -23,-22 6,6 12,18 18,26 -21,17 -41,34 -61,52 0,0 0,-1 0,-2 -12,-13 -19,-2 -29,-5 3,-8 13,-16 7,-22 -23,10 -4,28 5,45 -15,14 -29,28 -43,42 1,-7 7,-14 1,-19 -14,-1 -15,19 -8,26 -18,18 -35,37 -52,56 -7,-2 -10,-5 -18,-15 -4,9 -7,18 -2,25 3,-3 7,-2 11,0 -16,19 -31,38 -46,57 -10,-6 -2,-28 -17,-18 12,9 -4,24 4,35 2,-5 5,-9 8,-11 -14,17 -27,35 -40,54 -1,-7 -5,-12 -9,-11 8,5 -24,17 -6,29 1,0 1,0 2,0 -29,43 -57,87 -81,133 -3,1 -6,1 -8,1 2,2 4,3 4,5 -1,3 -3,5 -4,8 -1,1 -3,2 -2,4 -3,5 -6,11 -8,16 -12,4 -24,11 -36,16 5,4 10,8 3,15 5,2 10,3 15,5 -9,17 -17,34 -24,52 -9,3 -18,4 -27,-2 2,-12 -4,-22 -17,-31 0,-1 1,-2 1,-3 3,-3 4,-6 4,-8 2,-5 4,-9 6,-14 19,15 15,-8 15,-17 8,3 11,0 14,9 15,-15 -19,-20 -4,-35 15,7 51,18 47,-2 -12,14 -29,-14 -29,-26 -4,5 -5,2 -7,-1 33,-62 70,-122 111,-179 5,9 -12,23 0,31 27,-31 22,-66 51,-58 -10,-7 -4,-24 -3,-36 9,-11 18,-22 27,-33 1,1 4,2 6,3 -14,10 -12,27 -31,38 29,-4 31,-27 54,-43 -10,-6 -11,-10 -13,-17 47,-55 98,-106 153,-154 33,24 6,-37 45,-11 1,-22 0,-13 18,-27 -3,-4 -5,-7 -8,-9 4,-3 8,-6 11,-9 2,3 3,5 3,9 7,-5 37,4 29,-14 -16,17 -15,3 -14,-9 25,-19 51,-37 77,-55 16,17 25,-1 40,6 -12,20 -26,19 -35,4 -7,16 -21,1 -27,21 30,9 23,24 22,34zm-375 288l2 -1c0,0 1,2 1,3 -1,-1 -2,-1 -3,-2zm-174 422c-3,8 -6,16 -9,24 -8,2 -17,0 -25,-10 9,-15 24,-17 34,-14zm-12 32c-2,6 -4,12 -6,19l0 -1c-4,4 -5,7 -5,11 -4,-2 -8,-2 -14,0 -4,-8 -8,-16 -20,-23 13,-11 29,-11 45,-6zm-65 248l0 1 0 0 0 0c0,0 0,-1 0,-1zm-51 -10c2,-1 4,0 5,1l0 2c-2,-1 -3,-2 -5,-3zm21 44l1 1c-3,7 -11,7 -18,6 5,-1 11,-4 17,-7zm-16 -79c7,-32 14,-64 23,-96 0,1 0,2 2,3 9,-9 24,2 31,-18 -10,-12 -11,-13 -24,-17 0,-3 1,-5 2,-7 7,-11 1,-20 13,-22 -3,0 -5,0 -7,-1 4,-11 8,-23 12,-34 7,3 15,6 22,14 -18,19 3,20 2,27 -3,5 0,8 -2,12 -1,1 -3,0 -5,0 2,-3 4,-9 2,-18 -25,-1 -24,11 -16,18 -2,1 -3,3 -3,5 19,28 -5,45 -1,72 -14,-4 -25,8 -38,8 10,17 9,21 18,12 15,22 -7,38 -31,42zm68 -240c4,-10 8,-21 12,-31 1,0 2,0 2,-1l0 0c11,21 17,5 31,-6 3,2 6,4 9,6 -3,3 -1,6 2,8 -15,8 -24,23 -37,35 -9,3 -16,-3 -19,-11zm34 -84c1,-3 2,-5 4,-8 1,-1 2,-1 3,-1 -2,4 -5,7 -7,9zm30 -66l1 -2c0,1 0,2 0,2 0,0 0,0 -1,0zm19 -38c1,-1 2,-2 2,-3 1,1 0,2 -2,3zm-127 328c1,-3 2,-7 3,-11 1,4 2,7 4,9 -3,-1 -6,0 -7,2zm21 753l97 -56c6,2 13,4 21,3 -4,7 -6,15 -10,22 12,-13 13,6 26,2 5,-2 -1,-9 3,-10 4,5 9,8 15,8 2,-10 13,-9 22,-8l-182 105c-22,13 -37,33 -44,56 -24,-4 -54,2 -50,-18 1,-3 2,-5 3,-8 0,-1 1,-2 1,-3 9,7 36,9 36,-8 -10,7 4,-28 -11,-25 3,7 -1,11 -5,14 -2,-2 -6,-2 -9,-3 12,-20 29,-37 51,-50 6,18 15,31 42,19 -9,-9 -2,-27 -6,-40zm204 -118l173 -100c2,1 3,2 4,3 0,-3 2,-5 5,-5 0,-1 -1,-1 -1,-2l177 -102c2,0 5,0 8,-1 1,-2 1,-3 1,-5l18 -10c1,3 3,6 4,9 6,-4 8,-10 9,-17l31 -17c8,2 15,0 23,2 0,14 20,22 16,37l-1 0c-1,0 -3,1 -4,2l-2 2c-6,-19 -19,-21 -18,-41 -17,7 -20,20 -22,35 5,-1 9,-1 12,1 0,6 2,11 8,16l-20 11c-4,-2 -10,0 -10,-10 10,-1 12,-6 8,-15 -12,13 -20,-5 -35,-2 -8,9 -16,30 -34,23 -4,2 -4,6 -7,8 1,13 9,12 12,22 -7,4 -7,-4 -13,-3 1,8 10,12 11,17l-5 3c-2,-3 -3,-6 -7,-3 0,2 -2,5 -1,8l-156 89c-2,0 -4,0 -6,1l0 3 -53 31c-30,8 -66,-7 -90,-4 4,1 18,5 12,9 -18,8 -33,8 -47,5zm451 -199l-3 2c0,-1 0,-1 1,-2 0,0 1,0 2,0zm-467 270l-10 6c-1,-5 1,-8 7,-9 1,1 2,2 3,3zm-229 247l260 451c-9,-3 -18,-4 -22,6 12,5 15,-3 24,-3l1 2c-5,8 7,6 3,14 -7,4 -7,-4 -18,-4 -1,3 -1,6 -2,9 6,6 18,-3 27,-1l16 27c-6,-2 -8,3 -16,0 -4,9 17,17 20,8 -2,-1 -2,-3 -2,-5l26 45c5,9 11,16 18,22 -5,0 -11,0 -18,0 0,-4 8,-14 1,-15 -8,-4 -11,16 -19,1 9,14 1,27 5,39 10,-4 4,-16 20,-14 9,17 31,19 43,8 24,8 51,6 74,-8l52 -29c13,7 22,16 19,38 5,1 9,2 13,4l-57 33c-28,16 -59,22 -89,19 7,-18 20,-25 17,-42 -3,6 -16,-2 -18,-5 6,15 -1,15 -9,26 4,7 1,10 -2,19 -39,-8 -75,-32 -96,-70l-5 -7c11,0 17,9 27,0 -13,-2 0,-10 1,-15 -3,-1 -6,-2 -9,-2 -1,7 3,10 -6,10 9,-17 -14,0 -8,-14 -9,-5 -9,5 -14,5l-79 -138c1,-1 2,-2 3,-3 -3,-2 -4,-5 -9,-6l-214 -372c1,-1 2,-2 4,-4 1,-6 -4,-15 0,-19 18,-2 21,-11 26,-20 1,7 -2,14 5,17 3,-2 5,-4 7,-7zm-58 4c-2,-5 -4,-11 -5,-16 4,3 8,7 12,10 -2,3 -4,5 -7,6zm-9 -36l0 -1c0,0 1,1 1,1 0,0 -1,0 -1,0zm0 -39c1,-4 1,-7 2,-10 5,1 9,6 13,10l0 0c-5,-1 -10,1 -15,0zm586 609l122 -71c-5,22 -8,47 -17,67 -5,2 -14,-1 -15,8 1,1 1,3 2,4l-59 34c0,-9 2,-17 9,-22 -2,-19 -10,-19 -27,-26 -2,11 -10,11 -16,14 1,-5 1,-7 1,-8zm155 -90l107 -62c3,2 6,3 10,1 1,-3 0,-5 -1,-6l176 -102c5,1 5,0 11,4 3,-16 20,-7 22,-23l187 -108c1,4 -3,11 4,12 11,-10 24,-5 19,-25l2 -1c8,1 9,6 15,7 11,-4 12,-14 11,-22l120 -69c0,6 5,9 13,10 3,-8 0,-12 -7,-14l208 -120c-9,16 -23,23 -33,39 6,5 3,15 11,19 1,-17 18,-7 24,-14 2,-24 17,-33 11,-51l204 -118c4,8 7,13 10,25 8,-4 12,-15 24,-14 -2,7 -4,13 -5,19l17 5 -137 79c-2,-6 -6,-10 -5,-17 -17,-7 -39,-20 -48,-1 16,7 20,-5 33,-3 -9,12 8,10 2,20 -8,6 -8,-5 -22,-6 -1,4 -2,8 -3,12 8,8 24,-5 36,-1l-300 173c-3,0 -6,2 -8,4l-28 17 -2 -1c0,1 0,1 0,2l-11 6c1,-2 2,-4 2,-7 -17,-3 -21,14 -33,19 1,2 2,3 3,5l-27 15c-2,-4 -6,-7 -10,-10 -1,2 -4,3 -6,3 -16,-7 -26,14 -21,26 1,1 2,1 2,1l-45 26c6,-10 6,-29 -8,-23 4,7 5,15 6,25l-14 8 0 -1c-10,-4 -20,-5 -32,1 0,-7 -7,-10 -7,-18 0,-11 7,-13 9,-22 -19,14 -47,16 -50,46 -5,-3 -3,-10 -13,-10 -7,16 13,17 7,33 -15,-16 -15,22 -30,5 -6,12 -33,26 -16,39 10,-8 16,-6 16,-24 11,3 16,-5 22,-12 8,0 15,1 21,5l-63 36c-3,-5 -6,-10 -13,-12 -3,9 -9,13 -10,25l-196 113c-1,-1 -2,-2 -4,-3 -1,2 -2,5 -2,7l-5 3c-5,-16 -20,-12 -30,-26 -25,5 -40,27 -58,44 14,-4 20,14 13,25l-107 62c1,-17 6,-32 17,-45 -3,-1 -8,-1 -8,-5 2,-15 15,-16 23,-30zm590 -281c0,-2 0,-4 1,-6 0,2 0,4 -1,6zm-98 58l-21 12c-6,-3 -10,-9 -7,-18 7,-6 19,18 27,4l0 0c0,1 1,2 1,2zm60 -96l3 -2c0,2 -1,3 -2,3l-1 -1zm-519 -714l28 -16c0,6 0,13 -9,24 -5,-3 -8,0 -12,-1 -3,-3 -5,-5 -7,-7zm47 -27l5 -3c2,4 4,7 5,10 -4,-2 -7,-4 -10,-7zm32 -18l9 -5c12,10 18,-2 25,-15l25 -14c7,3 10,-1 12,-7l34 -20c-4,20 -2,41 4,47 -3,5 -8,3 -11,6 13,12 21,0 29,-14 -6,-10 -25,4 -19,-12 11,6 18,-5 25,-17 -1,-10 -14,-7 -21,-14l204 -118c6,7 11,14 14,23 12,4 8,-16 24,-8 -3,12 1,18 12,18l-290 167 -24 -15c-8,16 -17,29 -30,26 22,21 -19,9 -23,25 5,0 9,0 12,2l-22 13c1,-16 6,-39 18,-37 -3,-10 -14,-19 -7,-31zm375 -217l49 -28c-7,15 -24,15 -28,33 6,8 9,2 19,3 1,-18 14,-24 21,-43l57 -33c9,-1 17,-6 24,-14l87 -50c2,9 16,9 15,-4l-7 -1 27 -15c7,2 9,-4 13,-7l3 -3c2,0 3,0 5,0l0 0 0 0c2,1 3,1 6,2 0,0 0,-1 0,-1 6,-1 11,-3 18,-3 -6,-4 -7,-7 -6,-10 7,-5 20,11 22,-7 -4,-2 -6,-2 -8,-1l132 -77c1,3 2,4 7,1 0,-2 -1,-3 -1,-5l51 -29c1,1 2,2 3,3 0,-2 0,-3 0,-5l94 -54c3,6 7,10 13,13 13,-1 15,-15 17,-30l8 -5c2,8 9,13 15,6 -10,-4 -5,-6 -3,-13l14 -8c4,18 -4,33 24,46 -7,-16 -7,-37 -18,-49l235 -136c-1,4 0,9 3,12 1,-3 2,-6 3,-9 4,3 9,4 12,-1 -2,-3 -4,-6 -7,-7 0,-1 0,-1 0,-1l25 -15c16,11 26,2 50,-1 1,11 -9,7 -10,14 9,1 12,5 10,14 -2,3 -4,6 -5,9l-409 236c-1,-3 -3,-6 -7,-7 1,4 1,7 2,10l-151 87c-1,-3 -4,-5 -8,-8 -2,6 -7,11 -5,15l-73 42c-1,0 -3,0 -5,0 -2,2 -3,4 -4,6l-166 96c1,-3 3,-5 4,-6 -9,2 -18,4 -21,16l0 0 -32 18c-1,0 -2,0 -2,0 -1,0 -1,1 -1,2l-67 38c-9,0 -18,0 -28,0 1,5 3,9 7,13l-31 17c-7,-20 18,-20 22,-39 -3,-7 -11,-17 -14,-27zm1039 -600l2 -1 0 0c0,1 -1,1 -2,1zm65 -37l41 -23c12,1 24,13 31,-6 -3,-5 -10,0 -10,-7l10 -6c1,0 2,0 3,-1l25 -14c4,-1 8,-2 12,-2 -1,-2 -2,-3 -4,-3l100 -58 1 0c0,1 0,2 1,4 9,1 15,-1 19,-7 -4,-1 -6,-3 -8,-5l5 -3c12,9 23,19 33,23 -3,-3 -12,-12 -6,-13 17,1 29,7 38,15l-40 23c-10,-7 -21,-13 -26,1 2,1 2,3 1,6 4,0 8,0 11,0l-89 52c-11,-7 -12,-21 -30,-23 -4,9 -4,18 2,29 -7,0 -9,7 -16,7 -10,0 -12,-6 -21,-7 6,7 10,16 14,23l-13 8 -10 -2c-1,3 0,5 1,7l-32 19 2 -10c17,-6 19,-16 32,-30 -11,-8 -29,-10 -40,-11 7,9 -6,40 -20,40 -8,-2 0,-14 -8,-16 0,2 0,4 -1,6 -3,-5 -5,-9 -8,-16zm31 44l-31 17 1 -1c5,-6 12,-10 16,-19 4,-2 9,0 14,3zm280 -207c3,2 7,3 11,4 -4,0 -8,1 -12,0 0,-1 1,-3 1,-4zm24 7c1,-9 6,-14 9,-20 9,4 11,-12 5,-13 0,-1 0,-2 0,-3 -3,-2 -7,-3 -10,-4l50 -29c56,-32 124,-23 169,18l0 0 1 0c11,10 20,22 28,35l12 21c-2,0 -3,2 -4,3 11,0 -16,21 -3,25 2,-7 7,-7 11,-9 2,6 12,8 7,19 -5,8 -17,4 -18,18 15,-1 23,3 37,11 1,-3 2,-7 3,-10l16 27c-2,3 -3,5 -5,6 -6,-3 -5,-10 -11,-13 -5,-1 -3,8 -8,9 2,4 9,6 9,11 -4,12 -16,6 -13,22 -5,-1 -2,-8 -10,-8 -1,8 4,12 8,16 -2,1 -5,1 -7,1l-70 -122c-6,-10 -13,-19 -22,-25 5,0 9,-1 12,-4 -9,1 -4,-8 -13,-8 -1,3 -3,4 -4,7 -29,-19 -67,-22 -98,-4l-54 31c-4,-1 -9,-5 -13,-8 -1,6 -4,9 -10,7 -1,-3 -2,-5 -4,-7zm325 111l6 9c-3,0 -6,0 -8,-2 0,-2 1,-5 2,-7zm10 18l5 7c-1,0 -3,0 -4,0 -2,-4 -2,-5 -1,-7zm33 56l6 11c-5,2 -8,-4 -7,-11l0 0 1 0zm36 62l6 10c-3,1 -7,1 -11,0 0,-6 3,-7 5,-10zm14 24l4 7c-2,1 -4,2 -6,3 -5,-4 -2,-7 2,-10zm10 18l4 7 -1 5c-7,-1 -6,-7 -6,-13l0 0 3 1zm11 20l17 29c-2,6 -1,10 4,12 0,-1 1,-2 1,-3l11 19c-2,2 -4,5 -7,8 4,13 9,25 15,37 2,-6 8,-7 11,-13l82 142c31,54 23,120 -15,165 -7,-1 -13,-2 -16,2 -3,-15 -31,-9 -28,-23 -10,-1 4,12 -8,7 1,-4 1,-7 1,-10 33,-28 42,-76 20,-115l-134 -232 1 -5c-2,0 -3,0 -5,-1l-13 -23c18,1 34,-6 49,9 0,10 -11,1 -11,11 8,6 10,16 15,24 1,-8 14,-18 3,-28 4,1 7,2 11,3 2,-8 -2,-11 -4,-15zm38 64l7 14c-5,-3 -10,-7 -10,-14l3 0zm-115 -91l-3 -5c5,-1 9,-5 9,1 -1,2 -3,4 -6,4zm-6 -11l-6 -11c1,-1 2,-2 3,-2 0,-4 -6,-10 -10,-10l-62 -107c1,0 3,0 6,0 0,5 2,8 3,12 12,-7 25,17 34,8 5,2 0,10 3,12 19,5 24,10 37,14 -1,2 -1,4 -1,5 -1,10 -11,3 -14,9 8,7 15,15 17,26 5,-2 5,-12 11,-12 3,7 11,11 10,20 -8,-1 -13,4 -21,3 -9,0 -1,-11 -11,-11 5,11 4,27 14,35 -3,12 -3,-6 -13,-3 -1,5 1,7 0,12zm-547 -136l-11 6c2,-4 2,-7 -3,-9l0 0c7,-4 11,-2 14,3zm735 585c-7,6 -15,12 -24,17l-164 95c-1,0 -1,-1 -2,-1 0,1 0,2 0,2l-37 21c-11,-8 -22,-19 -34,-10 -3,17 -1,22 3,29l-20 11c0,0 -1,-1 -1,-1 1,-5 3,-8 6,-10 -17,-4 -24,9 -33,19 4,1 6,2 8,4l-25 14c4,-10 10,-14 2,-22 -6,5 -29,11 -19,27 3,-11 7,-6 11,-1l-6 3c-1,-1 -1,-2 -1,-3 -2,2 -3,3 -3,5l-181 105c-1,-1 -1,0 -1,0l-14 8c-2,-1 -4,-2 -6,-3 -1,-3 -4,-5 -6,-8 -2,4 -5,4 -5,10 3,1 7,2 11,3l0 -1c1,1 1,1 2,2l-31 17c-5,-4 -2,-13 -13,-14 -2,6 -3,12 -5,19 2,0 5,1 7,2l-29 17c-1,-1 -2,-1 -3,-2 -4,2 -6,5 -7,8l-151 87 -114 65c-1,-7 -6,-14 -19,-22 3,10 4,20 5,30l-256 148c12,-8 20,-20 13,-29 -7,19 -19,28 -36,30 -14,-13 -26,-5 -50,-5 0,-11 9,-6 11,-13 -3,-1 -6,-2 -8,-4l314 -181c2,2 5,4 8,5 2,-4 3,-8 3,-12l386 -222c0,4 2,7 7,9 3,-6 1,-10 -1,-13l13 -7c-1,2 -4,5 -4,11 3,0 5,1 8,2 4,-4 2,-10 0,-15l24 -14c0,1 -1,2 -1,3 5,2 9,-3 10,-9l27 -15 1 0 0 -1 16 -9c2,2 3,5 -3,8 12,-8 24,-1 35,-6 -4,-8 -13,-3 -13,-13l48 -28c-1,2 -3,4 -4,6 10,0 5,10 8,14 23,8 32,-9 48,-15 -10,-3 -2,-16 -11,-19 -7,10 -16,16 -28,17 1,-4 -2,-6 -2,-9 6,-2 16,-4 17,-10l154 -89c1,2 2,4 1,7 7,2 10,-2 10,-9l-5 -1 80 -46c3,1 7,4 11,7 26,-14 41,-5 68,5zm-901 -490l-4 2 0 -3 4 1zm-30 18l-11 6c1,-14 6,-27 15,-28 6,8 -3,11 -4,22zm-229 1145l-18 11c-3,-1 -5,-2 -6,-6 8,1 16,-1 24,-5zm-98 57l-45 26c7,-14 25,-10 30,-26 -2,-5 -13,-5 -8,-14 5,-2 11,-3 19,1 -5,8 -2,11 4,13zm-1199 19l1 2 -16 275 25 43 188 -109 -24 -43 -131 75 0 -1 14 -275 -24 -43 -189 109 25 42 131 -75zm199 -172l-51 30 67 343 46 -27 -17 -86 102 -59 66 59 51 -30 -264 -230zm108 166l-74 43 -26 -129 2 -1 98 87zm229 -142c14,-8 30,-4 38,11l18 31c9,15 5,30 -10,39l-57 33c-15,8 -31,4 -39,-11l-12 -20 -49 29 10 17c24,42 69,54 110,30l66 -38c41,-24 53,-69 29,-110l-15 -26c-24,-42 -69,-54 -110,-30l-57 33c-15,9 -31,5 -39,-10l-17 -29c-9,-15 -5,-31 10,-39l51 -30c15,-8 31,-4 39,11l12 20 49 -29 -10 -17c-24,-42 -69,-54 -110,-30l-59 35c-42,23 -54,68 -30,109l14 25c24,41 69,53 110,29l58 -33zm247 21l49 -28 -141 -244 82 -47 -25 -43 -213 123 25 43 82 -48 141 244zm82 -429l-51 29 67 344 47 -27 -18 -87 102 -59 66 59 51 -30 -264 -229zm109 166l-75 43 -26 -130 2 -1 99 88zm223 24l51 -29 -73 -341 -46 27 57 259 -1 1 -195 -180 -51 30 258 233zm179 -486l-176 102 165 287 181 -104 -25 -43 -131 76 -46 -80 118 -69 -24 -42 -119 68 -45 -79 127 -73 -25 -43zm256 235l-114 -196 2 -1 227 131 49 -28 -166 -287 -49 28 113 196 -1 1 -227 -131 -49 29 166 287 49 -29zm356 -206c42,-23 54,-68 30,-109l-85 -148c-24,-41 -69,-53 -110,-29l-74 42c-41,24 -53,69 -30,110l86 148c24,41 68,53 110,29l73 -43zm-28 -40l-66 38c-15,9 -30,4 -39,-10l-88 -153c-8,-15 -4,-30 11,-39l65 -37c15,-9 30,-5 39,10l88 152c9,15 4,31 -10,39z"/>
 </g>
</svg>
