<?xml version="1.0" encoding="UTF-8"?>
<!DOCTYPE svg PUBLIC "-//W3C//DTD SVG 1.0//EN" "http://www.w3.org/TR/2001/REC-SVG-20010904/DTD/svg10.dtd">
<!-- Creator: CorelDRAW X6 -->
<svg xmlns="http://www.w3.org/2000/svg" xml:space="preserve" width="92.407mm" height="90.4997mm" version="1.0" style="shape-rendering:geometricPrecision; text-rendering:geometricPrecision; image-rendering:optimizeQuality; fill-rule:evenodd; clip-rule:evenodd"
viewBox="0 0 3251 3184"
 xmlns:xlink="http://www.w3.org/1999/xlink">
 <defs>
  <style type="text/css">
   <![CDATA[
    .fil0 {fill:#009846}
   ]]>
  </style>
 </defs>
 <g id="razítko">
  <metadata id="CorelCorpID_0Corel-Layer"/>
  <path id="final" class="fil0" d="M1057 603c19,-11 37,-21 56,-31 4,2 7,2 11,2 3,-3 4,-6 3,-9 3,-1 6,-2 8,-3 8,4 16,4 24,8 -29,2 -27,28 -37,48 14,-4 17,-17 24,-17 4,3 4,8 4,12 -6,3 -11,6 -17,9 -3,0 -7,0 -11,-4 -5,15 -15,7 -20,20l1 0c-8,4 -15,8 -22,12 -25,14 -48,29 -71,45 -5,-21 -16,-42 21,-58 6,4 12,8 18,12 4,-17 4,-30 8,-46zm815 2095c-4,-12 -9,-23 -29,-17 1,-13 23,-15 25,-1 6,-3 6,-12 10,-18 9,8 -3,28 -6,36zm1174 -418c-16,-6 3,-13 0,-26 14,3 4,19 0,26zm-329 -497c-3,0 -7,0 -11,0 2,-24 17,-32 14,-51 9,0 11,-7 18,0 -1,23 -27,21 -21,51zm-53 264l0 0c-3,-7 5,-25 -8,-21 -4,3 -12,21 -3,25 0,-4 5,-4 11,-4zm503 -657c-1,8 -6,9 -9,14 -5,-4 2,-18 9,-14zm-155 -708c1,8 -5,6 -6,12 -6,-9 -22,3 -19,-12 3,0 4,1 4,3 4,0 4,-6 6,-10 2,4 8,5 15,7zm-7 29c1,9 -8,4 -10,9 -7,-5 3,-14 10,-9zm-23 -11c-5,-10 -16,-17 -15,-31 4,-1 8,-3 10,-7 10,12 1,22 5,38zm-182 742c-5,-9 -8,1 -16,-1 0,-6 -10,-5 -6,-13 13,5 -3,-16 13,-8 0,-8 -3,-4 -10,-5 1,-3 1,-6 2,-8 5,0 12,12 14,0 11,12 -6,18 3,35zm-159 57c-1,5 -8,1 -8,9 -8,-2 -20,-3 -23,-8 4,-6 15,-3 19,-10 9,0 3,9 12,9zm4 -1100c-2,5 -12,-3 -10,9 -7,-5 -8,-5 -16,-4 5,-4 9,-8 3,-13 6,-6 22,2 23,8zm-116 167c-8,-6 -13,0 -19,-6 1,-4 2,-8 3,-11 6,0 11,-2 19,1 4,6 -4,7 -3,16zm-26 12c-1,11 -18,0 -12,-9 9,0 4,9 12,9zm-67 35c-4,4 -9,7 -9,18 -9,-6 -21,-10 -21,-22 4,-3 14,3 13,-8 8,2 11,8 17,12zm607 132l0 0c-1,3 -2,7 -3,11 7,2 12,1 13,-6 -5,-1 -8,-3 -10,-5zm-77 -136l0 0c-6,11 6,20 9,11 -7,-1 1,-11 -9,-11zm-10 35l0 0c7,-7 1,-12 7,-19 -8,-2 -16,16 -7,19zm-818 -554c10,1 16,4 13,14 -7,-1 -9,4 -16,2 1,-5 2,-11 3,-16zm-1118 574c16,9 -5,12 -4,26 -14,-5 -1,-20 4,-26zm935 220c18,-2 13,12 29,12 -9,20 -22,-6 -39,2 -3,-13 13,-1 10,-14zm0 23c-2,12 -11,15 -25,12 2,-12 11,-16 25,-12zm-428 218c6,2 8,7 5,16 -4,-1 -7,-1 -11,-2 -1,-8 4,-9 6,-14zm-232 123c11,10 25,18 30,32 -10,-1 -21,2 -26,19 -31,-9 -13,-30 -4,-51zm-912 550c0,-9 5,-14 14,-17 5,2 7,9 8,16 -10,5 -13,-3 -22,1zm66 -23c-5,-8 6,-8 2,-16 13,0 11,-4 22,-10 9,18 -7,22 -24,26zm38 -52c3,-1 6,-2 9,-3 3,6 0,9 0,13 -5,1 -8,-3 -9,-10zm11 16c9,-4 15,-1 18,7 -9,3 -15,1 -18,-7zm22 -32c10,-1 13,-6 19,-9 4,2 4,7 9,7 -1,11 -5,20 -11,28 -14,2 -23,-15 -17,-26zm-15 -200c-1,-4 -2,-8 -3,-11 10,-6 15,10 3,11zm746 1591c-19,-3 -3,-23 5,-8 -2,2 -4,4 -5,8zm-320 -100c-5,-4 -4,-18 3,-21 8,2 11,8 8,17 -3,2 -9,0 -11,4zm-68 -24c9,-5 16,-12 24,-19 2,6 -5,13 -4,24 -5,3 -17,0 -20,-5zm-371 -213c-11,-3 -9,-15 -13,-22 2,-4 8,-1 13,0 -7,14 12,4 7,20 -4,-1 -6,0 -7,2zm7 -14c-2,-11 23,-9 18,2 -4,2 -11,0 -18,-2zm-234 -224c-6,-1 -2,-9 -10,-9 3,-9 3,-22 10,-25 6,5 2,17 10,21 -1,10 -10,4 -10,13zm885 93c-6,-6 6,-16 13,-12 -1,9 -10,6 -13,12zm28 1c-6,-4 -5,-14 -3,-22 5,1 9,2 14,3 -2,9 -7,13 -11,19zm66 -285c-4,-5 -8,-10 -19,-11 7,-9 12,-22 24,-22 3,5 -4,16 9,15 -3,9 -10,12 -14,18zm177 -118c1,-5 5,-11 1,-13 3,-3 7,-3 13,-2 2,11 3,19 -14,15zm51 -49c10,-14 25,-7 41,-2 -12,13 -25,-3 -41,2zm-439 872l0 0c-6,0 -13,-2 -14,6 4,1 8,2 12,3 1,-3 1,-6 2,-9zm-277 -129c-10,-9 -8,-23 -24,-16 0,-16 23,-19 26,-5 2,1 3,-1 4,-2 0,6 -12,9 -6,23zm436 -555l0 0c-1,-7 10,-19 -2,-19 -4,2 -14,14 -8,19 1,-3 6,-2 10,0zm252 -142c-3,-8 21,-22 26,-15 -4,12 -21,3 -26,15zm-733 -1868c-5,5 -13,2 -18,8 -11,-8 -13,-19 -6,-31 20,-4 10,15 24,23zm-178 113c8,-6 8,5 13,9 -9,17 -22,20 -38,8 9,-12 -1,-14 12,-19 7,15 13,23 13,2zm-148 185c9,17 -2,20 -1,32 -23,7 -12,-28 1,-32zm-79 152c-18,10 -28,5 -55,3 4,-4 4,-8 2,-12 17,1 34,0 53,9zm258 418c13,6 11,16 2,27 -8,-6 -14,-1 -22,-7 14,-3 4,-17 20,-20zm-498 199c5,-3 10,-6 16,-3 -2,4 -2,8 -2,12 1,2 3,3 5,5 -2,3 -2,6 -3,8 1,3 2,7 3,10 -1,1 -1,1 -2,2 0,3 0,6 0,10 3,-2 6,-3 9,-5 1,-5 1,-11 2,-16 -4,-5 -6,-10 -6,-16 2,3 5,4 7,5 0,-3 0,-6 1,-9 -1,1 -2,2 -4,3 -8,-5 -5,-15 4,-17 -1,2 0,5 1,8 1,-8 2,-16 3,-24 -2,3 -3,5 -2,8 -18,-5 -18,-10 -33,11 -16,-7 -8,-19 1,-32 -6,1 -12,4 -18,8 0,-1 -1,-2 -1,-3 -1,10 -2,19 -3,28 7,2 15,4 22,7zm-30 73c-4,53 -5,106 -3,159 3,1 6,2 10,2 6,16 -6,22 -2,38 -2,1 -5,1 -6,0 0,6 0,12 1,19 18,-9 34,42 47,59 -16,3 -20,-30 -35,-14 4,-12 -2,-32 -12,-40 1,17 3,35 5,53 10,1 15,9 24,4 -9,10 -13,37 8,38 1,4 -8,4 -7,8 7,2 11,10 19,11 -11,16 12,13 17,26 -3,1 -5,2 -8,2 1,3 1,6 2,9 3,2 9,3 12,2 -1,-8 -2,-15 -3,-23 -8,-3 -13,-9 -11,-19 3,-1 5,-2 7,-2 -11,-75 -16,-150 -16,-226 -2,2 -5,2 -8,1 -1,-6 3,-8 8,-9 1,-39 2,-77 5,-114l0 -1c-1,6 -6,10 -11,13 -3,-8 3,-7 -4,-12 -5,7 -3,8 -13,8 -2,-14 -13,-10 -18,-17 1,4 6,21 -1,28 -2,-1 -5,-2 -7,-3zm9 310l0 1c0,0 1,0 1,-1 0,0 -1,0 -1,0zm3 26c1,4 1,8 2,12 1,-2 3,-4 5,-6 -2,-1 -5,-4 -7,-6zm50 60l7 -4c-1,-7 -6,-5 -7,-12 -4,5 -17,5 -19,12 7,5 7,-4 16,-2 1,2 2,4 3,6zm-14 -414l-6 -2 0 1c1,2 3,2 6,1zm1077 -915c6,-3 11,-5 17,-8 -4,7 -10,7 -14,11l0 0c-2,-1 -3,-2 -3,-3zm42 -18l3 -1c5,0 8,-2 9,-4 5,-2 10,-4 16,-6 4,7 12,11 24,13 -6,12 -12,17 -20,20l0 -1c5,0 10,-4 9,-10 -7,-2 -12,-2 -17,0 -2,-2 -6,-1 -9,7 -10,-5 -6,-13 -15,-18zm124 -41c2,-1 4,-1 6,-2 0,2 0,3 1,5 -3,0 -5,-1 -7,-3zm135 -28c21,-3 42,-6 62,-7 2,2 4,5 2,10 -3,2 -5,5 -7,9 -4,-5 -8,-15 -17,-8 2,1 2,2 3,3 -1,0 -2,0 -2,0 -6,3 -10,9 -14,14 9,4 12,13 29,12 1,-5 1,-11 6,-11 1,1 3,2 4,3l-6 8c-8,3 -14,8 -21,13 5,0 6,1 6,2 -9,1 -18,2 -28,3 5,-4 6,-9 4,-16 -5,4 -12,7 -19,7 8,-16 -3,-28 -2,-42zm-44 61c-13,3 -27,5 -40,9 -15,-4 -29,-10 -32,2 -5,-16 14,-43 27,-41 11,13 19,18 29,21 -6,2 -11,5 -13,12 8,-2 18,-3 29,-3zm-6 -11c4,-9 9,-13 15,-15 1,10 -6,12 -15,15zm18 -16c8,-1 18,2 31,8 -11,1 -23,-2 -31,-8zm206 -46c53,1 106,5 159,13 2,5 2,12 9,13 2,-4 5,-7 7,-10 33,5 66,12 98,21 0,3 0,7 0,13 17,5 25,-2 39,-2 2,19 3,38 0,55 -102,-32 -208,-48 -314,-49 12,-12 20,-26 20,-39 -2,5 -6,7 -12,6 0,-8 -2,-15 -6,-21zm-126 32c2,-1 3,-2 5,-2 -1,1 -2,2 -3,2 -1,0 -2,0 -2,0zm476 27c62,21 123,48 181,79 1,2 1,4 3,6 4,1 7,1 9,1 3,1 5,2 7,3l-2 2c-4,-1 -7,1 -7,4l-45 25c-54,-28 -110,-52 -168,-71 2,-16 4,-31 8,-44 4,-3 10,-2 14,-5zm-1029 224c-154,119 -268,273 -338,445 -5,-2 -11,-4 -16,-8 4,-11 27,-11 8,-22 -6,16 -17,9 -23,25 7,14 15,19 24,20 -16,41 -29,83 -40,126 -2,-3 -5,-3 -8,2 2,3 2,7 -2,12 1,2 3,4 5,5 -14,57 -23,115 -27,174 -6,5 -10,11 -11,22 3,2 6,4 9,4 0,4 0,8 0,12l-9 5c-1,-2 -5,-4 -8,-6 -4,-10 -6,-18 4,-27 -11,4 -12,-10 -23,-5 -2,10 -8,14 -17,14 6,-110 28,-218 65,-322 0,0 1,0 2,-1 -1,0 -1,-1 -1,-2 5,-14 10,-28 16,-42 2,-1 5,-1 7,0 -3,0 -5,-1 -7,-1 12,-29 25,-58 39,-86 27,-2 49,-31 46,-52 -3,22 -13,17 -25,13 1,-3 3,-6 5,-9 18,1 43,-24 30,-30 -7,6 -15,13 -23,18 4,-8 9,-16 14,-24 12,-14 22,-34 40,-40 -2,-4 -4,-7 -7,-11 7,-9 13,-18 20,-28 14,12 0,19 21,35 5,-10 13,-5 19,-8 -21,-13 -31,-24 -34,-35 14,-18 28,-36 42,-53 11,1 23,5 32,-3 -12,-4 -14,-10 -16,-16 18,-19 36,-38 55,-57 7,-1 13,-2 20,-7 -4,-2 -6,-4 -7,-6 2,-1 4,-3 6,-5 5,0 12,1 14,0 -2,-2 -5,-4 -1,-7 1,-2 1,-4 1,-6 7,-7 15,-14 23,-20 19,-1 42,-6 48,-25 7,3 13,-3 22,7 5,-8 8,-15 7,-21 -6,-6 -13,-8 -19,-8 25,-19 51,-36 77,-53 -21,31 -35,53 -44,88 0,-2 -1,-3 -2,-4 -1,1 -2,2 -3,3 -3,-1 -7,0 -10,1 -7,-1 -14,-4 -19,6 2,2 5,4 8,5 0,3 0,5 2,8 2,-1 3,-2 5,-3 1,1 2,2 4,3zm-34 -41l4 -4c1,3 2,5 5,8 -2,-1 -4,-2 -6,-1 -1,-1 -2,-2 -3,-3zm-409 855c-4,-2 -8,-3 -12,-4 1,-1 3,-2 4,-3 4,-1 6,3 8,7zm751 -1028c1,3 5,5 9,7 1,-1 2,-3 4,-4 -4,-3 -6,-6 -7,-10 -2,3 -3,5 -6,7zm14 8c3,0 5,0 6,0l1 -1c-2,0 -4,1 -7,1zm11 -18c0,-2 -1,-4 -2,-6 -12,2 -7,7 -7,15 3,-3 6,-6 9,-9zm458 -480c-5,-4 -9,-4 -12,-1 -11,-13 12,-13 15,-23 -2,15 4,28 -10,46 -6,-6 3,-14 7,-22zm-1140 1044c4,-7 7,-13 10,-19 3,3 4,6 2,9 -3,5 -7,8 -12,10zm-103 496l-7 4c0,-2 0,-3 0,-5 2,0 4,1 7,1zm1278 1122c-12,-1 -13,-9 -20,-14 6,-7 26,4 20,14zm518 -201c-8,-1 -9,-6 -14,-8 7,-3 12,-8 22,-6 -2,6 -7,6 -8,14zm-911 -268c1,8 23,3 16,16 -9,5 -24,-2 -16,-16zm1104 92c4,-12 -2,-17 4,-31 15,2 15,38 -4,31zm-240 -552c-18,0 -12,-14 -28,-15 12,-19 22,8 40,2 1,14 -13,0 -12,13zm2 -23c4,-12 13,-14 27,-9 -4,12 -13,14 -27,9zm169 -83c-13,-5 1,-23 -19,-17 4,-12 14,-15 16,-31 7,12 0,28 3,48zm304 -24c1,-2 1,-4 2,-6 5,0 8,2 10,4 7,-2 14,-6 23,-8 0,-6 1,-11 1,-17 -1,0 -2,0 -3,0 -1,2 -2,4 -3,7 -4,-1 -7,-2 -9,-3l-22 13c-3,3 -8,4 -10,8 -1,0 -1,-1 -2,-1l-5 3c-1,16 -2,32 -3,48 12,5 26,9 30,22 -12,1 -23,3 -33,5 -1,10 -2,19 -3,29 11,9 2,26 -3,42 -1,0 -2,-1 -3,-2 -2,8 -3,16 -5,24 12,1 7,10 5,18 -4,1 -6,-1 -8,-3 -1,7 -3,13 -4,20 3,-2 6,-4 9,-6 0,5 -1,10 4,11 -1,9 -11,9 -17,12 -1,3 -2,6 -2,8 13,15 8,49 34,41 2,-10 -2,-13 -11,-11 6,-13 15,-25 31,-29 2,-6 3,-13 5,-20 -9,-2 -17,-5 -22,-5 2,-16 10,-20 13,-32 7,2 11,6 14,11 1,-3 1,-5 2,-8 -3,-6 -1,-12 3,-18 4,-20 7,-40 9,-61 -4,-7 -11,-13 -15,-19 1,-18 25,-22 14,-40 3,0 5,0 7,0 0,-7 1,-15 1,-22 -5,5 -11,9 -11,19 -17,-7 -31,-15 -33,-36 4,1 7,2 10,2zm14 -202c1,-10 5,-15 15,-12 -2,10 -6,16 -15,12zm432 34c-13,-14 -3,-46 16,-47 9,6 -6,13 -11,13 -2,8 7,11 17,12 -1,4 -2,8 -3,12 -12,6 -6,-8 -18,-9 -3,10 12,12 -1,19zm-242 -107c-5,-1 -10,-3 -15,-4 1,-15 22,-9 15,4zm-205 521c-2,7 -4,14 -6,20 -3,-10 -12,-19 0,-26 4,0 4,4 6,6zm-20 68c-7,22 -15,44 -24,65 -1,-1 -2,-3 -3,-5 -3,-13 4,-17 3,-29 -17,23 -48,33 -42,69 -7,-1 -7,-10 -18,-7 -3,21 21,16 18,36 -22,-14 -10,30 -32,15 -4,16 -30,41 -6,51 8,-13 16,-12 10,-33 13,-1 18,-11 21,-22 6,-1 12,-2 18,-2 -10,20 -20,40 -31,59 -3,-1 -7,-2 -11,-2 -11,6 10,11 2,17 -1,0 -2,0 -2,1 -9,-8 -14,-20 -29,-21 0,7 -2,12 -3,19 -8,-2 -16,-4 -23,-6 25,-42 48,-85 67,-130 0,0 0,0 0,0 1,0 1,-1 1,-2 3,-9 7,-18 11,-27l10 0c0,-6 0,-12 -1,-18 -1,0 -2,0 -2,1 1,-4 2,-7 3,-10 5,3 11,5 17,9 8,-16 5,-40 3,-54 -1,1 -3,2 -6,3 5,-15 10,-30 14,-46 2,1 4,2 6,6 -6,5 -3,18 -10,22 23,18 -10,50 26,54 6,-6 -6,-14 10,-15 1,0 2,1 3,2zm-148 297c-9,13 -19,27 -30,41l-7 -2c-2,5 -4,7 -7,10l7 2c-42,53 -90,104 -142,150 2,-8 7,-14 14,-22 -7,-10 -27,-10 -33,-10 11,-3 9,-17 25,-15 4,-11 2,-10 -4,-18 7,-6 5,0 15,0 -2,-6 -4,-12 -8,-16 9,-9 19,-19 28,-29 4,12 11,23 28,27 6,-3 8,-12 10,-21 -12,-6 -22,-17 -32,-12 21,-23 41,-47 61,-72 9,3 18,6 21,-2 -2,-4 -7,-8 -12,-11 9,-12 18,-24 27,-37 1,0 1,0 2,0 -3,24 14,36 26,51 2,-7 6,-12 11,-14zm-187 208c-51,44 -106,84 -165,120 -7,-21 -10,-41 -5,-60 5,-3 10,-6 15,-9 0,1 -1,3 -1,5 32,11 41,-18 45,-36 15,-11 30,-22 45,-34 1,5 0,11 -2,15 7,4 17,5 25,7 4,-6 1,-18 7,-22 17,-2 11,19 22,22 0,-14 5,-9 14,-8zm-197 138c-20,11 -40,21 -60,31 1,-2 2,-4 4,-6 -5,-12 -10,-16 -18,-18 -10,-7 -8,-18 -3,-27 23,-11 46,-23 69,-37 6,-3 11,-6 17,-9 1,15 1,30 -1,43 -5,4 -16,3 -14,15 2,2 4,5 6,8zm203 -215c1,-1 3,-3 4,-4 0,3 -1,5 -3,5 -1,0 -1,-1 -1,-1zm-338 278c-43,17 -87,32 -132,43 0,-5 -2,-10 -5,-16 -17,28 -35,19 -61,30 -2,-6 4,-19 -4,-18 -11,-3 -7,21 -21,7 5,5 7,10 9,15 -5,1 -10,2 -15,3 1,-1 1,-2 2,-3 -15,1 -3,-12 -4,-18 -3,0 -7,0 -10,0 0,9 7,11 -4,14 5,-23 -16,4 -15,-14 -11,-3 -7,9 -14,11 0,8 7,11 7,16 -73,9 -147,12 -220,7 11,-2 20,-10 26,-19l0 0c8,-6 13,-14 27,-9 3,-7 5,-14 2,-18 -10,3 -9,-1 -11,-5 15,0 29,0 43,0 -1,4 -3,8 -4,12 6,3 6,13 15,14 -4,-15 14,-10 17,-18 0,-3 0,-6 0,-9 116,-4 233,-28 346,-71 5,3 8,8 4,20 12,3 23,5 32,8 -2,7 -5,13 -10,18zm-499 76c-90,-6 -180,-24 -266,-51 18,-13 34,-16 45,-36 4,7 9,13 14,20 -5,-15 9,-10 13,-19 79,21 159,33 241,36 -2,6 1,10 2,16 -3,0 -8,3 -12,6 -6,-7 -20,-8 -32,-9 1,16 -9,20 -7,37 1,0 1,0 2,0zm494 -131c4,-1 9,-3 13,-5 1,6 3,13 4,19 -1,0 -1,0 -2,0 0,-8 -7,-12 -15,-14zm-766 78c-2,-1 -4,-1 -5,-2 1,-1 3,-1 4,-2 0,2 1,3 1,4zm-21 -7c-64,-23 -127,-51 -186,-85l53 -31c52,27 105,50 160,69 -7,2 -14,6 -21,9 1,-5 3,-9 6,-11 -8,-4 -10,3 -16,2 5,16 -3,27 -11,41 6,2 13,3 15,6zm805 -78c2,-1 3,-2 5,-2 -2,1 -3,1 -5,2zm1132 -1307c14,66 22,133 27,200 -7,1 -13,3 -18,11 7,-2 13,-2 18,0 2,28 3,57 3,85 -8,1 -16,15 -12,16 3,-3 9,-3 12,-5 0,10 0,20 0,30 -7,0 -13,0 -13,11 4,1 9,2 13,1 -2,66 -8,132 -18,198 -25,-22 -1,-45 -17,-74 -11,-4 7,13 -6,10 -2,-9 -6,-17 0,-31 9,3 10,10 19,5 7,-15 -17,-12 -14,-24 5,-17 17,-21 25,-33 -19,-4 -21,-17 -19,-33 -9,-2 -17,-1 -24,-1 1,-20 1,-41 1,-61 8,4 22,-6 15,-15 -6,-2 -11,-1 -15,3 0,-9 0,-19 0,-29 8,-8 25,0 30,-14 -5,-6 -23,2 -30,10 -3,-77 -11,-155 -25,-232l48 -28zm10 560c-4,23 -8,46 -13,69 -9,-4 -19,-8 -30,-12 0,-2 0,-4 -1,-6 8,-4 15,-8 20,-13 -10,-3 -16,1 -22,5 -1,-2 -3,-2 -5,-2 -2,4 -9,5 -12,9 3,-14 6,-29 8,-44 1,0 3,1 4,1 8,-2 9,-16 17,-20 10,4 23,8 34,13zm-51 63c1,5 10,4 10,10 -12,10 -19,20 -31,20 2,-8 3,-16 5,-25 2,-3 5,-6 8,-8 3,1 5,2 8,3zm34 24c0,3 -1,5 -1,7 -10,-5 -20,8 -20,0 1,-4 2,-8 3,-12l18 5zm-4 21c-1,3 -2,6 -2,8 -6,0 -12,-1 -11,-9 3,5 9,5 13,1zm-6 23c-4,19 -9,38 -15,57 -6,-2 -13,-4 -18,-4 -4,-1 -8,-2 -11,-2 -4,-8 2,-11 -3,-22 6,0 27,-6 17,-18 -2,11 -17,8 -30,9 5,-17 9,-34 13,-50 8,0 15,-1 20,-8 -5,17 13,40 27,38zm-41 71c-1,7 -4,15 5,16 1,-3 3,-5 5,-8l2 0c0,0 0,-1 0,-2 4,-3 8,-7 11,-11 -8,28 -17,57 -27,84 -7,-2 -17,-1 -19,-9 1,-26 27,-28 36,-47 -8,-7 -8,1 -15,4 5,-23 -29,-8 -15,-29 5,-14 2,-22 -8,-26l-1 4c3,0 5,1 5,4 -2,6 -6,10 -11,14l-1 4c2,1 5,2 8,3 2,-2 5,-3 8,-3 4,9 12,4 17,2zm-13 103c-6,19 -14,37 -21,55 -6,-4 -9,-10 -2,-19 -11,4 -14,-17 -18,-7 2,0 4,1 3,4 -12,17 -2,34 7,45 -23,52 -48,103 -76,153 -4,-1 -6,0 -8,5 2,0 3,0 4,1 -5,8 -9,16 -14,24 -1,0 -3,-1 -4,-1 -11,-7 -5,-25 -25,-27 1,22 -5,32 -17,51 11,3 19,7 24,13 -10,16 -20,31 -31,46 -4,0 -8,-1 -12,-1 2,-6 -2,-16 1,-22 3,-10 -12,-10 -15,-16 5,-8 15,-7 20,-15 1,-7 -12,-6 -13,-11 -1,0 -1,0 -1,0 23,-35 44,-71 63,-108 25,6 45,5 50,-34 -9,3 -18,-3 -27,-9 1,-3 3,-6 4,-9 1,2 3,3 7,2 2,-13 12,-19 14,-32 -2,-1 -4,-1 -6,-1 7,-16 15,-33 22,-50 0,3 -1,6 -3,11 14,-6 8,9 15,10 6,-4 12,-26 3,-32 -4,7 -8,6 -12,4 12,-29 23,-59 33,-88 6,2 12,2 21,-4 11,21 -10,25 -17,37 17,5 7,21 15,32 11,-3 2,-16 6,-18 6,1 5,10 10,11zm-24 -90l2 -7c1,0 2,1 4,0 -2,3 -4,6 -6,7zm-190 484c-9,12 -19,25 -29,38 -2,-1 -4,-1 -7,-1 -2,4 0,6 1,9 -9,10 -17,21 -26,31 -4,-7 -16,-11 -27,-12 -11,7 14,7 11,18 -7,0 -5,-10 -15,-7 -2,1 -2,4 -4,6 -3,-6 -20,-4 -20,-11 28,7 45,-30 48,-63 4,-1 7,-2 12,0 0,-3 0,-6 -1,-9 10,7 19,17 26,22 6,-14 18,-19 31,-21zm-82 102c-11,12 -23,25 -34,37 0,-1 0,-3 0,-5 -5,0 -8,2 -11,4 0,-4 -1,-8 -5,-7 1,-2 1,-3 1,-4 7,0 6,4 6,9 9,-6 18,-11 25,-21 -1,-11 -16,-3 -22,-6 12,-2 17,-16 26,-24 10,6 15,8 14,17zm-41 45c-6,5 -11,11 -17,16 1,-4 1,-9 -4,-16 1,-7 6,-9 9,-12 -2,7 -5,16 5,17 1,-2 4,-4 7,-5zm105 -213l2 -3c11,5 14,12 30,7 0,7 -5,7 -9,6 0,0 0,1 0,1l-1 0c-4,4 -3,13 -11,14 -2,-10 -1,-23 -11,-25zm29 20c1,0 1,0 1,0 0,1 0,1 -1,1 0,0 0,-1 0,-1zm-257 308c-7,7 -15,13 -23,19 -2,-2 -5,-5 -8,-6 9,-6 18,-11 24,-18 2,1 5,3 7,5zm-129 98c-34,24 -69,46 -106,67 -20,12 -40,23 -61,34 1,-2 2,-6 1,-10 -14,5 -9,-10 -18,-10 -1,8 -4,20 0,29 -41,21 -84,40 -126,57 -1,-2 -2,-3 -3,-5 8,-5 14,-10 22,-15 -5,-5 -16,-3 -11,-18 -8,0 -15,1 -22,1 -3,-14 14,-8 14,-19 -1,0 -2,0 -2,-1 61,-25 121,-55 180,-88 21,-13 43,-26 64,-40l20 6c3,-8 -1,-13 -7,-14 6,-4 12,-8 18,-12 -1,1 -3,3 -4,4 5,6 20,5 25,0 -2,-3 -2,-6 -2,-10 1,2 2,3 4,5 6,-10 14,-18 17,-28 24,-17 47,-34 69,-52l5 1c-1,-2 -1,-3 -1,-4 7,-6 15,-13 22,-19 -8,10 -15,19 -9,30 -5,2 -11,2 -20,-1 9,10 10,38 -7,29 -3,15 23,3 22,22 -12,0 -13,-7 -22,-10 0,7 11,7 4,17 -8,-2 -12,2 -18,3 -2,-1 -4,-2 -7,-2 -5,5 -4,17 1,22 -1,1 -2,2 -3,2 -7,5 -14,-5 -21,-10 -12,12 -25,23 -18,39l0 0zm-351 183c-318,117 -657,127 -970,41 8,-3 15,-6 20,-14 -3,-4 -4,-10 -5,-14 -17,-7 -22,5 -40,-4 -4,11 -8,14 -15,21 -12,-4 -24,-7 -35,-11 -1,-1 -1,-2 -2,-2 2,-9 9,-8 11,-16 5,0 4,3 4,7 7,-5 14,-9 20,-16 -1,-9 -13,-3 -18,-5 8,-1 12,-8 16,-14 323,102 679,98 1009,-28 9,15 15,33 4,53 0,0 1,1 1,2zm-1112 -5c-10,-3 -19,-7 -28,-11 3,-1 7,-1 12,-1 -3,-13 1,-31 -5,-42 9,-10 12,16 20,5 3,6 8,11 5,20 8,6 6,2 17,5 4,7 -2,17 -6,23 -7,-5 -10,-5 -15,1zm-38 -14c-8,-4 -17,-7 -26,-11 7,0 10,-7 18,-4 7,2 10,7 8,15zm-31 -13c-75,-33 -149,-71 -219,-115 1,-1 1,-2 1,-4 -2,0 -4,0 -6,0 -31,-19 -60,-39 -90,-61 2,-22 2,-44 7,-62 92,71 192,131 297,179 -2,1 -3,2 -3,7 3,1 6,2 9,3 0,-2 1,-4 1,-7 9,4 17,8 26,12 0,11 -2,21 -12,30 -10,0 0,-13 -12,-13 -6,9 -17,11 -26,16 8,2 19,16 30,4l-3 11zm79 -25c8,2 15,5 23,8 -1,2 -1,5 1,8 2,-1 4,-4 6,-5 3,1 6,2 8,3 -5,7 -8,17 -16,20 -1,-14 -16,-20 -23,-31 0,-1 1,-3 1,-3zm-441 -192c-19,-15 -38,-30 -56,-46l49 -28c11,9 21,17 32,26 0,1 -1,1 -2,2 4,2 6,3 8,3 3,2 6,5 9,7 0,3 0,6 0,10 -19,-4 -21,13 -36,6 1,7 0,16 -4,20zm2034 -112c4,-4 8,-7 12,-11 1,1 3,2 4,4 -3,2 -5,5 -7,10 -3,-2 -6,-3 -9,-3zm-1799 -2534c4,-1 7,-3 11,-5 3,4 7,6 10,17 6,-18 19,3 27,-2 8,-10 11,-18 3,-24 -14,2 -3,18 -21,12 -4,-3 -4,-7 -4,-11 10,-5 20,-11 31,-16 -2,2 -4,4 -7,7 18,-1 34,-11 51,-19 -11,-9 -17,5 -26,3 15,-7 31,-14 46,-21 8,23 29,-4 46,9 -14,15 -31,29 -43,5 -17,20 -17,27 -29,33 14,-12 1,12 -4,17 3,2 5,3 7,5 -22,11 -43,22 -65,33 -2,-12 -11,-16 -22,-5 -3,-13 -5,-26 -11,-38zm128 -62c3,-1 6,-2 9,-3 -2,3 -5,3 -9,3zm39 -16c11,-4 22,-8 33,-12 -10,6 -28,14 -21,21 -11,-2 -14,-5 -12,-9zm62 -23c35,-12 71,-24 107,-34 5,3 10,1 12,-3 11,-3 21,-5 31,-8 -5,7 -9,16 -12,30 -14,-10 -24,1 -34,11 17,14 17,11 9,24 -41,11 -82,25 -122,40 2,-7 5,-13 12,-19 -8,-14 -29,-4 -23,-15 9,-13 25,5 33,-11 -4,-5 -10,-10 -13,-15zm193 -55l3 0c0,0 1,0 2,1l0 -2c15,-3 29,-6 44,-8 -5,2 -10,2 -13,10 1,1 4,3 5,4 -4,4 -9,9 -12,15 1,7 8,5 14,4 0,1 1,2 2,3 -6,5 -10,14 -15,21 -18,4 -36,8 -54,12 3,-8 7,-17 4,-24 -4,4 -26,12 -20,1 18,5 39,-40 50,-7 9,-12 -8,-19 -10,-30zm45 26c1,-1 1,-2 2,-3 2,0 3,0 5,0 -3,1 -5,2 -7,3zm21 -34c-2,0 -5,-1 -6,-3 3,-1 6,-1 9,-2 -1,2 -2,4 -3,5zm78 -16c32,-4 65,-7 97,-8 0,3 1,6 3,9 -5,11 -11,20 -13,27 7,-8 21,-7 33,-2l0 3c3,1 5,1 7,1 6,4 9,8 11,13 -12,0 -24,1 -37,1 -1,-7 -6,-13 -13,-9 3,3 2,7 0,10 -9,1 -18,2 -28,2 -1,-3 -1,-7 1,-11 8,2 14,1 16,-6 0,-3 -3,-4 -3,-8 -13,7 -25,15 -41,17 1,3 2,7 2,11 -11,1 -21,2 -32,3 -3,-3 -7,-7 -12,-9 -1,4 -1,7 -1,11l-5 1c-2,-9 4,-20 7,-27 10,6 14,4 20,-5 -5,-7 -14,-12 -12,-24zm-26 57l-7 1c1,-2 3,-4 6,-5 0,2 0,3 1,4zm194 -68l1 0c2,1 4,3 6,4 -3,5 -5,7 -8,7l1 -11zm-25 3c0,0 0,0 0,0l0 0 0 -1 0 1zm103 -2c14,0 28,1 42,2 -1,3 -1,6 -1,9 2,-3 5,-6 8,-9 49,4 97,9 145,17 -4,4 -10,7 -10,17 16,-3 7,12 17,14 3,-9 8,-20 5,-29 47,7 94,17 140,29 3,10 -3,22 -10,29 6,6 7,15 6,25 -107,-28 -217,-45 -329,-51 8,-14 21,-5 30,-14 -21,-2 -21,-12 -21,-27 -4,3 -8,2 -13,-2 -13,10 -13,37 -21,32 -9,-15 -1,-35 12,-42zm376 58c117,33 231,80 339,139 -1,1 -3,2 -6,4 10,15 21,14 38,14 35,21 69,42 102,65 -1,2 -1,4 -1,6 3,0 6,-1 8,-1 3,2 6,4 10,7 0,0 0,1 0,1 0,0 1,0 1,0 18,12 35,25 52,38 -4,5 -4,14 -11,14 -19,-5 -16,-25 -29,-35 -6,5 0,6 0,12 -15,-8 -10,20 -23,5 -11,-7 -19,-4 -24,6l5 3c0,-4 1,-10 5,-9 9,6 8,18 17,24 11,-9 -6,-10 -3,-24 13,-2 -5,-21 11,-11 0,-3 1,-5 1,-8 -9,0 -10,-6 -14,-9 -5,6 -8,11 -9,15 -7,2 -8,-3 -17,-1 1,-5 0,-22 -10,-17 9,5 1,18 0,27 -20,-13 -40,-27 -61,-40 2,-3 4,-5 4,-11 -7,-1 -15,-5 -17,2 1,1 1,1 2,2 -14,-8 -28,-16 -42,-24 -1,-1 -2,-1 -3,-2 -110,-62 -227,-110 -348,-143 0,-5 -1,-10 -3,-15 25,5 23,-17 26,-34zm558 285c12,9 23,18 35,28 -4,2 -8,2 -13,-4 2,9 -15,7 -8,12 0,-1 1,-3 3,-2 10,11 21,9 31,5 4,3 7,7 11,10l-49 28 -3 -3c0,-4 -3,-8 -10,-11 0,1 0,2 0,2 -3,-2 -6,-4 -8,-6 1,0 2,0 3,1 -4,-11 -14,-24 -26,-23 0,1 0,3 1,4 -8,-6 -15,-11 -22,-16 5,-10 11,-13 7,-25 17,-5 16,11 24,19 7,-12 17,-1 26,-5 0,-9 -12,-5 -12,-8 2,-5 8,-1 10,-6zm-925 -290c-4,0 -9,0 -13,0 3,-7 8,-13 15,-15 -4,6 -4,11 -2,15zm-70 -1c-14,0 -27,0 -40,1 -2,-5 -4,-9 -7,-14 12,5 23,7 34,9 7,-11 9,-21 10,-30 7,-3 13,-6 20,-9 0,1 0,3 -1,5 -13,3 -19,25 -16,38zm-360 44c-3,1 -5,1 -8,2 0,-3 -1,-6 -1,-8l9 6zm-211 68c-12,5 -24,10 -37,16 0,-1 0,-2 0,-4 5,-18 40,2 12,-18l0 0c6,-13 20,8 25,-9 5,-3 4,5 0,15zm-58 25l-1 1 0 -1 1 0zm-161 85c-17,10 -34,21 -51,32 4,-14 2,-28 13,-44 9,9 15,-2 26,11 15,-12 -13,-14 2,-25l0 0c7,10 10,18 10,26zm-94 62c-11,7 -21,15 -31,22 -9,2 -23,3 -30,-8 -4,6 -8,12 -12,18 6,4 9,9 10,14 -6,5 -12,10 -18,15 -8,-6 -6,-32 -22,-22 5,6 12,18 17,26 -20,17 -41,34 -60,52 0,0 -1,-1 -1,-2 -12,-13 -19,-2 -29,-6 4,-7 13,-15 8,-21 -23,10 -4,28 4,45 -14,14 -28,28 -42,42 1,-7 6,-14 0,-20 -13,0 -14,20 -7,27 -18,18 -35,37 -52,56 -7,-3 -10,-5 -18,-15 -5,9 -7,17 -2,24 3,-3 7,-1 11,1 -16,18 -31,37 -46,56 -10,-6 -2,-28 -17,-18 12,9 -4,25 4,35 2,-4 5,-8 8,-11 -14,18 -27,36 -40,54 -1,-7 -5,-12 -9,-11 8,6 -24,18 -6,29 1,0 1,1 2,1 -29,42 -56,86 -81,132 -3,1 -5,1 -8,1 3,2 4,3 5,5 -2,2 -3,5 -5,8 -1,1 -2,2 -2,4 -3,5 -5,10 -8,16 -12,4 -24,11 -35,16 5,4 10,8 3,15 5,1 9,3 14,5 -8,17 -16,34 -24,51 -9,4 -17,5 -26,-1 2,-12 -4,-22 -18,-31 1,-1 1,-2 2,-3 3,-3 3,-6 4,-8 2,-5 4,-9 6,-14 18,15 15,-8 14,-17 8,2 12,-1 14,9 15,-15 -19,-20 -3,-35 14,6 51,17 47,-2 -12,14 -29,-14 -29,-26 -4,5 -6,2 -7,-1 33,-62 70,-122 111,-179 4,10 -12,24 -1,32 27,-31 22,-66 52,-59 -11,-6 -5,-24 -4,-36 9,-11 18,-22 27,-33 1,1 4,2 6,4 -14,10 -12,27 -31,38 29,-4 31,-27 54,-43 -10,-6 -11,-10 -13,-18 47,-54 98,-105 152,-153 33,24 7,-37 45,-10 2,-23 0,-13 18,-28 -2,-4 -5,-7 -7,-9 4,-3 7,-6 11,-9 1,3 2,6 2,9 8,-5 38,4 29,-14 -16,17 -15,3 -13,-8 24,-19 50,-38 76,-55 16,16 26,-2 40,6 -12,19 -25,19 -35,3 -7,16 -21,1 -27,21 30,9 23,25 23,34zm-375 288l2 -2c0,1 1,2 1,3 -1,0 -2,-1 -3,-1zm-173 420c-3,8 -6,16 -9,24 -8,3 -17,1 -25,-10 9,-15 23,-16 34,-14zm-12 32c-2,7 -4,13 -6,19l-1 0c-4,3 -4,7 -4,10 -4,-2 -8,-2 -15,1 -4,-9 -8,-17 -19,-23 13,-11 28,-12 45,-7zm-65 248l0 1 -1 0 0 0c1,-1 1,-1 1,-1zm-51 -10c2,-1 3,-1 5,1l0 2c-2,-1 -3,-2 -5,-3zm21 44l1 1c-3,7 -11,6 -19,6 6,-2 12,-4 18,-7zm-16 -79c7,-32 14,-64 23,-96 0,1 0,3 1,4 10,-10 24,1 32,-19 -10,-12 -11,-13 -25,-17 1,-2 2,-4 2,-7 7,-11 2,-19 14,-22 -3,0 -5,0 -7,0 4,-12 7,-24 11,-35 8,3 16,7 23,14 -18,19 3,20 2,27 -3,5 0,8 -2,12 -2,1 -3,1 -5,0 2,-3 3,-8 2,-18 -26,-1 -24,12 -17,18 -1,1 -2,3 -3,5 20,28 -5,45 -1,72 -13,-4 -24,8 -37,8 10,17 9,21 18,12 15,22 -7,38 -31,42zm68 -239c4,-11 8,-21 12,-32 0,0 1,0 2,0l0 0c11,20 17,4 30,-6 3,2 7,4 10,6 -4,3 -1,5 1,7 -15,8 -24,23 -36,36 -9,2 -16,-3 -19,-11zm34 -84c1,-3 2,-6 3,-9 1,0 3,0 4,0 -2,4 -5,7 -7,9zm30 -66l1 -2c0,1 0,2 0,2 -1,0 -1,0 -1,0zm19 -38c1,-1 1,-2 2,-4 0,2 -1,3 -2,4zm-127 327c1,-3 1,-7 2,-10 2,3 3,6 4,8 -2,-1 -5,0 -6,2zm21 751l96 -56c6,3 13,4 21,4 -3,7 -6,14 -9,21 11,-13 13,6 26,2 4,-1 -1,-8 3,-10 3,5 8,8 15,8 1,-9 13,-9 22,-8l-182 105c-23,13 -38,33 -44,56 -24,-4 -54,2 -50,-18 1,-3 2,-5 3,-8 0,-1 1,-2 1,-3 8,7 36,9 36,-7 -11,6 4,-29 -11,-26 3,7 -1,11 -5,15 -2,-3 -6,-3 -9,-4 12,-20 29,-37 50,-50 7,18 16,31 43,19 -9,-9 -3,-27 -6,-40zm203 -117l173 -100c2,1 3,2 4,2 0,-2 2,-4 5,-4 0,-1 -1,-2 -2,-2l177 -102c2,0 5,0 8,-1 1,-2 2,-3 1,-5l19 -10c1,3 2,6 3,9 6,-4 8,-10 10,-17l30 -17c8,2 15,0 23,2 0,14 20,23 16,37l-1 0c-1,0 -3,1 -4,2l-2 2c-6,-19 -19,-21 -18,-41 -16,7 -20,20 -21,35 4,-1 8,-1 11,1 0,6 3,11 8,16l-19 11c-5,-2 -11,1 -11,-10 10,-1 12,-6 8,-15 -12,13 -20,-5 -35,-2 -8,9 -15,30 -34,23 -4,2 -3,6 -7,8 1,13 10,12 13,22 -8,4 -8,-4 -14,-3 1,8 11,12 12,17l-6 3c-1,-3 -3,-6 -7,-4 0,3 -1,5 -1,8l-155 90c-2,-1 -4,-1 -7,1l1 2 -53 31c-30,8 -66,-7 -90,-4 4,1 18,5 12,9 -18,9 -33,9 -47,6zm450 -198l-3 1c0,0 1,-1 1,-2 1,0 1,0 2,1zm-465 268l-11 6c-1,-5 1,-8 7,-9 1,1 2,2 4,3zm-229 247l259 450c-9,-3 -17,-4 -22,6 12,5 15,-4 24,-3l1 1c-5,9 7,7 3,15 -7,4 -7,-4 -18,-5 0,3 -1,6 -2,9 6,7 18,-2 27,-1l16 28c-6,-2 -8,3 -15,-1 -5,10 16,18 19,8 -1,-1 -2,-2 -2,-4l26 44c5,9 11,16 18,23 -5,-1 -11,-1 -18,0 0,-5 8,-14 1,-16 -8,-4 -11,16 -19,2 9,13 1,26 5,38 11,-4 4,-15 20,-13 9,16 31,18 42,7 24,8 52,6 75,-7l51 -30c14,8 23,16 19,39 5,0 10,2 14,4l-57 33c-28,16 -59,21 -89,18 7,-18 20,-24 17,-42 -3,6 -16,-2 -18,-5 6,15 -2,15 -10,26 5,8 2,11 -1,19 -39,-8 -75,-32 -96,-69l-5 -8c11,1 17,10 27,1 -12,-3 1,-10 1,-16 -3,-1 -6,-1 -9,-2 -1,7 3,11 -6,11 10,-18 -14,-1 -8,-15 -9,-5 -8,5 -14,6l-79 -138c1,-1 3,-2 4,-4 -4,-1 -4,-5 -10,-5l-213 -371c1,-1 2,-3 3,-4 2,-6 -3,-15 1,-19 18,-2 21,-12 26,-20 1,7 -2,13 5,17 3,-2 5,-4 7,-7zm-58 4c-2,-6 -4,-11 -5,-17 4,4 8,7 12,11 -2,3 -4,5 -7,6zm-9 -36l0 -1c0,0 1,1 1,1 0,0 -1,0 -1,0zm0 -39c1,-4 1,-7 2,-10 5,1 9,6 13,10l0 0c-5,-1 -10,1 -15,0zm584 607l122 -70c-5,22 -8,47 -17,66 -5,2 -13,-1 -14,9 0,1 1,2 1,3l-59 34c1,-8 2,-16 10,-22 -2,-18 -11,-19 -28,-26 -1,11 -9,12 -16,15 2,-6 2,-8 1,-9zm156 -89l106 -62c3,2 6,3 10,1 1,-3 0,-5 -1,-6l176 -102c4,1 5,0 11,4 2,-16 19,-7 22,-23l186 -107c1,4 -3,11 4,11 11,-9 24,-5 19,-25l2 -1c8,1 8,6 15,8 11,-4 11,-14 11,-23l120 -69c-1,6 4,9 13,11 3,-8 -1,-12 -7,-14l207 -120c-9,16 -23,23 -32,39 5,5 2,15 10,19 1,-17 18,-7 24,-14 2,-24 16,-33 11,-51l203 -118c4,8 7,13 10,25 9,-4 13,-15 24,-13 -2,6 -3,12 -5,18l17 5 -136 79c-2,-6 -6,-10 -6,-17 -17,-7 -38,-20 -47,-1 15,7 20,-5 32,-3 -9,12 9,10 3,20 -8,6 -9,-5 -22,-6 -1,4 -2,8 -3,12 8,8 24,-5 36,-1l-299 172c-4,1 -6,2 -8,5l-28 16 -2 0c0,0 0,1 0,1l-12 7c2,-2 2,-5 2,-8 -16,-3 -21,15 -33,20 2,1 3,2 3,4l-26 15c-3,-3 -6,-7 -11,-10 -1,3 -3,3 -5,3 -17,-6 -26,14 -21,27 1,0 1,0 2,0l-45 26c6,-9 5,-29 -8,-23 4,8 5,16 6,25l-14 8 0 -1c-10,-4 -20,-5 -32,1 0,-7 -7,-10 -7,-17 0,-12 7,-13 9,-23 -19,14 -47,16 -50,46 -5,-2 -3,-10 -13,-9 -6,16 13,16 7,33 -14,-17 -15,21 -29,4 -7,12 -34,26 -17,40 10,-9 16,-7 16,-24 11,2 17,-5 22,-13 8,0 16,1 21,5l-63 36c-2,-5 -6,-9 -13,-12 -2,10 -8,13 -9,25l-196 113c-1,-1 -3,-2 -5,-3 0,2 -1,5 -2,7l-4 2c-5,-15 -20,-11 -30,-25 -25,5 -40,27 -58,44 14,-4 20,13 13,24l-106 62c1,-17 5,-32 16,-44 -3,-1 -8,-2 -8,-5 2,-15 15,-17 24,-30zm588 -280c0,-2 0,-4 1,-7 0,2 0,4 -1,7zm-98 58l-21 12c-6,-3 -10,-9 -7,-19 7,-6 19,18 27,4l0 0c0,1 1,2 1,3zm60 -96l3 -2c0,1 -1,2 -2,3l-1 -1zm-518 -712l28 -17c0,6 0,13 -9,24 -5,-3 -8,1 -12,-1 -3,-2 -5,-4 -7,-6zm47 -27l5 -3c2,3 4,6 5,10 -4,-3 -7,-5 -10,-7zm32 -19l9 -5c11,10 18,-2 25,-14l24 -15c8,3 11,-1 13,-7l34 -19c-4,19 -3,40 3,46 -3,5 -7,4 -10,7 13,11 21,-1 29,-14 -6,-10 -25,3 -19,-12 11,6 18,-5 24,-17 -1,-11 -13,-8 -20,-14l204 -118c5,7 11,14 13,23 13,3 8,-16 24,-8 -3,11 1,17 12,18l-289 167 -24 -16c-8,16 -18,29 -30,26 22,21 -19,9 -23,25 5,0 9,1 12,2l-22 13c1,-15 6,-39 18,-36 -3,-11 -14,-19 -7,-32zm374 -216l49 -28c-7,15 -24,15 -28,33 6,8 9,2 19,3 0,-18 14,-24 21,-43l57 -33c9,-1 17,-6 24,-14l86 -49c2,8 16,8 16,-4l-7 -1 26 -16c7,2 9,-4 13,-7l4 -2c1,-1 2,-1 4,0l0 0 0 0c2,0 4,1 6,2 0,-1 0,-1 0,-2 6,0 12,-2 18,-3 -6,-4 -7,-7 -6,-10 8,-5 20,11 22,-7 -4,-2 -6,-2 -8,-1l132 -77c1,3 2,5 7,1 -1,-1 -1,-3 -1,-4l51 -29c0,1 1,1 2,2 1,-1 1,-3 1,-4l94 -54c2,6 6,10 13,13 12,-1 15,-15 16,-30l9 -5c1,8 8,13 14,6 -9,-5 -5,-6 -2,-13l14 -8c3,18 -5,33 23,45 -7,-15 -6,-36 -18,-48l235 -136c-1,5 0,9 3,13 1,-4 2,-7 3,-10 4,3 9,5 12,-1 -2,-3 -5,-6 -8,-7 1,0 1,-1 1,-1l25 -15c15,11 26,2 50,0 1,10 -9,6 -10,14 8,0 11,5 9,13 -2,3 -4,6 -5,9l-407 235c-1,-2 -3,-5 -7,-6 0,3 1,6 1,9l-150 87c-1,-2 -4,-5 -8,-8 -2,7 -7,12 -5,16l-72 42c-2,-1 -3,-1 -5,0 -3,1 -4,3 -5,5l-165 96c1,-3 2,-5 4,-7 -9,3 -19,5 -22,16l0 1 -32 18c0,0 -1,0 -2,0 0,0 0,1 0,2l-67 38c-9,0 -18,0 -28,-1 1,6 3,10 7,13l-31 18c-7,-20 18,-20 22,-39 -3,-7 -11,-17 -14,-27zm1037 -598l2 -2 0 1c-1,0 -2,0 -2,1zm64 -38l41 -23c12,2 24,13 31,-6 -3,-5 -10,0 -10,-6l10 -6c1,0 2,-1 3,-2l25 -14c4,-1 8,-2 12,-2 -1,-1 -2,-2 -4,-3l100 -58 1 0c0,2 0,3 1,4 9,2 15,0 18,-7 -3,0 -5,-2 -7,-4l5 -3c12,9 22,18 33,23 -3,-3 -12,-13 -6,-13 17,1 28,7 37,14l-40 23c-9,-6 -20,-12 -25,2 1,1 2,3 1,6 4,-1 8,0 11,0l-89 52c-11,-8 -12,-21 -30,-23 -3,9 -4,18 2,28 -7,1 -9,7 -16,8 -10,0 -12,-6 -21,-8 6,8 10,16 14,24l-13 7 -10 -2c0,3 0,6 1,8l-32 18 2 -10c17,-5 19,-15 32,-29 -11,-9 -29,-11 -39,-12 6,10 -7,40 -21,40 -8,-1 1,-14 -8,-15 0,2 0,3 0,5 -3,-5 -6,-9 -9,-16zm31 44l-30 17 0 0c5,-7 12,-11 16,-20 5,-1 9,0 14,3zm279 -206c4,2 7,3 11,4 -3,0 -7,1 -12,0 1,-1 1,-3 1,-4zm25 7c1,-9 5,-14 9,-20 8,4 10,-12 4,-14 0,0 0,-1 0,-2 -3,-2 -6,-3 -10,-4l51 -29c55,-32 123,-23 168,18l0 0 1 0c11,10 20,22 28,35l12 20c-2,1 -3,2 -4,4 11,0 -16,21 -3,25 1,-7 6,-8 11,-9 2,6 12,8 7,18 -5,8 -17,4 -18,19 15,-1 23,3 37,11 0,-4 1,-7 3,-10l15 27c-1,2 -2,5 -4,6 -6,-3 -5,-11 -11,-14 -5,0 -4,9 -8,10 2,4 9,5 9,10 -4,12 -16,7 -13,22 -6,-1 -2,-8 -10,-7 -1,8 4,11 8,16 -2,0 -5,0 -7,0l-70 -122c-6,-9 -13,-18 -22,-25 5,1 9,0 12,-3 -9,0 -4,-8 -13,-8 -1,3 -3,4 -4,7 -28,-19 -66,-22 -98,-4l-53 31c-5,-2 -10,-5 -14,-8 -1,6 -4,8 -10,6 -1,-2 -2,-5 -3,-6zm324 111l5 9c-2,0 -5,0 -7,-2 0,-3 1,-5 2,-7zm10 17l4 8c-1,0 -2,0 -3,-1 -2,-3 -2,-5 -1,-7zm32 56l7 12c-5,1 -9,-5 -7,-12l0 0 0 0zm36 62l6 10c-3,2 -6,1 -11,0 0,-6 4,-6 5,-10zm14 25l4 6c-2,1 -4,2 -6,3 -4,-4 -1,-7 2,-9zm10 17l5 7 -2 5c-7,-1 -5,-7 -5,-12l0 0 2 0zm12 20l17 29c-2,6 -2,10 3,12 0,-1 1,-2 2,-3l10 18c-2,3 -4,6 -6,9 4,12 8,25 14,37 2,-7 9,-7 11,-13l82 141c31,54 23,120 -15,165 -6,-1 -12,-2 -16,2 -2,-15 -30,-9 -28,-23 -9,-1 5,12 -7,7 1,-4 1,-7 0,-10 33,-27 42,-76 20,-114l-134 -232 1 -5c-1,0 -3,0 -4,-1l-14 -23c19,1 35,-6 50,9 0,10 -12,1 -11,11 8,6 9,16 14,23 2,-7 14,-17 4,-27 3,1 7,2 10,2 2,-7 -2,-10 -3,-14zm37 64l8 14c-6,-4 -11,-7 -11,-14l3 0zm-114 -91l-3 -5c5,0 9,-5 9,2 -1,2 -3,3 -6,3zm-6 -10l-6 -11c0,-2 1,-2 3,-3 0,-4 -6,-10 -11,-10l-61 -107c1,1 3,1 5,1 1,4 3,7 3,12 13,-7 25,16 35,8 5,1 0,9 3,12 18,4 24,9 36,13 0,2 0,4 -1,6 0,9 -11,2 -13,8 8,7 15,15 17,26 5,-1 4,-12 11,-11 3,6 10,10 9,19 -7,0 -12,4 -20,4 -10,0 -1,-12 -12,-11 6,11 5,26 15,34 -3,13 -4,-6 -13,-3 -2,5 1,8 0,13zm-547 -137l-10 6c2,-3 2,-6 -3,-9l0 0c7,-4 11,-2 13,3zm734 584c-7,6 -15,12 -24,17l-164 95c0,-1 -1,-1 -1,-1 -1,0 -1,1 -1,2l-36 21c-11,-8 -23,-20 -34,-10 -3,16 -1,21 2,28l-19 11c0,0 -1,0 -2,0 2,-5 4,-8 7,-10 -17,-5 -24,9 -33,19 4,0 6,2 7,3l-24 14c4,-9 10,-13 2,-21 -6,5 -29,10 -19,27 3,-12 7,-7 11,-2l-6 3c-1,-1 -1,-2 -1,-3 -2,2 -3,4 -3,6l-181 104c0,0 0,0 0,0l-14 8c-2,-1 -5,-2 -7,-2 0,-4 -3,-6 -6,-8 -1,3 -5,4 -5,10 4,0 7,1 11,2l0 -1c1,1 2,1 2,2l-30 18c-5,-5 -3,-14 -14,-15 -1,6 -3,13 -4,19 2,1 4,1 7,2l-29 17c-1,-1 -2,-1 -3,-2 -4,3 -7,5 -8,8l-150 87 -114 65c-1,-7 -5,-14 -18,-22 2,9 3,20 5,30l-256 148c12,-8 20,-20 13,-30 -7,19 -19,29 -36,30 -14,-13 -26,-5 -50,-5 0,-11 9,-5 11,-13 -3,0 -6,-2 -7,-4l313 -180c2,2 4,4 8,5 1,-4 2,-8 3,-12l384 -222c1,4 3,8 8,10 2,-7 1,-10 -1,-14l13 -7c-2,3 -5,5 -5,11 3,1 6,1 8,2 4,-4 2,-9 0,-15l24 -14c0,1 0,2 -1,3 5,2 9,-3 11,-8l26 -16 1 1 0 -1 16 -9c2,2 3,4 -3,8 12,-8 24,-1 35,-6 -4,-8 -12,-4 -13,-13l48 -28c-1,2 -3,4 -4,6 10,0 5,9 8,14 23,7 32,-10 48,-15 -10,-3 -2,-16 -11,-19 -7,10 -16,16 -28,16 1,-3 -2,-5 -2,-8 6,-2 16,-5 17,-10l154 -89c0,2 1,4 0,7 7,2 10,-2 11,-9l-5 -1 79 -46c4,1 7,4 11,7 26,-14 42,-5 68,5zm-898 -489l-5 3 1 -4 4 1zm-31 18l-10 6c0,-14 6,-27 14,-28 6,8 -2,12 -4,22zm-228 1142l-18 11c-3,-1 -5,-2 -5,-6 7,1 15,-1 23,-5zm-98 57l-45 26c7,-14 25,-9 30,-26 -2,-5 -13,-5 -8,-14 5,-2 11,-2 20,1 -5,8 -2,11 3,13zm-1237 5l-51 29 165 287 49 -29 -102 -176 3 -1 178 132 3 -2 -25 -221 2 -1 102 176 48 -28 -165 -286 -47 27 26 228 -2 1 -184 -136zm432 -250l-176 102 166 286 179 -104 -24 -42 -131 75 -46 -80 118 -68 -24 -43 -119 69 -45 -79 127 -73 -25 -43zm361 174l54 -31 -124 -79c26,-25 32,-62 12,-97l-22 -36c-23,-42 -68,-54 -109,-30l-131 76 165 286 49 -28 -63 -111 47 -27 122 77zm-246 -183l77 -45c15,-8 30,-4 39,11l24 41c9,15 4,30 -10,39l-78 45 -52 -91zm216 -182l-49 29 165 286 49 -29 -165 -286zm272 225l49 -28 -141 -244 82 -47 -25 -43 -212 123 24 43 82 -48 141 244zm298 -172c41,-24 53,-69 30,-110l-85 -147c-24,-41 -69,-53 -110,-29l-74 42c-41,24 -53,68 -29,110l85 147c24,41 68,53 110,29l73 -42zm-28 -40l-66 37c-15,9 -30,5 -39,-10l-87 -152c-9,-15 -5,-30 10,-39l65 -38c15,-8 31,-4 39,11l88 152c8,15 4,30 -10,39zm301 -118l54 -31 -124 -78c27,-26 32,-62 12,-97l-21 -37c-24,-41 -68,-53 -110,-29l-131 75 166 286 49 -28 -64 -110 48 -28 121 77zm-246 -183l78 -44c14,-9 30,-5 38,10l25 42c8,14 4,30 -11,38l-78 45 -52 -91zm382 105l-113 -196 2 -1 225 131 49 -29 -165 -286 -49 29 113 195 -1 1 -226 -130 -49 28 165 286 49 -28zm96 -437l-49 28 165 286 50 -28 -166 -286zm-14 -10l19 -83 -53 31 -4 74 38 -22z"/>
 </g>
</svg>
